<svg width="90" height="91" viewBox="0 0 90 91" fill="none" xmlns="http://www.w3.org/2000/svg">
<path d="M76.825 45.2201C76.825 49.3994 76.0018 53.5377 74.4025 57.3989C72.8031 61.26 70.459 64.7683 67.5038 67.7235C64.5486 70.6787 61.0403 73.0229 57.1791 74.6222C53.318 76.2215 49.1796 77.0447 45.0004 77.0447C40.8211 77.0447 36.6828 76.2215 32.8216 74.6222C28.9605 73.0229 25.4522 70.6787 22.497 67.7235C19.5418 64.7683 17.1976 61.26 15.5983 57.3989C13.9989 53.5377 13.1758 49.3994 13.1758 45.2201H26.5975C26.5975 47.6368 27.0735 50.0299 27.9983 52.2626C28.9232 54.4953 30.2787 56.5241 31.9876 58.2329C33.6964 59.9418 35.7252 61.2973 37.9579 62.2222C40.1906 63.147 42.5837 63.623 45.0004 63.623C47.4171 63.623 49.8101 63.147 52.0429 62.2222C54.2756 61.2973 56.3043 59.9418 58.0132 58.2329C59.7221 56.5241 61.0776 54.4953 62.0024 52.2626C62.9273 50.0299 63.4033 47.6368 63.4033 45.2201H76.825Z" fill="url(#paint0_radial_453_4404)"/>
<path d="M13.1767 45.4547C13.1272 38.7342 15.2065 32.1706 19.1167 26.7044L30.0329 34.5133C27.7718 37.6742 26.5694 41.4697 26.598 45.3559L13.1767 45.4547Z" fill="url(#paint1_linear_453_4404)"/>
<path d="M19.1079 26.7158C23.0158 21.248 28.5542 17.1577 34.9296 15.0311L39.1766 27.7631C35.4899 28.9929 32.2873 31.3581 30.0275 34.5199L19.1079 26.7158Z" fill="url(#paint2_linear_453_4404)"/>
<path d="M34.8021 15.0738C41.1684 12.9201 48.053 12.8372 54.4693 14.8369L50.4758 27.6507C46.7655 26.4944 42.7844 26.5423 39.103 27.7877L34.8021 15.0738Z" fill="url(#paint3_linear_453_4404)"/>
<circle cx="66.0015" cy="29.0297" r="6.99177" fill="#A3D9FF"/>
<defs>
<radialGradient id="paint0_radial_453_4404" cx="0" cy="0" r="1" gradientUnits="userSpaceOnUse" gradientTransform="translate(68.6277 45.2201) rotate(-180) scale(55.452)">
<stop stop-color="#D9D9D9" stop-opacity="0"/>
<stop offset="1" stop-color="#4D85FF"/>
</radialGradient>
<linearGradient id="paint1_linear_453_4404" x1="22.2169" y1="18.5793" x2="25.3511" y2="46.3052" gradientUnits="userSpaceOnUse">
<stop stop-color="#A3D9FF"/>
<stop offset="1" stop-color="#5C8FFD"/>
</linearGradient>
<linearGradient id="paint2_linear_453_4404" x1="44.8506" y1="10.166" x2="29.3107" y2="33.3407" gradientUnits="userSpaceOnUse">
<stop stop-color="#A3D9FF"/>
<stop offset="1" stop-color="#5C8FFD"/>
</linearGradient>
<linearGradient id="paint3_linear_453_4404" x1="67.8818" y1="18.6632" x2="40.9508" y2="25.962" gradientUnits="userSpaceOnUse">
<stop stop-color="#A3D9FF"/>
<stop offset="1" stop-color="#5C8FFD"/>
</linearGradient>
</defs>
</svg>
