<svg width="479" height="452" viewBox="0 0 479 452" fill="none" xmlns="http://www.w3.org/2000/svg">
<g opacity="0.3">
<path d="M452.389 398.335H425.778V239.235H372.556V398.335H319.333V239.235H266.111V398.335H212.889V239.235H159.667V398.335H106.444V239.235H53.2222V398.335H26.6111C19.5534 398.335 12.7847 401.129 7.79419 406.101C2.80364 411.074 0 417.819 0 424.851C0 431.884 2.80364 438.629 7.79419 443.602C12.7847 448.574 19.5534 451.368 26.6111 451.368H452.389C459.447 451.368 466.215 448.574 471.206 443.602C476.196 438.629 479 431.884 479 424.851C479 417.819 476.196 411.074 471.206 406.101C466.215 401.129 459.447 398.335 452.389 398.335Z" fill="url(#paint0_linear_453_4030)"/>
<path d="M464.284 109.436L251.395 3.36996C247.702 1.53081 243.629 0.573364 239.5 0.573364C235.371 0.573364 231.298 1.53081 227.605 3.36996L14.7159 109.436C10.2923 111.639 6.57214 115.026 3.97278 119.218C1.37342 123.41 -0.00230151 128.241 2.89028e-06 133.169V159.685C2.89028e-06 166.718 2.80365 173.462 7.7942 178.435C12.7847 183.408 19.5534 186.202 26.6111 186.202H452.389C459.447 186.202 466.215 183.408 471.206 178.435C476.196 173.462 479 166.718 479 159.685V133.169C479.002 128.241 477.627 123.41 475.027 119.218C472.428 115.026 468.708 111.639 464.284 109.436Z" fill="url(#paint1_linear_453_4030)"/>
</g>
<defs>
<linearGradient id="paint0_linear_453_4030" x1="17.8509" y1="20.0042" x2="645.933" y2="562.707" gradientUnits="userSpaceOnUse">
<stop stop-color="#8BD4FF"/>
<stop offset="1" stop-color="#B8F1FF"/>
</linearGradient>
<linearGradient id="paint1_linear_453_4030" x1="17.8509" y1="20.0042" x2="645.933" y2="562.707" gradientUnits="userSpaceOnUse">
<stop stop-color="#8BD4FF"/>
<stop offset="1" stop-color="#B8F1FF"/>
</linearGradient>
</defs>
</svg>
