<svg width="100" height="74" viewBox="0 0 100 74" fill="none" xmlns="http://www.w3.org/2000/svg">
<path d="M67.64 24.9997C67.64 27.3215 67.1827 29.6206 66.2941 31.7656C65.4056 33.9107 64.1033 35.8598 62.4615 37.5016C60.8197 39.1433 58.8707 40.4456 56.7256 41.3342C54.5805 42.2227 52.2814 42.68 49.9596 42.68C47.6378 42.68 45.3387 42.2227 43.1937 41.3342C41.0486 40.4456 39.0995 39.1433 37.4577 37.5016C35.816 35.8598 34.5137 33.9107 33.6251 31.7656C32.7366 29.6206 32.2793 27.3215 32.2793 24.9997L39.7358 24.9997C39.7358 26.3423 40.0002 27.6717 40.514 28.9122C41.0278 30.1526 41.7809 31.2796 42.7303 32.229C43.6797 33.1784 44.8067 33.9315 46.0471 34.4453C47.2876 34.9591 48.617 35.2235 49.9596 35.2235C51.3022 35.2235 52.6317 34.9591 53.8721 34.4453C55.1125 33.9315 56.2396 33.1784 57.189 32.229C58.1383 31.2796 58.8914 30.1526 59.4052 28.9122C59.919 27.6717 60.1835 26.3423 60.1835 24.9997H67.64Z" fill="url(#paint0_radial_493_1224)"/>
<path d="M32.2803 25.1304C32.2528 21.3967 33.408 17.7503 35.5803 14.7135L41.6449 19.0518C40.3887 20.8078 39.7207 22.9164 39.7366 25.0754L32.2803 25.1304Z" fill="url(#paint1_linear_493_1224)"/>
<path d="M35.5741 14.7196C37.7451 11.682 40.822 9.40956 44.3639 8.22812L46.7233 15.3015C44.6752 15.9847 42.8959 17.2987 41.6405 19.0553L35.5741 14.7196Z" fill="url(#paint2_linear_493_1224)"/>
<path d="M44.2941 8.25123C47.8309 7.05476 51.6558 7.00869 55.2204 8.11962L53.0018 15.2384C50.9405 14.596 48.7288 14.6226 46.6835 15.3145L44.2941 8.25123Z" fill="url(#paint3_linear_493_1224)"/>
<ellipse cx="61.6265" cy="16.0047" rx="3.88432" ry="3.88432" fill="#A3D9FF"/>
<path d="M17.3542 57.9549H14.0344C13.9398 57.4105 13.7652 56.9282 13.5107 56.5081C13.2563 56.082 12.9397 55.721 12.561 55.4252C12.1822 55.1293 11.7503 54.9074 11.265 54.7594C10.7857 54.6056 10.2679 54.5287 9.71169 54.5287C8.72346 54.5287 7.84767 54.7772 7.08431 55.2743C6.32096 55.7654 5.72329 56.4874 5.29131 57.4401C4.85933 58.3869 4.64334 59.5438 4.64334 60.9107C4.64334 62.3013 4.85933 63.473 5.29131 64.4257C5.7292 65.3725 6.32687 66.0885 7.08431 66.5738C7.84767 67.0531 8.72051 67.2927 9.70281 67.2927C10.2472 67.2927 10.7561 67.2217 11.2295 67.0797C11.7088 66.9318 12.1379 66.7158 12.5166 66.4317C12.9012 66.1477 13.2237 65.7986 13.4841 65.3843C13.7504 64.9701 13.9338 64.4967 14.0344 63.9641L17.3542 63.9819C17.2299 64.8458 16.9606 65.6565 16.5464 66.414C16.1381 67.1714 15.6026 67.8401 14.9398 68.42C14.277 68.994 13.5019 69.4438 12.6142 69.7692C11.7266 70.0888 10.7413 70.2485 9.65843 70.2485C8.0607 70.2485 6.63458 69.8787 5.38007 69.139C4.12556 68.3993 3.13733 67.3312 2.4154 65.9347C1.69346 64.5381 1.33249 62.8635 1.33249 60.9107C1.33249 58.952 1.69642 57.2774 2.42427 55.8867C3.15213 54.4902 4.14331 53.4221 5.39782 52.6824C6.65234 51.9427 8.07254 51.5729 9.65843 51.5729C10.6703 51.5729 11.6112 51.7149 12.4811 51.9989C13.351 52.283 14.1262 52.7002 14.8067 53.2505C15.4872 53.7949 16.0464 54.4636 16.4843 55.2565C16.9281 56.0436 17.2181 56.943 17.3542 57.9549ZM19.7279 70V56.3661H22.8435V58.6384H22.9855C23.2341 57.8513 23.6601 57.2448 24.2637 56.8187C24.8732 56.3868 25.5685 56.1708 26.3496 56.1708C26.5272 56.1708 26.7254 56.1797 26.9443 56.1974C27.1692 56.2092 27.3556 56.23 27.5035 56.2595V59.2153C27.3674 59.168 27.1515 59.1266 26.8556 59.0911C26.5656 59.0496 26.2845 59.0289 26.0123 59.0289C25.4265 59.0289 24.8998 59.1562 24.4324 59.4106C23.9708 59.6591 23.6069 60.0053 23.3406 60.4491C23.0743 60.893 22.9411 61.4048 22.9411 61.9847V70H19.7279ZM34.6128 70.2663C33.2459 70.2663 32.0653 69.9822 31.0712 69.4142C30.083 68.8402 29.3226 68.0295 28.79 66.9821C28.2574 65.9288 27.9911 64.689 27.9911 63.2629C27.9911 61.8605 28.2574 60.6296 28.79 59.5704C29.3285 58.5052 30.08 57.6768 31.0446 57.085C32.0091 56.4874 33.1423 56.1885 34.4442 56.1885C35.2845 56.1885 36.0774 56.3246 36.823 56.5968C37.5745 56.8631 38.2373 57.2774 38.8113 57.8395C39.3912 58.4017 39.8469 59.1177 40.1782 59.9876C40.5096 60.8515 40.6753 61.8812 40.6753 63.0765V64.0618H29.5001V61.896H37.5952C37.5893 61.2805 37.4562 60.7332 37.1958 60.2539C36.9354 59.7686 36.5715 59.3869 36.104 59.1088C35.6425 58.8307 35.104 58.6916 34.4885 58.6916C33.8317 58.6916 33.2547 58.8514 32.7577 59.171C32.2606 59.4846 31.873 59.8988 31.5949 60.4136C31.3227 60.9225 31.1836 61.4817 31.1777 62.0912V63.9819C31.1777 64.7748 31.3227 65.4554 31.6126 66.0234C31.9026 66.5856 32.3079 67.0176 32.8287 67.3194C33.3494 67.6152 33.9589 67.7632 34.6572 67.7632C35.1247 67.7632 35.5478 67.6981 35.9265 67.5679C36.3052 67.4318 36.6336 67.2336 36.9118 66.9732C37.1899 66.7128 37.4 66.3903 37.542 66.0057L40.5422 66.343C40.3528 67.1359 39.9918 67.8283 39.4593 68.42C38.9326 69.0059 38.258 69.4615 37.4355 69.787C36.6129 70.1065 35.672 70.2663 34.6128 70.2663ZM47.9532 70.2397C46.8822 70.2397 45.9235 69.9645 45.0773 69.4142C44.2311 68.8638 43.5624 68.065 43.0713 67.0176C42.5801 65.9702 42.3345 64.6979 42.3345 63.2008C42.3345 61.6859 42.5831 60.4077 43.0802 59.3662C43.5831 58.3188 44.2607 57.5288 45.1128 56.9963C45.9649 56.4578 46.9147 56.1885 47.9621 56.1885C48.761 56.1885 49.4178 56.3246 49.9326 56.5968C50.4475 56.8631 50.8558 57.1856 51.1576 57.5643C51.4593 57.9372 51.6931 58.2892 51.8588 58.6206H51.9919V51.8214H55.214V70H52.0541V67.8519H51.8588C51.6931 68.1833 51.4534 68.5354 51.1398 68.9082C50.8262 69.2751 50.4119 69.5887 49.8971 69.8491C49.3823 70.1095 48.7343 70.2397 47.9532 70.2397ZM48.8497 67.6034C49.5302 67.6034 50.1102 67.42 50.5895 67.0531C51.0688 66.6803 51.4327 66.1625 51.6813 65.4997C51.9298 64.837 52.0541 64.0647 52.0541 63.183C52.0541 62.3013 51.9298 61.535 51.6813 60.8841C51.4386 60.2331 51.0777 59.7272 50.5983 59.3662C50.1249 59.0053 49.5421 58.8248 48.8497 58.8248C48.1337 58.8248 47.536 59.0112 47.0567 59.384C46.5774 59.7568 46.2164 60.2716 45.9738 60.9285C45.7312 61.5853 45.6099 62.3368 45.6099 63.183C45.6099 64.0351 45.7312 64.7955 45.9738 65.4642C46.2223 66.127 46.5863 66.6507 47.0656 67.0353C47.5508 67.414 48.1455 67.6034 48.8497 67.6034ZM58.1381 70V56.3661H61.3513V70H58.1381ZM59.7536 54.431C59.2447 54.431 58.8068 54.2624 58.4399 53.9251C58.073 53.5819 57.8896 53.1706 57.8896 52.6913C57.8896 52.206 58.073 51.7948 58.4399 51.4575C58.8068 51.1143 59.2447 50.9427 59.7536 50.9427C60.2684 50.9427 60.7063 51.1143 61.0673 51.4575C61.4342 51.7948 61.6176 52.206 61.6176 52.6913C61.6176 53.1706 61.4342 53.5819 61.0673 53.9251C60.7063 54.2624 60.2684 54.431 59.7536 54.431ZM70.9637 56.3661V58.8514H63.126V56.3661H70.9637ZM65.061 53.0996H68.2742V65.8992C68.2742 66.3311 68.3393 66.6625 68.4695 66.8933C68.6056 67.1182 68.7831 67.272 69.002 67.3549C69.221 67.4377 69.4636 67.4791 69.7299 67.4791C69.9311 67.4791 70.1145 67.4643 70.2802 67.4348C70.4518 67.4052 70.582 67.3785 70.6708 67.3549L71.2122 69.8669C71.0406 69.926 70.795 69.9911 70.4755 70.0621C70.1619 70.1331 69.7772 70.1746 69.3216 70.1864C68.5168 70.2101 67.7919 70.0888 67.1469 69.8225C66.5019 69.5503 65.99 69.1301 65.6113 68.562C65.2385 67.994 65.0551 67.2839 65.061 66.4317V53.0996ZM78.9517 70.2663C77.6203 70.2663 76.4664 69.9734 75.49 69.3875C74.5136 68.8017 73.7561 67.9821 73.2177 66.9288C72.6851 65.8755 72.4188 64.6447 72.4188 63.2363C72.4188 61.8279 72.6851 60.5941 73.2177 59.5349C73.7561 58.4756 74.5136 57.6531 75.49 57.0673C76.4664 56.4814 77.6203 56.1885 78.9517 56.1885C80.2832 56.1885 81.4371 56.4814 82.4135 57.0673C83.3899 57.6531 84.1443 58.4756 84.6769 59.5349C85.2154 60.5941 85.4847 61.8279 85.4847 63.2363C85.4847 64.6447 85.2154 65.8755 84.6769 66.9288C84.1443 67.9821 83.3899 68.8017 82.4135 69.3875C81.4371 69.9734 80.2832 70.2663 78.9517 70.2663ZM78.9695 67.6922C79.6914 67.6922 80.295 67.4939 80.7802 67.0975C81.2655 66.6951 81.6264 66.1566 81.8631 65.482C82.1058 64.8074 82.2271 64.0559 82.2271 63.2274C82.2271 62.393 82.1058 61.6386 81.8631 60.964C81.6264 60.2834 81.2655 59.742 80.7802 59.3396C80.295 58.9372 79.6914 58.736 78.9695 58.736C78.2298 58.736 77.6144 58.9372 77.1232 59.3396C76.638 59.742 76.274 60.2834 76.0314 60.964C75.7947 61.6386 75.6764 62.393 75.6764 63.2274C75.6764 64.0559 75.7947 64.8074 76.0314 65.482C76.274 66.1566 76.638 66.6951 77.1232 67.0975C77.6144 67.4939 78.2298 67.6922 78.9695 67.6922ZM99.4264 56.3661L94.5711 70H91.0206L86.1653 56.3661H89.5915L92.7248 66.4939H92.8669L96.0091 56.3661H99.4264Z" fill="white"/>
<path d="M17.3542 57.9549H14.0344C13.9398 57.4105 13.7652 56.9282 13.5107 56.5081C13.2563 56.082 12.9397 55.721 12.561 55.4252C12.1822 55.1293 11.7503 54.9074 11.265 54.7594C10.7857 54.6056 10.2679 54.5287 9.71169 54.5287C8.72346 54.5287 7.84767 54.7772 7.08431 55.2743C6.32096 55.7654 5.72329 56.4874 5.29131 57.4401C4.85933 58.3869 4.64334 59.5438 4.64334 60.9107C4.64334 62.3013 4.85933 63.473 5.29131 64.4257C5.7292 65.3725 6.32687 66.0885 7.08431 66.5738C7.84767 67.0531 8.72051 67.2927 9.70281 67.2927C10.2472 67.2927 10.7561 67.2217 11.2295 67.0797C11.7088 66.9318 12.1379 66.7158 12.5166 66.4317C12.9012 66.1477 13.2237 65.7986 13.4841 65.3843C13.7504 64.9701 13.9338 64.4967 14.0344 63.9641L17.3542 63.9819C17.2299 64.8458 16.9606 65.6565 16.5464 66.414C16.1381 67.1714 15.6026 67.8401 14.9398 68.42C14.277 68.994 13.5019 69.4438 12.6142 69.7692C11.7266 70.0888 10.7413 70.2485 9.65843 70.2485C8.0607 70.2485 6.63458 69.8787 5.38007 69.139C4.12556 68.3993 3.13733 67.3312 2.4154 65.9347C1.69346 64.5381 1.33249 62.8635 1.33249 60.9107C1.33249 58.952 1.69642 57.2774 2.42427 55.8867C3.15213 54.4902 4.14331 53.4221 5.39782 52.6824C6.65234 51.9427 8.07254 51.5729 9.65843 51.5729C10.6703 51.5729 11.6112 51.7149 12.4811 51.9989C13.351 52.283 14.1262 52.7002 14.8067 53.2505C15.4872 53.7949 16.0464 54.4636 16.4843 55.2565C16.9281 56.0436 17.2181 56.943 17.3542 57.9549ZM19.7279 70V56.3661H22.8435V58.6384H22.9855C23.2341 57.8513 23.6601 57.2448 24.2637 56.8187C24.8732 56.3868 25.5685 56.1708 26.3496 56.1708C26.5272 56.1708 26.7254 56.1797 26.9443 56.1974C27.1692 56.2092 27.3556 56.23 27.5035 56.2595V59.2153C27.3674 59.168 27.1515 59.1266 26.8556 59.0911C26.5656 59.0496 26.2845 59.0289 26.0123 59.0289C25.4265 59.0289 24.8998 59.1562 24.4324 59.4106C23.9708 59.6591 23.6069 60.0053 23.3406 60.4491C23.0743 60.893 22.9411 61.4048 22.9411 61.9847V70H19.7279ZM34.6128 70.2663C33.2459 70.2663 32.0653 69.9822 31.0712 69.4142C30.083 68.8402 29.3226 68.0295 28.79 66.9821C28.2574 65.9288 27.9911 64.689 27.9911 63.2629C27.9911 61.8605 28.2574 60.6296 28.79 59.5704C29.3285 58.5052 30.08 57.6768 31.0446 57.085C32.0091 56.4874 33.1423 56.1885 34.4442 56.1885C35.2845 56.1885 36.0774 56.3246 36.823 56.5968C37.5745 56.8631 38.2373 57.2774 38.8113 57.8395C39.3912 58.4017 39.8469 59.1177 40.1782 59.9876C40.5096 60.8515 40.6753 61.8812 40.6753 63.0765V64.0618H29.5001V61.896H37.5952C37.5893 61.2805 37.4562 60.7332 37.1958 60.2539C36.9354 59.7686 36.5715 59.3869 36.104 59.1088C35.6425 58.8307 35.104 58.6916 34.4885 58.6916C33.8317 58.6916 33.2547 58.8514 32.7577 59.171C32.2606 59.4846 31.873 59.8988 31.5949 60.4136C31.3227 60.9225 31.1836 61.4817 31.1777 62.0912V63.9819C31.1777 64.7748 31.3227 65.4554 31.6126 66.0234C31.9026 66.5856 32.3079 67.0176 32.8287 67.3194C33.3494 67.6152 33.9589 67.7632 34.6572 67.7632C35.1247 67.7632 35.5478 67.6981 35.9265 67.5679C36.3052 67.4318 36.6336 67.2336 36.9118 66.9732C37.1899 66.7128 37.4 66.3903 37.542 66.0057L40.5422 66.343C40.3528 67.1359 39.9918 67.8283 39.4593 68.42C38.9326 69.0059 38.258 69.4615 37.4355 69.787C36.6129 70.1065 35.672 70.2663 34.6128 70.2663ZM47.9532 70.2397C46.8822 70.2397 45.9235 69.9645 45.0773 69.4142C44.2311 68.8638 43.5624 68.065 43.0713 67.0176C42.5801 65.9702 42.3345 64.6979 42.3345 63.2008C42.3345 61.6859 42.5831 60.4077 43.0802 59.3662C43.5831 58.3188 44.2607 57.5288 45.1128 56.9963C45.9649 56.4578 46.9147 56.1885 47.9621 56.1885C48.761 56.1885 49.4178 56.3246 49.9326 56.5968C50.4475 56.8631 50.8558 57.1856 51.1576 57.5643C51.4593 57.9372 51.6931 58.2892 51.8588 58.6206H51.9919V51.8214H55.214V70H52.0541V67.8519H51.8588C51.6931 68.1833 51.4534 68.5354 51.1398 68.9082C50.8262 69.2751 50.4119 69.5887 49.8971 69.8491C49.3823 70.1095 48.7343 70.2397 47.9532 70.2397ZM48.8497 67.6034C49.5302 67.6034 50.1102 67.42 50.5895 67.0531C51.0688 66.6803 51.4327 66.1625 51.6813 65.4997C51.9298 64.837 52.0541 64.0647 52.0541 63.183C52.0541 62.3013 51.9298 61.535 51.6813 60.8841C51.4386 60.2331 51.0777 59.7272 50.5983 59.3662C50.1249 59.0053 49.5421 58.8248 48.8497 58.8248C48.1337 58.8248 47.536 59.0112 47.0567 59.384C46.5774 59.7568 46.2164 60.2716 45.9738 60.9285C45.7312 61.5853 45.6099 62.3368 45.6099 63.183C45.6099 64.0351 45.7312 64.7955 45.9738 65.4642C46.2223 66.127 46.5863 66.6507 47.0656 67.0353C47.5508 67.414 48.1455 67.6034 48.8497 67.6034ZM58.1381 70V56.3661H61.3513V70H58.1381ZM59.7536 54.431C59.2447 54.431 58.8068 54.2624 58.4399 53.9251C58.073 53.5819 57.8896 53.1706 57.8896 52.6913C57.8896 52.206 58.073 51.7948 58.4399 51.4575C58.8068 51.1143 59.2447 50.9427 59.7536 50.9427C60.2684 50.9427 60.7063 51.1143 61.0673 51.4575C61.4342 51.7948 61.6176 52.206 61.6176 52.6913C61.6176 53.1706 61.4342 53.5819 61.0673 53.9251C60.7063 54.2624 60.2684 54.431 59.7536 54.431ZM70.9637 56.3661V58.8514H63.126V56.3661H70.9637ZM65.061 53.0996H68.2742V65.8992C68.2742 66.3311 68.3393 66.6625 68.4695 66.8933C68.6056 67.1182 68.7831 67.272 69.002 67.3549C69.221 67.4377 69.4636 67.4791 69.7299 67.4791C69.9311 67.4791 70.1145 67.4643 70.2802 67.4348C70.4518 67.4052 70.582 67.3785 70.6708 67.3549L71.2122 69.8669C71.0406 69.926 70.795 69.9911 70.4755 70.0621C70.1619 70.1331 69.7772 70.1746 69.3216 70.1864C68.5168 70.2101 67.7919 70.0888 67.1469 69.8225C66.5019 69.5503 65.99 69.1301 65.6113 68.562C65.2385 67.994 65.0551 67.2839 65.061 66.4317V53.0996ZM78.9517 70.2663C77.6203 70.2663 76.4664 69.9734 75.49 69.3875C74.5136 68.8017 73.7561 67.9821 73.2177 66.9288C72.6851 65.8755 72.4188 64.6447 72.4188 63.2363C72.4188 61.8279 72.6851 60.5941 73.2177 59.5349C73.7561 58.4756 74.5136 57.6531 75.49 57.0673C76.4664 56.4814 77.6203 56.1885 78.9517 56.1885C80.2832 56.1885 81.4371 56.4814 82.4135 57.0673C83.3899 57.6531 84.1443 58.4756 84.6769 59.5349C85.2154 60.5941 85.4847 61.8279 85.4847 63.2363C85.4847 64.6447 85.2154 65.8755 84.6769 66.9288C84.1443 67.9821 83.3899 68.8017 82.4135 69.3875C81.4371 69.9734 80.2832 70.2663 78.9517 70.2663ZM78.9695 67.6922C79.6914 67.6922 80.295 67.4939 80.7802 67.0975C81.2655 66.6951 81.6264 66.1566 81.8631 65.482C82.1058 64.8074 82.2271 64.0559 82.2271 63.2274C82.2271 62.393 82.1058 61.6386 81.8631 60.964C81.6264 60.2834 81.2655 59.742 80.7802 59.3396C80.295 58.9372 79.6914 58.736 78.9695 58.736C78.2298 58.736 77.6144 58.9372 77.1232 59.3396C76.638 59.742 76.274 60.2834 76.0314 60.964C75.7947 61.6386 75.6764 62.393 75.6764 63.2274C75.6764 64.0559 75.7947 64.8074 76.0314 65.482C76.274 66.1566 76.638 66.6951 77.1232 67.0975C77.6144 67.4939 78.2298 67.6922 78.9695 67.6922ZM99.4264 56.3661L94.5711 70H91.0206L86.1653 56.3661H89.5915L92.7248 66.4939H92.8669L96.0091 56.3661H99.4264Z" fill="#022860"/>
<defs>
<radialGradient id="paint0_radial_493_1224" cx="0" cy="0" r="1" gradientUnits="userSpaceOnUse" gradientTransform="translate(63.0859 24.9997) rotate(-180) scale(30.8066)">
<stop stop-color="#D9D9D9" stop-opacity="0"/>
<stop offset="1" stop-color="#4D85FF"/>
</radialGradient>
<linearGradient id="paint1_linear_493_1224" x1="37.3027" y1="10.1995" x2="39.0439" y2="25.6029" gradientUnits="userSpaceOnUse">
<stop stop-color="#A3D9FF"/>
<stop offset="1" stop-color="#5C8FFD"/>
</linearGradient>
<linearGradient id="paint2_linear_493_1224" x1="49.8756" y1="5.52532" x2="41.2423" y2="18.4001" gradientUnits="userSpaceOnUse">
<stop stop-color="#A3D9FF"/>
<stop offset="1" stop-color="#5C8FFD"/>
</linearGradient>
<linearGradient id="paint3_linear_493_1224" x1="62.6717" y1="10.2454" x2="47.7101" y2="14.3003" gradientUnits="userSpaceOnUse">
<stop stop-color="#A3D9FF"/>
<stop offset="1" stop-color="#5C8FFD"/>
</linearGradient>
</defs>
</svg>
