<svg width="133" height="44" viewBox="0 0 133 44" fill="none" xmlns="http://www.w3.org/2000/svg">
<path d="M37.6225 21.78C37.6225 23.8028 37.2241 25.8057 36.45 27.6745C35.6759 29.5433 34.5414 31.2413 33.1111 32.6716C31.6808 34.1019 29.9827 35.2365 28.114 36.0106C26.2452 36.7846 24.2422 37.1831 22.2195 37.1831C20.1967 37.1831 18.1937 36.7846 16.325 36.0106C14.4562 35.2365 12.7582 34.1019 11.3279 32.6716C9.89755 31.2413 8.76297 29.5433 7.98889 27.6745C7.21482 25.8057 6.81641 23.8028 6.81641 21.78H13.3125C13.3125 22.9497 13.5429 24.1079 13.9905 25.1886C14.4381 26.2692 15.0942 27.2511 15.9213 28.0782C16.7484 28.9053 17.7303 29.5614 18.8109 30.009C19.8916 30.4566 21.0498 30.687 22.2195 30.687C23.3891 30.687 24.5474 30.4566 25.628 30.009C26.7087 29.5614 27.6905 28.9053 28.5176 28.0782C29.3447 27.2511 30.0008 26.2692 30.4484 25.1886C30.896 24.1079 31.1264 22.9497 31.1264 21.78H37.6225Z" fill="url(#paint0_radial_453_3879)"/>
<path d="M6.81645 21.8936C6.79249 18.6409 7.79888 15.4641 9.69139 12.8185L14.9748 16.598C13.8805 18.1278 13.2985 19.9648 13.3124 21.8458L6.81645 21.8936Z" fill="url(#paint1_linear_453_3879)"/>
<path d="M9.68783 12.8239C11.5792 10.1775 14.2598 8.19779 17.3455 7.16853L19.401 13.3308C17.6167 13.926 16.0666 15.0708 14.9729 16.6011L9.68783 12.8239Z" fill="url(#paint2_linear_453_3879)"/>
<path d="M17.2839 7.18934C20.3652 6.14698 23.6974 6.10685 26.8029 7.07469L24.87 13.2766C23.0742 12.7169 21.1474 12.7401 19.3656 13.3429L17.2839 7.18934Z" fill="url(#paint3_linear_453_3879)"/>
<circle cx="32.384" cy="13.9441" r="3.384" fill="#A3D9FF"/>
<path d="M59.9106 19.854H57.0185C56.936 19.3797 56.7839 18.9596 56.5622 18.5935C56.3405 18.2223 56.0647 17.9079 55.7348 17.6501C55.4049 17.3923 55.0285 17.199 54.6058 17.0701C54.1882 16.9361 53.7371 16.8691 53.2525 16.8691C52.3916 16.8691 51.6286 17.0856 50.9635 17.5186C50.2985 17.9465 49.7778 18.5755 49.4015 19.4055C49.0251 20.2303 48.837 21.2382 48.837 22.4291C48.837 23.6406 49.0251 24.6613 49.4015 25.4913C49.783 26.3162 50.3037 26.94 50.9635 27.3627C51.6286 27.7803 52.389 27.9891 53.2448 27.9891C53.7191 27.9891 54.1624 27.9272 54.5748 27.8035C54.9924 27.6746 55.3662 27.4865 55.6961 27.239C56.0312 26.9915 56.3122 26.6874 56.539 26.3265C56.771 25.9656 56.9308 25.5532 57.0185 25.0892L59.9106 25.1047C59.8023 25.8574 59.5678 26.5637 59.2069 27.2235C58.8512 27.8834 58.3846 28.466 57.8072 28.9712C57.2298 29.4713 56.5545 29.8631 55.7812 30.1466C55.0079 30.425 54.1495 30.5642 53.2061 30.5642C51.8142 30.5642 50.5717 30.242 49.4788 29.5976C48.3859 28.9531 47.525 28.0226 46.896 26.806C46.2671 25.5893 45.9526 24.1303 45.9526 22.4291C45.9526 20.7227 46.2696 19.2637 46.9037 18.0522C47.5378 16.8356 48.4014 15.905 49.4943 15.2606C50.5872 14.6162 51.8245 14.294 53.2061 14.294C54.0877 14.294 54.9074 14.4177 55.6652 14.6652C56.423 14.9126 57.0984 15.2761 57.6912 15.7555C58.2841 16.2298 58.7713 16.8124 59.1528 17.5032C59.5394 18.1888 59.792 18.9724 59.9106 19.854ZM61.9786 30.3477V18.4698H64.6929V20.4494H64.8166C65.0332 19.7638 65.4043 19.2354 65.9302 18.8642C66.4612 18.4878 67.0669 18.2997 67.7474 18.2997C67.9021 18.2997 68.0748 18.3074 68.2655 18.3229C68.4614 18.3332 68.6238 18.3512 68.7527 18.377V20.9521C68.6341 20.9108 68.446 20.8748 68.1882 20.8438C67.9356 20.8077 67.6907 20.7897 67.4536 20.7897C66.9432 20.7897 66.4844 20.9005 66.0771 21.1222C65.675 21.3387 65.3579 21.6403 65.126 22.027C64.894 22.4136 64.778 22.8596 64.778 23.3648V30.3477H61.9786ZM74.9463 30.5796C73.7554 30.5796 72.7269 30.3322 71.8608 29.8373C70.9999 29.3372 70.3374 28.6309 69.8735 27.7184C69.4095 26.8008 69.1775 25.7208 69.1775 24.4783C69.1775 23.2565 69.4095 22.1842 69.8735 21.2614C70.3426 20.3335 70.9973 19.6117 71.8376 19.0962C72.678 18.5755 73.6652 18.3151 74.7994 18.3151C75.5314 18.3151 76.2222 18.4337 76.8718 18.6709C77.5265 18.9029 78.1039 19.2637 78.604 19.7535C79.1092 20.2432 79.5062 20.867 79.7949 21.6249C80.0836 22.3775 80.2279 23.2746 80.2279 24.3159V25.1743H70.4921V23.2874H77.5446C77.5394 22.7513 77.4234 22.2744 77.1966 21.8568C76.9698 21.4341 76.6527 21.1016 76.2454 20.8593C75.8433 20.617 75.3742 20.4958 74.838 20.4958C74.2658 20.4958 73.7631 20.635 73.3301 20.9134C72.8971 21.1867 72.5594 21.5475 72.3171 21.996C72.0799 22.4394 71.9588 22.9266 71.9536 23.4576V25.1047C71.9536 25.7955 72.0799 26.3884 72.3325 26.8833C72.5852 27.373 72.9383 27.7494 73.392 28.0123C73.8456 28.2701 74.3766 28.3989 74.985 28.3989C75.3922 28.3989 75.7608 28.3422 76.0908 28.2288C76.4207 28.1102 76.7068 27.9375 76.9491 27.7107C77.1914 27.4839 77.3744 27.2029 77.4982 26.8678L80.1119 27.1617C79.947 27.8525 79.6325 28.4557 79.1685 28.9712C78.7097 29.4816 78.122 29.8785 77.4054 30.1621C76.6888 30.4405 75.8691 30.5796 74.9463 30.5796ZM86.5684 30.5564C85.6353 30.5564 84.8001 30.3167 84.0629 29.8373C83.3257 29.3578 82.7432 28.6619 82.3153 27.7494C81.8874 26.8369 81.6734 25.7285 81.6734 24.4242C81.6734 23.1044 81.89 21.9909 82.323 21.0835C82.7612 20.1711 83.3515 19.4828 84.0939 19.0188C84.8362 18.5497 85.6637 18.3151 86.5761 18.3151C87.2721 18.3151 87.8444 18.4337 88.2929 18.6709C88.7414 18.9029 89.0971 19.1838 89.36 19.5138C89.6229 19.8385 89.8266 20.1453 89.9709 20.434H90.0869V14.5105H92.894V30.3477H90.1411V28.4763H89.9709C89.8266 28.765 89.6178 29.0717 89.3446 29.3965C89.0713 29.7161 88.7105 29.9894 88.2619 30.2162C87.8134 30.443 87.2489 30.5564 86.5684 30.5564ZM87.3494 28.2598C87.9423 28.2598 88.4475 28.0999 88.8651 27.7803C89.2827 27.4555 89.5997 27.0044 89.8163 26.427C90.0328 25.8496 90.1411 25.1769 90.1411 24.4087C90.1411 23.6406 90.0328 22.973 89.8163 22.4059C89.6049 21.8388 89.2904 21.398 88.8728 21.0835C88.4604 20.7691 87.9526 20.6118 87.3494 20.6118C86.7257 20.6118 86.205 20.7742 85.7874 21.099C85.3698 21.4238 85.0553 21.8723 84.844 22.4446C84.6326 23.0168 84.5269 23.6715 84.5269 24.4087C84.5269 25.1511 84.6326 25.8136 84.844 26.3961C85.0605 26.9735 85.3775 27.4297 85.7951 27.7648C86.2179 28.0948 86.736 28.2598 87.3494 28.2598ZM95.4415 30.3477V18.4698H98.2408V30.3477H95.4415ZM96.8489 16.784C96.4055 16.784 96.024 16.6371 95.7044 16.3432C95.3848 16.0442 95.2249 15.6859 95.2249 15.2684C95.2249 14.8456 95.3848 14.4873 95.7044 14.1935C96.024 13.8945 96.4055 13.745 96.8489 13.745C97.2974 13.745 97.6789 13.8945 97.9933 14.1935C98.313 14.4873 98.4728 14.8456 98.4728 15.2684C98.4728 15.6859 98.313 16.0442 97.9933 16.3432C97.6789 16.6371 97.2974 16.784 96.8489 16.784ZM106.615 18.4698V20.635H99.7869V18.4698H106.615ZM101.473 15.6241H104.272V26.775C104.272 27.1514 104.329 27.4401 104.442 27.6411C104.561 27.837 104.715 27.9711 104.906 28.0432C105.097 28.1154 105.308 28.1515 105.54 28.1515C105.715 28.1515 105.875 28.1386 106.02 28.1128C106.169 28.087 106.283 28.0639 106.36 28.0432L106.832 30.2317C106.682 30.2832 106.468 30.3399 106.19 30.4018C105.917 30.4637 105.581 30.4997 105.184 30.51C104.483 30.5307 103.852 30.425 103.29 30.193C102.728 29.9559 102.282 29.5898 101.952 29.0949C101.627 28.6 101.467 27.9814 101.473 27.239V15.6241ZM113.574 30.5796C112.414 30.5796 111.409 30.3245 110.558 29.8141C109.708 29.3037 109.048 28.5897 108.579 27.672C108.115 26.7544 107.883 25.6821 107.883 24.4551C107.883 23.2282 108.115 22.1533 108.579 21.2305C109.048 20.3077 109.708 19.5911 110.558 19.0807C111.409 18.5703 112.414 18.3151 113.574 18.3151C114.734 18.3151 115.739 18.5703 116.59 19.0807C117.441 19.5911 118.098 20.3077 118.562 21.2305C119.031 22.1533 119.266 23.2282 119.266 24.4551C119.266 25.6821 119.031 26.7544 118.562 27.672C118.098 28.5897 117.441 29.3037 116.59 29.8141C115.739 30.3245 114.734 30.5796 113.574 30.5796ZM113.59 28.3371C114.219 28.3371 114.744 28.1644 115.167 27.819C115.59 27.4684 115.904 26.9993 116.111 26.4116C116.322 25.8239 116.428 25.1691 116.428 24.4474C116.428 23.7205 116.322 23.0632 116.111 22.4755C115.904 21.8826 115.59 21.4109 115.167 21.0604C114.744 20.7098 114.219 20.5345 113.59 20.5345C112.945 20.5345 112.409 20.7098 111.981 21.0604C111.558 21.4109 111.241 21.8826 111.03 22.4755C110.824 23.0632 110.721 23.7205 110.721 24.4474C110.721 25.1691 110.824 25.8239 111.03 26.4116C111.241 26.9993 111.558 27.4684 111.981 27.819C112.409 28.1644 112.945 28.3371 113.59 28.3371ZM131.412 18.4698L127.182 30.3477H124.089L119.859 18.4698H122.844L125.573 27.2931H125.697L128.435 18.4698H131.412Z" fill="white"/>
<path d="M59.9106 19.854H57.0185C56.936 19.3797 56.7839 18.9596 56.5622 18.5935C56.3405 18.2223 56.0647 17.9079 55.7348 17.6501C55.4049 17.3923 55.0285 17.199 54.6058 17.0701C54.1882 16.9361 53.7371 16.8691 53.2525 16.8691C52.3916 16.8691 51.6286 17.0856 50.9635 17.5186C50.2985 17.9465 49.7778 18.5755 49.4015 19.4055C49.0251 20.2303 48.837 21.2382 48.837 22.4291C48.837 23.6406 49.0251 24.6613 49.4015 25.4913C49.783 26.3162 50.3037 26.94 50.9635 27.3627C51.6286 27.7803 52.389 27.9891 53.2448 27.9891C53.7191 27.9891 54.1624 27.9272 54.5748 27.8035C54.9924 27.6746 55.3662 27.4865 55.6961 27.239C56.0312 26.9915 56.3122 26.6874 56.539 26.3265C56.771 25.9656 56.9308 25.5532 57.0185 25.0892L59.9106 25.1047C59.8023 25.8574 59.5678 26.5637 59.2069 27.2235C58.8512 27.8834 58.3846 28.466 57.8072 28.9712C57.2298 29.4713 56.5545 29.8631 55.7812 30.1466C55.0079 30.425 54.1495 30.5642 53.2061 30.5642C51.8142 30.5642 50.5717 30.242 49.4788 29.5976C48.3859 28.9531 47.525 28.0226 46.896 26.806C46.2671 25.5893 45.9526 24.1303 45.9526 22.4291C45.9526 20.7227 46.2696 19.2637 46.9037 18.0522C47.5378 16.8356 48.4014 15.905 49.4943 15.2606C50.5872 14.6162 51.8245 14.294 53.2061 14.294C54.0877 14.294 54.9074 14.4177 55.6652 14.6652C56.423 14.9126 57.0984 15.2761 57.6912 15.7555C58.2841 16.2298 58.7713 16.8124 59.1528 17.5032C59.5394 18.1888 59.792 18.9724 59.9106 19.854ZM61.9786 30.3477V18.4698H64.6929V20.4494H64.8166C65.0332 19.7638 65.4043 19.2354 65.9302 18.8642C66.4612 18.4878 67.0669 18.2997 67.7474 18.2997C67.9021 18.2997 68.0748 18.3074 68.2655 18.3229C68.4614 18.3332 68.6238 18.3512 68.7527 18.377V20.9521C68.6341 20.9108 68.446 20.8748 68.1882 20.8438C67.9356 20.8077 67.6907 20.7897 67.4536 20.7897C66.9432 20.7897 66.4844 20.9005 66.0771 21.1222C65.675 21.3387 65.3579 21.6403 65.126 22.027C64.894 22.4136 64.778 22.8596 64.778 23.3648V30.3477H61.9786ZM74.9463 30.5796C73.7554 30.5796 72.7269 30.3322 71.8608 29.8373C70.9999 29.3372 70.3374 28.6309 69.8735 27.7184C69.4095 26.8008 69.1775 25.7208 69.1775 24.4783C69.1775 23.2565 69.4095 22.1842 69.8735 21.2614C70.3426 20.3335 70.9973 19.6117 71.8376 19.0962C72.678 18.5755 73.6652 18.3151 74.7994 18.3151C75.5314 18.3151 76.2222 18.4337 76.8718 18.6709C77.5265 18.9029 78.1039 19.2637 78.604 19.7535C79.1092 20.2432 79.5062 20.867 79.7949 21.6249C80.0836 22.3775 80.2279 23.2746 80.2279 24.3159V25.1743H70.4921V23.2874H77.5446C77.5394 22.7513 77.4234 22.2744 77.1966 21.8568C76.9698 21.4341 76.6527 21.1016 76.2454 20.8593C75.8433 20.617 75.3742 20.4958 74.838 20.4958C74.2658 20.4958 73.7631 20.635 73.3301 20.9134C72.8971 21.1867 72.5594 21.5475 72.3171 21.996C72.0799 22.4394 71.9588 22.9266 71.9536 23.4576V25.1047C71.9536 25.7955 72.0799 26.3884 72.3325 26.8833C72.5852 27.373 72.9383 27.7494 73.392 28.0123C73.8456 28.2701 74.3766 28.3989 74.985 28.3989C75.3922 28.3989 75.7608 28.3422 76.0908 28.2288C76.4207 28.1102 76.7068 27.9375 76.9491 27.7107C77.1914 27.4839 77.3744 27.2029 77.4982 26.8678L80.1119 27.1617C79.947 27.8525 79.6325 28.4557 79.1685 28.9712C78.7097 29.4816 78.122 29.8785 77.4054 30.1621C76.6888 30.4405 75.8691 30.5796 74.9463 30.5796ZM86.5684 30.5564C85.6353 30.5564 84.8001 30.3167 84.0629 29.8373C83.3257 29.3578 82.7432 28.6619 82.3153 27.7494C81.8874 26.8369 81.6734 25.7285 81.6734 24.4242C81.6734 23.1044 81.89 21.9909 82.323 21.0835C82.7612 20.1711 83.3515 19.4828 84.0939 19.0188C84.8362 18.5497 85.6637 18.3151 86.5761 18.3151C87.2721 18.3151 87.8444 18.4337 88.2929 18.6709C88.7414 18.9029 89.0971 19.1838 89.36 19.5138C89.6229 19.8385 89.8266 20.1453 89.9709 20.434H90.0869V14.5105H92.894V30.3477H90.1411V28.4763H89.9709C89.8266 28.765 89.6178 29.0717 89.3446 29.3965C89.0713 29.7161 88.7105 29.9894 88.2619 30.2162C87.8134 30.443 87.2489 30.5564 86.5684 30.5564ZM87.3494 28.2598C87.9423 28.2598 88.4475 28.0999 88.8651 27.7803C89.2827 27.4555 89.5997 27.0044 89.8163 26.427C90.0328 25.8496 90.1411 25.1769 90.1411 24.4087C90.1411 23.6406 90.0328 22.973 89.8163 22.4059C89.6049 21.8388 89.2904 21.398 88.8728 21.0835C88.4604 20.7691 87.9526 20.6118 87.3494 20.6118C86.7257 20.6118 86.205 20.7742 85.7874 21.099C85.3698 21.4238 85.0553 21.8723 84.844 22.4446C84.6326 23.0168 84.5269 23.6715 84.5269 24.4087C84.5269 25.1511 84.6326 25.8136 84.844 26.3961C85.0605 26.9735 85.3775 27.4297 85.7951 27.7648C86.2179 28.0948 86.736 28.2598 87.3494 28.2598ZM95.4415 30.3477V18.4698H98.2408V30.3477H95.4415ZM96.8489 16.784C96.4055 16.784 96.024 16.6371 95.7044 16.3432C95.3848 16.0442 95.2249 15.6859 95.2249 15.2684C95.2249 14.8456 95.3848 14.4873 95.7044 14.1935C96.024 13.8945 96.4055 13.745 96.8489 13.745C97.2974 13.745 97.6789 13.8945 97.9933 14.1935C98.313 14.4873 98.4728 14.8456 98.4728 15.2684C98.4728 15.6859 98.313 16.0442 97.9933 16.3432C97.6789 16.6371 97.2974 16.784 96.8489 16.784ZM106.615 18.4698V20.635H99.7869V18.4698H106.615ZM101.473 15.6241H104.272V26.775C104.272 27.1514 104.329 27.4401 104.442 27.6411C104.561 27.837 104.715 27.9711 104.906 28.0432C105.097 28.1154 105.308 28.1515 105.54 28.1515C105.715 28.1515 105.875 28.1386 106.02 28.1128C106.169 28.087 106.283 28.0639 106.36 28.0432L106.832 30.2317C106.682 30.2832 106.468 30.3399 106.19 30.4018C105.917 30.4637 105.581 30.4997 105.184 30.51C104.483 30.5307 103.852 30.425 103.29 30.193C102.728 29.9559 102.282 29.5898 101.952 29.0949C101.627 28.6 101.467 27.9814 101.473 27.239V15.6241ZM113.574 30.5796C112.414 30.5796 111.409 30.3245 110.558 29.8141C109.708 29.3037 109.048 28.5897 108.579 27.672C108.115 26.7544 107.883 25.6821 107.883 24.4551C107.883 23.2282 108.115 22.1533 108.579 21.2305C109.048 20.3077 109.708 19.5911 110.558 19.0807C111.409 18.5703 112.414 18.3151 113.574 18.3151C114.734 18.3151 115.739 18.5703 116.59 19.0807C117.441 19.5911 118.098 20.3077 118.562 21.2305C119.031 22.1533 119.266 23.2282 119.266 24.4551C119.266 25.6821 119.031 26.7544 118.562 27.672C118.098 28.5897 117.441 29.3037 116.59 29.8141C115.739 30.3245 114.734 30.5796 113.574 30.5796ZM113.59 28.3371C114.219 28.3371 114.744 28.1644 115.167 27.819C115.59 27.4684 115.904 26.9993 116.111 26.4116C116.322 25.8239 116.428 25.1691 116.428 24.4474C116.428 23.7205 116.322 23.0632 116.111 22.4755C115.904 21.8826 115.59 21.4109 115.167 21.0604C114.744 20.7098 114.219 20.5345 113.59 20.5345C112.945 20.5345 112.409 20.7098 111.981 21.0604C111.558 21.4109 111.241 21.8826 111.03 22.4755C110.824 23.0632 110.721 23.7205 110.721 24.4474C110.721 25.1691 110.824 25.8239 111.03 26.4116C111.241 26.9993 111.558 27.4684 111.981 27.819C112.409 28.1644 112.945 28.3371 113.59 28.3371ZM131.412 18.4698L127.182 30.3477H124.089L119.859 18.4698H122.844L125.573 27.2931H125.697L128.435 18.4698H131.412Z" fill="#022860"/>
<defs>
<radialGradient id="paint0_radial_453_3879" cx="0" cy="0" r="1" gradientUnits="userSpaceOnUse" gradientTransform="translate(33.6551 21.78) rotate(-180) scale(26.8387)">
<stop stop-color="#D9D9D9" stop-opacity="0"/>
<stop offset="1" stop-color="#4D85FF"/>
</radialGradient>
<linearGradient id="paint1_linear_453_3879" x1="11.1919" y1="8.88592" x2="12.7089" y2="22.3052" gradientUnits="userSpaceOnUse">
<stop stop-color="#A3D9FF"/>
<stop offset="1" stop-color="#5C8FFD"/>
</linearGradient>
<linearGradient id="paint2_linear_453_3879" x1="22.1472" y1="4.81385" x2="14.626" y2="16.0304" gradientUnits="userSpaceOnUse">
<stop stop-color="#A3D9FF"/>
<stop offset="1" stop-color="#5C8FFD"/>
</linearGradient>
<linearGradient id="paint3_linear_453_3879" x1="33.2945" y1="8.92663" x2="20.2599" y2="12.4593" gradientUnits="userSpaceOnUse">
<stop stop-color="#A3D9FF"/>
<stop offset="1" stop-color="#5C8FFD"/>
</linearGradient>
</defs>
</svg>
