<svg width="407" height="290" viewBox="0 0 407 290" fill="none" xmlns="http://www.w3.org/2000/svg">
<g filter="url(#filter0_f_2013_450)">
<circle cx="204" cy="191" r="82" fill="#9ECAFF"/>
</g>
<g opacity="0.5" filter="url(#filter1_d_2013_450)">
<path d="M25.0731 317.854C25.8569 290.599 32.8569 263.883 45.5387 239.745C58.2206 215.608 76.2491 194.686 98.2485 178.578L140.549 236.347C127.349 246.012 116.532 258.565 108.923 273.047C101.314 287.53 97.1138 303.559 96.6435 319.912L25.0731 317.854Z" fill="#489AFD"/>
</g>
<g opacity="0.5" filter="url(#filter2_d_2013_450)">
<path d="M103.061 175.174C131.53 155.735 165.006 144.93 199.468 144.057C233.929 143.185 267.909 152.281 297.325 170.254L259.995 231.353C242.345 220.569 221.957 215.111 201.28 215.634C180.604 216.158 160.518 222.641 143.436 234.304L103.061 175.174Z" fill="#2487FF"/>
</g>
<g opacity="0.5" filter="url(#filter3_d_2013_450)">
<path d="M301.829 173.099C326.908 189.466 347.479 211.864 361.66 238.241C375.84 264.618 383.176 294.131 382.996 324.077L311.397 323.646C311.505 305.678 307.104 287.971 298.595 272.144C290.087 256.318 277.744 242.88 262.697 233.059L301.829 173.099Z" fill="#0875F8"/>
</g>
<defs>
<filter id="filter0_f_2013_450" x="-78" y="-91" width="564" height="564" filterUnits="userSpaceOnUse" color-interpolation-filters="sRGB">
<feFlood flood-opacity="0" result="BackgroundImageFix"/>
<feBlend mode="normal" in="SourceGraphic" in2="BackgroundImageFix" result="shape"/>
<feGaussianBlur stdDeviation="100" result="effect1_foregroundBlur_2013_450"/>
</filter>
<filter id="filter1_d_2013_450" x="15.0723" y="168.578" width="135.477" height="161.335" filterUnits="userSpaceOnUse" color-interpolation-filters="sRGB">
<feFlood flood-opacity="0" result="BackgroundImageFix"/>
<feColorMatrix in="SourceAlpha" type="matrix" values="0 0 0 0 0 0 0 0 0 0 0 0 0 0 0 0 0 0 127 0" result="hardAlpha"/>
<feOffset/>
<feGaussianBlur stdDeviation="5"/>
<feComposite in2="hardAlpha" operator="out"/>
<feColorMatrix type="matrix" values="0 0 0 0 0.0519315 0 0 0 0 0.153322 0 0 0 0 0.276968 0 0 0 0.2 0"/>
<feBlend mode="normal" in2="BackgroundImageFix" result="effect1_dropShadow_2013_450"/>
<feBlend mode="normal" in="SourceGraphic" in2="effect1_dropShadow_2013_450" result="shape"/>
</filter>
<filter id="filter2_d_2013_450" x="93.0605" y="134" width="214.266" height="110.304" filterUnits="userSpaceOnUse" color-interpolation-filters="sRGB">
<feFlood flood-opacity="0" result="BackgroundImageFix"/>
<feColorMatrix in="SourceAlpha" type="matrix" values="0 0 0 0 0 0 0 0 0 0 0 0 0 0 0 0 0 0 127 0" result="hardAlpha"/>
<feOffset/>
<feGaussianBlur stdDeviation="5"/>
<feComposite in2="hardAlpha" operator="out"/>
<feColorMatrix type="matrix" values="0 0 0 0 0.0519315 0 0 0 0 0.153322 0 0 0 0 0.276968 0 0 0 0.2 0"/>
<feBlend mode="normal" in2="BackgroundImageFix" result="effect1_dropShadow_2013_450"/>
<feBlend mode="normal" in="SourceGraphic" in2="effect1_dropShadow_2013_450" result="shape"/>
</filter>
<filter id="filter3_d_2013_450" x="252.697" y="163.099" width="140.303" height="170.979" filterUnits="userSpaceOnUse" color-interpolation-filters="sRGB">
<feFlood flood-opacity="0" result="BackgroundImageFix"/>
<feColorMatrix in="SourceAlpha" type="matrix" values="0 0 0 0 0 0 0 0 0 0 0 0 0 0 0 0 0 0 127 0" result="hardAlpha"/>
<feOffset/>
<feGaussianBlur stdDeviation="5"/>
<feComposite in2="hardAlpha" operator="out"/>
<feColorMatrix type="matrix" values="0 0 0 0 0.0519315 0 0 0 0 0.153322 0 0 0 0 0.276968 0 0 0 0.2 0"/>
<feBlend mode="normal" in2="BackgroundImageFix" result="effect1_dropShadow_2013_450"/>
<feBlend mode="normal" in="SourceGraphic" in2="effect1_dropShadow_2013_450" result="shape"/>
</filter>
</defs>
</svg>
