<svg width="357" height="250" viewBox="0 0 357 250" fill="none" xmlns="http://www.w3.org/2000/svg">
<g filter="url(#filter0_f_2033_380)">
<circle cx="179" cy="125" r="82" fill="#9ECAFF"/>
</g>
<g opacity="0.5" filter="url(#filter1_d_2033_380)">
<path d="M35.1358 253.793C35.7658 231.889 41.3913 210.419 51.5829 191.021C61.7746 171.623 76.2632 154.81 93.9428 141.864L127.937 188.29C117.329 196.057 108.636 206.145 102.521 217.784C96.4062 229.423 93.0309 242.305 92.6529 255.447L35.1358 253.793Z" fill="#489AFD"/>
</g>
<g opacity="0.5" filter="url(#filter2_d_2033_380)">
<path d="M97.8107 139.129C120.689 123.507 147.592 114.824 175.287 114.122C202.982 113.421 230.29 120.731 253.93 135.175L223.929 184.277C209.745 175.61 193.36 171.224 176.744 171.645C160.127 172.065 143.985 177.275 130.258 186.649L97.8107 139.129Z" fill="#2487FF"/>
</g>
<g opacity="0.5" filter="url(#filter3_d_2033_380)">
<path d="M257.549 137.461C277.703 150.615 294.236 168.614 305.632 189.812C317.028 211.01 322.923 234.728 322.778 258.794L265.238 258.448C265.325 244.008 261.788 229.777 254.95 217.059C248.113 204.34 238.193 193.54 226.101 185.648L257.549 137.461Z" fill="#0875F8"/>
</g>
<defs>
<filter id="filter0_f_2033_380" x="-103" y="-157" width="564" height="564" filterUnits="userSpaceOnUse" color-interpolation-filters="sRGB">
<feFlood flood-opacity="0" result="BackgroundImageFix"/>
<feBlend mode="normal" in="SourceGraphic" in2="BackgroundImageFix" result="shape"/>
<feGaussianBlur stdDeviation="100" result="effect1_foregroundBlur_2033_380"/>
</filter>
<filter id="filter1_d_2033_380" x="27.1003" y="133.828" width="108.874" height="129.656" filterUnits="userSpaceOnUse" color-interpolation-filters="sRGB">
<feFlood flood-opacity="0" result="BackgroundImageFix"/>
<feColorMatrix in="SourceAlpha" type="matrix" values="0 0 0 0 0 0 0 0 0 0 0 0 0 0 0 0 0 0 127 0" result="hardAlpha"/>
<feOffset/>
<feGaussianBlur stdDeviation="4.01822"/>
<feComposite in2="hardAlpha" operator="out"/>
<feColorMatrix type="matrix" values="0 0 0 0 0.0519315 0 0 0 0 0.153322 0 0 0 0 0.276968 0 0 0 0.2 0"/>
<feBlend mode="normal" in2="BackgroundImageFix" result="effect1_dropShadow_2033_380"/>
<feBlend mode="normal" in="SourceGraphic" in2="effect1_dropShadow_2033_380" result="shape"/>
</filter>
<filter id="filter2_d_2033_380" x="89.7741" y="106.04" width="172.192" height="88.6451" filterUnits="userSpaceOnUse" color-interpolation-filters="sRGB">
<feFlood flood-opacity="0" result="BackgroundImageFix"/>
<feColorMatrix in="SourceAlpha" type="matrix" values="0 0 0 0 0 0 0 0 0 0 0 0 0 0 0 0 0 0 127 0" result="hardAlpha"/>
<feOffset/>
<feGaussianBlur stdDeviation="4.01822"/>
<feComposite in2="hardAlpha" operator="out"/>
<feColorMatrix type="matrix" values="0 0 0 0 0.0519315 0 0 0 0 0.153322 0 0 0 0 0.276968 0 0 0 0.2 0"/>
<feBlend mode="normal" in2="BackgroundImageFix" result="effect1_dropShadow_2033_380"/>
<feBlend mode="normal" in="SourceGraphic" in2="effect1_dropShadow_2033_380" result="shape"/>
</filter>
<filter id="filter3_d_2033_380" x="218.065" y="129.425" width="112.753" height="137.405" filterUnits="userSpaceOnUse" color-interpolation-filters="sRGB">
<feFlood flood-opacity="0" result="BackgroundImageFix"/>
<feColorMatrix in="SourceAlpha" type="matrix" values="0 0 0 0 0 0 0 0 0 0 0 0 0 0 0 0 0 0 127 0" result="hardAlpha"/>
<feOffset/>
<feGaussianBlur stdDeviation="4.01822"/>
<feComposite in2="hardAlpha" operator="out"/>
<feColorMatrix type="matrix" values="0 0 0 0 0.0519315 0 0 0 0 0.153322 0 0 0 0 0.276968 0 0 0 0.2 0"/>
<feBlend mode="normal" in2="BackgroundImageFix" result="effect1_dropShadow_2033_380"/>
<feBlend mode="normal" in="SourceGraphic" in2="effect1_dropShadow_2033_380" result="shape"/>
</filter>
</defs>
</svg>
