<svg width="370" height="350" viewBox="0 0 370 350" fill="none" xmlns="http://www.w3.org/2000/svg">
<g opacity="0.6">
<mask id="mask0_493_720" style="mask-type:alpha" maskUnits="userSpaceOnUse" x="-181" y="0" width="594" height="551">
<rect x="412.473" y="248.27" width="352.242" height="480.172" transform="rotate(121.045 412.473 248.27)" fill="url(#paint0_linear_493_720)"/>
</mask>
<g mask="url(#mask0_493_720)">
<path d="M54.7541 388.072C-33.2942 335.377 -64.6752 226.571 -15.3323 145.067C-10.1572 136.519 -4.2814 128.581 2.16353 121.315C-27.0633 198.555 6.34066 290.652 85.171 337.831C164.001 385.009 261.458 371.229 316.461 309.416C313.02 318.48 308.715 327.358 303.54 335.906C254.197 417.41 142.802 440.768 54.7541 388.072Z" fill="#A3D9FF"/>
<g filter="url(#filter0_f_493_720)">
<path d="M58.1338 382.49C-29.9145 329.795 -64.6752 226.571 -15.3323 145.067C-10.1572 136.519 -4.2814 128.581 2.16353 121.315C-27.0633 198.555 2.961 296.235 81.7913 343.413C160.622 390.591 261.458 371.229 316.461 309.416C313.02 318.48 308.715 327.358 303.54 335.906C254.197 417.41 146.182 435.185 58.1338 382.49Z" fill="#A3D9FF"/>
</g>
<g filter="url(#filter1_f_493_720)">
<path d="M59.8249 379.699C-28.2233 327.004 -64.0255 219.354 -14.6825 137.85C-9.50746 129.302 -3.63161 121.364 2.8133 114.098C-26.4135 191.338 1.27252 299.026 80.1028 346.204C158.933 393.383 265.553 363.698 320.556 301.885C317.116 310.948 312.81 319.827 307.635 328.375C258.292 409.878 147.873 432.394 59.8249 379.699Z" fill="#A3D9FF"/>
</g>
<g filter="url(#filter2_f_493_720)">
<path d="M59.8249 379.699C-28.2233 327.004 -64.0255 219.354 -14.6825 137.85C-9.50746 129.302 -3.63161 121.364 2.8133 114.098C-26.4135 191.338 1.27252 299.026 80.1028 346.204C158.933 393.383 265.553 363.698 320.556 301.885C317.116 310.948 312.81 319.827 307.635 328.375C258.292 409.878 147.873 432.394 59.8249 379.699Z" fill="#A3D9FF"/>
</g>
<g filter="url(#filter3_f_493_720)">
<path d="M59.8249 379.699C-28.2233 327.004 -64.0255 219.354 -14.6825 137.85C-9.50746 129.302 -3.63161 121.364 2.8133 114.098C-26.4135 191.338 1.27252 299.026 80.1028 346.204C158.933 393.383 265.553 363.698 320.556 301.885C317.116 310.948 312.81 319.827 307.635 328.375C258.292 409.878 147.873 432.394 59.8249 379.699Z" fill="#A3D9FF"/>
</g>
<g filter="url(#filter4_f_493_720)">
<path d="M63.4858 360.976C-24.5624 308.281 -64.0255 219.354 -14.6825 137.85C-9.50746 129.302 -3.63161 121.364 2.8133 114.098C-26.4135 191.338 -6.44568 306.765 74.6109 355.276C176.172 416.058 265.553 363.698 320.556 301.885C317.116 310.948 312.81 319.827 307.635 328.375C258.292 409.878 151.534 413.671 63.4858 360.976Z" fill="#A3D9FF"/>
</g>
<g filter="url(#filter5_f_493_720)">
<path d="M63.4852 360.976C-24.563 308.281 -82.5073 221.84 -33.1644 140.337C-27.9893 131.788 8.63552 115.159 15.0805 107.894C-14.1464 185.133 -6.44623 306.765 74.6104 355.276C176.171 416.058 261.709 350.227 316.711 288.414C308.757 283.654 332.608 316.703 327.433 325.251C278.09 406.755 151.534 413.671 63.4852 360.976Z" fill="#A3D9FF"/>
</g>
<g filter="url(#filter6_f_493_720)">
<path d="M63.4852 360.976C-24.563 308.281 -82.5073 221.84 -33.1644 140.337C-27.9893 131.788 8.63552 115.159 15.0805 107.894C-14.1464 185.133 -6.44623 306.765 74.6104 355.276C176.171 416.058 261.709 350.227 316.711 288.414C308.757 283.654 332.608 316.703 327.433 325.251C278.09 406.755 151.534 413.671 63.4852 360.976Z" fill="#A3D9FF"/>
</g>
<g filter="url(#filter7_f_493_720)">
<path d="M63.4852 360.976C-24.563 308.281 -82.5073 221.84 -33.1644 140.337C-27.9893 131.788 8.63552 115.159 15.0805 107.894C-14.1464 185.133 -6.44623 306.765 74.6104 355.276C176.171 416.058 261.709 350.227 316.711 288.414C308.757 283.654 332.608 316.703 327.433 325.251C278.09 406.755 151.534 413.671 63.4852 360.976Z" fill="#A3D9FF"/>
</g>
</g>
</g>
<defs>
<filter id="filter0_f_493_720" x="-49.4466" y="109.761" width="377.461" height="314.197" filterUnits="userSpaceOnUse" color-interpolation-filters="sRGB">
<feFlood flood-opacity="0" result="BackgroundImageFix"/>
<feBlend mode="normal" in="SourceGraphic" in2="BackgroundImageFix" result="shape"/>
<feGaussianBlur stdDeviation="5.77699" result="effect1_foregroundBlur_493_720"/>
</filter>
<filter id="filter1_f_493_720" x="-71.6678" y="79.4367" width="426.886" height="363.354" filterUnits="userSpaceOnUse" color-interpolation-filters="sRGB">
<feFlood flood-opacity="0" result="BackgroundImageFix"/>
<feBlend mode="normal" in="SourceGraphic" in2="BackgroundImageFix" result="shape"/>
<feGaussianBlur stdDeviation="17.331" result="effect1_foregroundBlur_493_720"/>
</filter>
<filter id="filter2_f_493_720" x="-87.0731" y="64.0314" width="457.697" height="394.165" filterUnits="userSpaceOnUse" color-interpolation-filters="sRGB">
<feFlood flood-opacity="0" result="BackgroundImageFix"/>
<feBlend mode="normal" in="SourceGraphic" in2="BackgroundImageFix" result="shape"/>
<feGaussianBlur stdDeviation="25.0336" result="effect1_foregroundBlur_493_720"/>
</filter>
<filter id="filter3_f_493_720" x="-87.0731" y="64.0314" width="457.697" height="394.165" filterUnits="userSpaceOnUse" color-interpolation-filters="sRGB">
<feFlood flood-opacity="0" result="BackgroundImageFix"/>
<feBlend mode="normal" in="SourceGraphic" in2="BackgroundImageFix" result="shape"/>
<feGaussianBlur stdDeviation="25.0336" result="effect1_foregroundBlur_493_720"/>
</filter>
<filter id="filter4_f_493_720" x="-155.592" y="-5.29255" width="595.54" height="520.615" filterUnits="userSpaceOnUse" color-interpolation-filters="sRGB">
<feFlood flood-opacity="0" result="BackgroundImageFix"/>
<feBlend mode="normal" in="SourceGraphic" in2="BackgroundImageFix" result="shape"/>
<feGaussianBlur stdDeviation="59.6956" result="effect1_foregroundBlur_493_720"/>
</filter>
<filter id="filter5_f_493_720" x="-124.439" y="34.7188" width="525.79" height="433.172" filterUnits="userSpaceOnUse" color-interpolation-filters="sRGB">
<feFlood flood-opacity="0" result="BackgroundImageFix"/>
<feBlend mode="normal" in="SourceGraphic" in2="BackgroundImageFix" result="shape"/>
<feGaussianBlur stdDeviation="36.5876" result="effect1_foregroundBlur_493_720"/>
</filter>
<filter id="filter6_f_493_720" x="-209.168" y="-50.0104" width="695.248" height="602.631" filterUnits="userSpaceOnUse" color-interpolation-filters="sRGB">
<feFlood flood-opacity="0" result="BackgroundImageFix"/>
<feBlend mode="normal" in="SourceGraphic" in2="BackgroundImageFix" result="shape"/>
<feGaussianBlur stdDeviation="78.9522" result="effect1_foregroundBlur_493_720"/>
</filter>
<filter id="filter7_f_493_720" x="-286.195" y="-127.037" width="849.302" height="756.684" filterUnits="userSpaceOnUse" color-interpolation-filters="sRGB">
<feFlood flood-opacity="0" result="BackgroundImageFix"/>
<feBlend mode="normal" in="SourceGraphic" in2="BackgroundImageFix" result="shape"/>
<feGaussianBlur stdDeviation="117.466" result="effect1_foregroundBlur_493_720"/>
</filter>
<linearGradient id="paint0_linear_493_720" x1="588.594" y1="248.27" x2="588.594" y2="728.442" gradientUnits="userSpaceOnUse">
<stop stop-color="#C4C4C4" stop-opacity="0"/>
<stop offset="0.380208" stop-color="#C4C4C4"/>
<stop offset="0.578125" stop-color="#C4C4C4"/>
<stop offset="1" stop-color="#C4C4C4" stop-opacity="0"/>
</linearGradient>
</defs>
</svg>
