<svg width="473" height="406" viewBox="0 0 473 406" fill="none" xmlns="http://www.w3.org/2000/svg">
<g opacity="0.6">
<mask id="mask0_453_4414" style="mask-type:alpha" maskUnits="userSpaceOnUse" x="-224" y="-181" width="697" height="769">
<rect x="472.596" y="376.892" width="460.349" height="627.541" transform="rotate(152.75 472.596 376.892)" fill="url(#paint0_linear_453_4414)"/>
</mask>
<g mask="url(#mask0_453_4414)">
<path d="M-22.8565 296.693C-84.3542 174.275 -44.0837 27.427 67.0816 -31.2738C78.7407 -37.4304 90.7578 -42.3947 102.943 -46.1863C17.0897 21.7906 -9.38927 150.906 45.6701 260.508C100.73 370.109 218.609 422.936 322.465 390.797C312.378 398.766 301.458 405.914 289.799 412.07C178.634 470.771 38.6413 419.111 -22.8565 296.693Z" fill="#A3D9FF"/>
<g filter="url(#filter0_f_453_4414)">
<path d="M-15.2424 292.672C-76.7401 170.254 -44.0837 27.427 67.0816 -31.2738C78.7407 -37.4304 90.7578 -42.3947 102.943 -46.1863C17.0897 21.7906 -17.0033 154.926 38.0561 264.528C93.1155 374.13 218.609 422.936 322.465 390.797C312.378 398.766 301.458 405.914 289.799 412.07C178.634 470.771 46.2553 415.09 -15.2424 292.672Z" fill="#A3D9FF"/>
</g>
<g filter="url(#filter1_f_453_4414)">
<path d="M-11.4345 290.662C-72.9322 168.244 -38.3765 19.6094 72.7889 -39.0915C84.448 -45.2481 96.4651 -50.2124 108.65 -54.004C22.7969 13.9729 -20.8095 156.937 34.2499 266.539C89.3093 376.141 228.364 417.185 332.221 385.046C322.134 393.014 311.214 400.162 299.555 406.319C188.39 465.02 50.0632 413.08 -11.4345 290.662Z" fill="#A3D9FF"/>
</g>
<g filter="url(#filter2_f_453_4414)">
<path d="M-11.4345 290.662C-72.9322 168.244 -38.3765 19.6094 72.7889 -39.0915C84.448 -45.2481 96.4651 -50.2124 108.65 -54.004C22.7969 13.9729 -20.8095 156.937 34.2499 266.539C89.3093 376.141 228.364 417.185 332.221 385.046C322.134 393.014 311.214 400.162 299.555 406.319C188.39 465.02 50.0632 413.08 -11.4345 290.662Z" fill="#A3D9FF"/>
</g>
<g filter="url(#filter3_f_453_4414)">
<path d="M-11.4345 290.662C-72.9322 168.244 -38.3765 19.6094 72.7889 -39.0915C84.448 -45.2481 96.4651 -50.2124 108.65 -54.004C22.7969 13.9729 -20.8095 156.937 34.2499 266.539C89.3093 376.141 228.364 417.185 332.221 385.046C322.134 393.014 311.214 400.162 299.555 406.319C188.39 465.02 50.0632 413.08 -11.4345 290.662Z" fill="#A3D9FF"/>
</g>
<g filter="url(#filter4_f_453_4414)">
<path d="M5.56967 271.774C-55.928 149.356 -38.3764 19.6094 72.7889 -39.0915C84.448 -45.2481 96.4651 -50.2124 108.65 -54.004C22.7969 13.9729 -34.7373 160.375 21.8771 273.072C92.8125 414.277 228.364 417.185 332.221 385.046C322.134 393.014 311.214 400.162 299.555 406.319C188.39 465.02 67.0674 394.192 5.56967 271.774Z" fill="#A3D9FF"/>
</g>
<g filter="url(#filter5_f_453_4414)">
<path d="M5.56924 271.774C-55.9285 149.356 -60.6431 9.446 50.5223 -49.2549C62.1813 -55.4115 114.391 -48.6871 126.576 -52.4787C40.7228 15.4981 -34.7377 160.376 21.8766 273.073C92.8121 414.278 233.395 399.034 337.251 366.894C331.695 355.835 335.384 410.522 323.725 416.679C212.56 475.38 67.067 394.192 5.56924 271.774Z" fill="#A3D9FF"/>
</g>
<g filter="url(#filter6_f_453_4414)">
<path d="M5.56924 271.774C-55.9285 149.356 -60.6431 9.446 50.5223 -49.2549C62.1813 -55.4115 114.391 -48.6871 126.576 -52.4787C40.7228 15.4981 -34.7377 160.376 21.8766 273.073C92.8121 414.278 233.395 399.034 337.251 366.894C331.695 355.835 335.384 410.522 323.725 416.679C212.56 475.38 67.067 394.192 5.56924 271.774Z" fill="#A3D9FF"/>
</g>
<g filter="url(#filter7_f_453_4414)">
<path d="M5.56924 271.774C-55.9285 149.356 -60.6431 9.446 50.5223 -49.2549C62.1813 -55.4115 114.391 -48.6871 126.576 -52.4787C40.7228 15.4981 -34.7377 160.376 21.8766 273.073C92.8121 414.278 233.395 399.034 337.251 366.894C331.695 355.835 335.384 410.522 323.725 416.679C212.56 475.38 67.067 394.192 5.56924 271.774Z" fill="#A3D9FF"/>
</g>
</g>
</g>
<defs>
<filter id="filter0_f_453_4414" x="-61.0375" y="-61.2865" width="398.602" height="511.929" filterUnits="userSpaceOnUse" color-interpolation-filters="sRGB">
<feFlood flood-opacity="0" result="BackgroundImageFix"/>
<feBlend mode="normal" in="SourceGraphic" in2="BackgroundImageFix" result="shape"/>
<feGaussianBlur stdDeviation="7.55" result="effect1_foregroundBlur_453_4414"/>
</filter>
<filter id="filter1_f_453_4414" x="-86.9348" y="-99.3039" width="464.455" height="575.091" filterUnits="userSpaceOnUse" color-interpolation-filters="sRGB">
<feFlood flood-opacity="0" result="BackgroundImageFix"/>
<feBlend mode="normal" in="SourceGraphic" in2="BackgroundImageFix" result="shape"/>
<feGaussianBlur stdDeviation="22.65" result="effect1_foregroundBlur_453_4414"/>
</filter>
<filter id="filter2_f_453_4414" x="-107.068" y="-119.437" width="504.722" height="615.357" filterUnits="userSpaceOnUse" color-interpolation-filters="sRGB">
<feFlood flood-opacity="0" result="BackgroundImageFix"/>
<feBlend mode="normal" in="SourceGraphic" in2="BackgroundImageFix" result="shape"/>
<feGaussianBlur stdDeviation="32.7167" result="effect1_foregroundBlur_453_4414"/>
</filter>
<filter id="filter3_f_453_4414" x="-107.068" y="-119.437" width="504.722" height="615.357" filterUnits="userSpaceOnUse" color-interpolation-filters="sRGB">
<feFlood flood-opacity="0" result="BackgroundImageFix"/>
<feBlend mode="normal" in="SourceGraphic" in2="BackgroundImageFix" result="shape"/>
<feGaussianBlur stdDeviation="32.7167" result="effect1_foregroundBlur_453_4414"/>
</filter>
<filter id="filter4_f_453_4414" x="-185.531" y="-210.037" width="673.785" height="793.356" filterUnits="userSpaceOnUse" color-interpolation-filters="sRGB">
<feFlood flood-opacity="0" result="BackgroundImageFix"/>
<feBlend mode="normal" in="SourceGraphic" in2="BackgroundImageFix" result="shape"/>
<feGaussianBlur stdDeviation="78.0167" result="effect1_foregroundBlur_453_4414"/>
</filter>
<filter id="filter5_f_453_4414" x="-133.227" y="-148.112" width="566.112" height="679.929" filterUnits="userSpaceOnUse" color-interpolation-filters="sRGB">
<feFlood flood-opacity="0" result="BackgroundImageFix"/>
<feBlend mode="normal" in="SourceGraphic" in2="BackgroundImageFix" result="shape"/>
<feGaussianBlur stdDeviation="47.8167" result="effect1_foregroundBlur_453_4414"/>
</filter>
<filter id="filter6_f_453_4414" x="-243.96" y="-258.845" width="787.579" height="901.395" filterUnits="userSpaceOnUse" color-interpolation-filters="sRGB">
<feFlood flood-opacity="0" result="BackgroundImageFix"/>
<feBlend mode="normal" in="SourceGraphic" in2="BackgroundImageFix" result="shape"/>
<feGaussianBlur stdDeviation="103.183" result="effect1_foregroundBlur_453_4414"/>
</filter>
<filter id="filter7_f_453_4414" x="-344.627" y="-359.512" width="988.912" height="1102.73" filterUnits="userSpaceOnUse" color-interpolation-filters="sRGB">
<feFlood flood-opacity="0" result="BackgroundImageFix"/>
<feBlend mode="normal" in="SourceGraphic" in2="BackgroundImageFix" result="shape"/>
<feGaussianBlur stdDeviation="153.517" result="effect1_foregroundBlur_453_4414"/>
</filter>
<linearGradient id="paint0_linear_453_4414" x1="702.77" y1="376.892" x2="702.77" y2="1004.43" gradientUnits="userSpaceOnUse">
<stop stop-color="#C4C4C4" stop-opacity="0"/>
<stop offset="0.380208" stop-color="#C4C4C4"/>
<stop offset="0.578125" stop-color="#C4C4C4"/>
<stop offset="1" stop-color="#C4C4C4" stop-opacity="0"/>
</linearGradient>
</defs>
</svg>
