<svg width="662" height="450" viewBox="0 0 662 450" fill="none" xmlns="http://www.w3.org/2000/svg">
<g opacity="0.6">
<mask id="mask0_453_3834" style="mask-type:alpha" maskUnits="userSpaceOnUse" x="-140" y="-406" width="802" height="1045">
<rect x="661.291" y="582.835" width="727.52" height="991.745" transform="rotate(175.61 661.291 582.835)" fill="url(#paint0_linear_453_3834)"/>
</mask>
<g mask="url(#mask0_453_3834)">
<path d="M-6.47669 151.215C-22.7223 -60.4207 123.86 -244.273 320.895 -259.398C341.56 -260.985 362.032 -260.658 382.047 -258.562C216.318 -214.721 100.438 -47.5878 114.983 141.891C129.528 331.37 269.552 478.777 440.037 496.892C420.577 502.018 400.394 505.466 379.729 507.052C182.694 522.177 9.76891 362.85 -6.47669 151.215Z" fill="#A3D9FF"/>
<g filter="url(#filter0_f_453_3834)">
<path d="M7.01888 150.179C-9.22673 -61.4567 123.86 -244.273 320.895 -259.398C341.56 -260.985 362.032 -260.658 382.047 -258.562C216.318 -214.721 86.9429 -46.5518 101.488 142.927C116.033 332.406 269.552 478.777 440.037 496.892C420.577 502.018 400.394 505.466 379.729 507.052C182.694 522.177 23.2645 361.814 7.01888 150.179Z" fill="#A3D9FF"/>
</g>
<g filter="url(#filter1_f_453_3834)">
<path d="M13.7681 149.662C-2.47751 -61.9735 136.853 -251.873 333.888 -266.998C354.553 -268.584 375.025 -268.257 395.04 -266.162C229.311 -222.321 80.1965 -46.0327 94.7414 143.446C109.286 332.925 287.203 476.598 457.688 494.713C438.228 499.839 418.045 503.286 397.38 504.873C200.345 519.998 30.0137 361.297 13.7681 149.662Z" fill="#A3D9FF"/>
</g>
<g filter="url(#filter2_f_453_3834)">
<path d="M13.7681 149.662C-2.47751 -61.9735 136.853 -251.873 333.888 -266.998C354.553 -268.584 375.025 -268.257 395.04 -266.162C229.311 -222.321 80.1965 -46.0327 94.7414 143.446C109.286 332.925 287.203 476.598 457.688 494.713C438.228 499.839 418.045 503.286 397.38 504.873C200.345 519.998 30.0137 361.297 13.7681 149.662Z" fill="#A3D9FF"/>
</g>
<g filter="url(#filter3_f_453_3834)">
<path d="M13.7681 149.662C-2.47751 -61.9735 136.853 -251.873 333.888 -266.998C354.553 -268.584 375.025 -268.257 395.04 -266.162C229.311 -222.321 80.1965 -46.0327 94.7414 143.446C109.286 332.925 287.203 476.598 457.688 494.713C438.228 499.839 418.045 503.286 397.38 504.873C200.345 519.998 30.0137 361.297 13.7681 149.662Z" fill="#A3D9FF"/>
</g>
<g filter="url(#filter4_f_453_3834)">
<path d="M49.8415 133.273C33.5959 -78.3625 136.853 -251.873 333.888 -266.998C354.553 -268.584 375.025 -268.257 395.04 -266.162C229.311 -222.321 57.8555 -49.7004 72.8111 145.13C91.5498 389.244 287.203 476.598 457.688 494.713C438.228 499.839 418.045 503.286 397.38 504.873C200.345 519.998 66.0871 344.908 49.8415 133.273Z" fill="#A3D9FF"/>
</g>
<g filter="url(#filter5_f_453_3834)">
<path d="M49.8408 133.273C33.5952 -78.3621 110.514 -279.98 307.549 -295.105C328.214 -296.691 400.216 -255.085 420.231 -252.989C254.502 -209.148 57.8549 -49.7001 72.8104 145.13C91.5492 389.244 305.399 453.905 475.884 472.02C474.416 452.9 447.039 532.841 426.374 534.427C229.339 549.552 66.0864 344.909 49.8408 133.273Z" fill="#A3D9FF"/>
</g>
<g filter="url(#filter6_f_453_3834)">
<path d="M49.8408 133.273C33.5952 -78.3621 110.514 -279.98 307.549 -295.105C328.214 -296.691 400.216 -255.085 420.231 -252.989C254.502 -209.148 57.8549 -49.7001 72.8104 145.13C91.5492 389.244 305.399 453.905 475.884 472.02C474.416 452.9 447.039 532.841 426.374 534.427C229.339 549.552 66.0864 344.909 49.8408 133.273Z" fill="#A3D9FF"/>
</g>
<g filter="url(#filter7_f_453_3834)">
<path d="M49.8408 133.273C33.5952 -78.3621 110.514 -279.98 307.549 -295.105C328.214 -296.691 400.216 -255.085 420.231 -252.989C254.502 -209.148 57.8549 -49.7001 72.8104 145.13C91.5492 389.244 305.399 453.905 475.884 472.02C474.416 452.9 447.039 532.841 426.374 534.427C229.339 549.552 66.0864 344.909 49.8408 133.273Z" fill="#A3D9FF"/>
</g>
</g>
</g>
<defs>
<filter id="filter0_f_453_3834" x="-9.42031" y="-275.495" width="464.557" height="798.635" filterUnits="userSpaceOnUse" color-interpolation-filters="sRGB">
<feFlood flood-opacity="0" result="BackgroundImageFix"/>
<feBlend mode="normal" in="SourceGraphic" in2="BackgroundImageFix" result="shape"/>
<feGaussianBlur stdDeviation="7.55" result="effect1_foregroundBlur_453_3834"/>
</filter>
<filter id="filter1_f_453_3834" x="-32.8186" y="-313.295" width="535.807" height="864.465" filterUnits="userSpaceOnUse" color-interpolation-filters="sRGB">
<feFlood flood-opacity="0" result="BackgroundImageFix"/>
<feBlend mode="normal" in="SourceGraphic" in2="BackgroundImageFix" result="shape"/>
<feGaussianBlur stdDeviation="22.65" result="effect1_foregroundBlur_453_3834"/>
</filter>
<filter id="filter2_f_453_3834" x="-52.9519" y="-333.428" width="576.074" height="904.732" filterUnits="userSpaceOnUse" color-interpolation-filters="sRGB">
<feFlood flood-opacity="0" result="BackgroundImageFix"/>
<feBlend mode="normal" in="SourceGraphic" in2="BackgroundImageFix" result="shape"/>
<feGaussianBlur stdDeviation="32.7167" result="effect1_foregroundBlur_453_3834"/>
</filter>
<filter id="filter3_f_453_3834" x="-52.9519" y="-333.428" width="576.074" height="904.732" filterUnits="userSpaceOnUse" color-interpolation-filters="sRGB">
<feFlood flood-opacity="0" result="BackgroundImageFix"/>
<feBlend mode="normal" in="SourceGraphic" in2="BackgroundImageFix" result="shape"/>
<feGaussianBlur stdDeviation="32.7167" result="effect1_foregroundBlur_453_3834"/>
</filter>
<filter id="filter4_f_453_3834" x="-107.857" y="-424.028" width="721.578" height="1085.85" filterUnits="userSpaceOnUse" color-interpolation-filters="sRGB">
<feFlood flood-opacity="0" result="BackgroundImageFix"/>
<feBlend mode="normal" in="SourceGraphic" in2="BackgroundImageFix" result="shape"/>
<feGaussianBlur stdDeviation="78.0167" result="effect1_foregroundBlur_453_3834"/>
</filter>
<filter id="filter5_f_453_3834" x="-47.8999" y="-390.782" width="619.417" height="1021.63" filterUnits="userSpaceOnUse" color-interpolation-filters="sRGB">
<feFlood flood-opacity="0" result="BackgroundImageFix"/>
<feBlend mode="normal" in="SourceGraphic" in2="BackgroundImageFix" result="shape"/>
<feGaussianBlur stdDeviation="47.8167" result="effect1_foregroundBlur_453_3834"/>
</filter>
<filter id="filter6_f_453_3834" x="-158.633" y="-501.516" width="840.884" height="1243.1" filterUnits="userSpaceOnUse" color-interpolation-filters="sRGB">
<feFlood flood-opacity="0" result="BackgroundImageFix"/>
<feBlend mode="normal" in="SourceGraphic" in2="BackgroundImageFix" result="shape"/>
<feGaussianBlur stdDeviation="103.183" result="effect1_foregroundBlur_453_3834"/>
</filter>
<filter id="filter7_f_453_3834" x="-259.3" y="-602.182" width="1042.22" height="1444.43" filterUnits="userSpaceOnUse" color-interpolation-filters="sRGB">
<feFlood flood-opacity="0" result="BackgroundImageFix"/>
<feBlend mode="normal" in="SourceGraphic" in2="BackgroundImageFix" result="shape"/>
<feGaussianBlur stdDeviation="153.517" result="effect1_foregroundBlur_453_3834"/>
</filter>
<linearGradient id="paint0_linear_453_3834" x1="1025.05" y1="582.835" x2="1025.05" y2="1574.58" gradientUnits="userSpaceOnUse">
<stop stop-color="#C4C4C4" stop-opacity="0"/>
<stop offset="0.380208" stop-color="#C4C4C4"/>
<stop offset="0.578125" stop-color="#C4C4C4"/>
<stop offset="1" stop-color="#C4C4C4" stop-opacity="0"/>
</linearGradient>
</defs>
</svg>
