<svg width="20" height="23" viewBox="0 0 20 23" fill="none" xmlns="http://www.w3.org/2000/svg">
<path d="M19.6399 7.63993C19.9934 7.28651 19.9934 6.71349 19.6399 6.36007L13.8805 0.600684C13.5271 0.247259 12.9541 0.247259 12.6007 0.600684C12.2473 0.954108 12.2473 1.52712 12.6007 1.88055L17.7201 7L12.6007 12.1195C12.2473 12.4729 12.2473 13.0459 12.6007 13.3993C12.9541 13.7527 13.5271 13.7527 13.8805 13.3993L19.6399 7.63993ZM1 7.905L19 7.905V6.095L1 6.095L1 7.905Z" fill="#022860"/>
<path d="M0.360069 16.6399C0.0066433 16.2865 0.0066433 15.7135 0.360069 15.3601L6.11945 9.60068C6.47288 9.24726 7.04589 9.24726 7.39932 9.60068C7.75274 9.95411 7.75274 10.5271 7.39932 10.8805L2.27986 16L7.39932 21.1195C7.75274 21.4729 7.75274 22.0459 7.39932 22.3993C7.04589 22.7527 6.47288 22.7527 6.11945 22.3993L0.360069 16.6399ZM19 16.905L1 16.905V15.095L19 15.095V16.905Z" fill="#022860"/>
</svg>
