<svg width="21" height="23" viewBox="0 0 21 23" fill="none" xmlns="http://www.w3.org/2000/svg">
<path fill-rule="evenodd" clip-rule="evenodd" d="M10.7857 2.25349L19.1927 8.83034V19.6213C19.1927 20.1207 18.7878 20.5255 18.2884 20.5255H14.6088V13.9882C14.6088 12.7397 13.5967 11.7276 12.3482 11.7276H9.22355C7.97505 11.7276 6.96295 12.7397 6.96295 13.9882V20.5255H3.28304C2.78364 20.5255 2.3788 20.1207 2.3788 19.6213V8.83034L10.7857 2.25349ZM8.77143 20.5255H12.8003V13.9882C12.8003 13.7385 12.5979 13.5361 12.3482 13.5361H9.22355C8.97385 13.5361 8.77143 13.7385 8.77143 13.9882V20.5255ZM0.570312 8.61001C0.570312 8.19279 0.762325 7.79879 1.09093 7.54171L10.2286 0.393216C10.5559 0.137157 11.0156 0.137157 11.3429 0.393217L20.4805 7.54171C20.8091 7.79879 21.0012 8.19279 21.0012 8.61001V19.6213C21.0012 21.1195 19.7866 22.334 18.2884 22.334H3.28304C1.78484 22.334 0.570312 21.1195 0.570312 19.6213V8.61001Z" fill="#022860"/>
</svg>
