<svg width="22" height="20" viewBox="0 0 22 20" fill="none" xmlns="http://www.w3.org/2000/svg">
<path fill-rule="evenodd" clip-rule="evenodd" d="M9.00055 0C7.00295 0 5.38358 1.61937 5.38358 3.61697V4.52146H3.12288C1.62468 4.52146 0.410156 5.736 0.410156 7.23419V17.1808C0.410156 18.679 1.62469 19.8936 3.12288 19.8936H18.495C19.9932 19.8936 21.2077 18.679 21.2077 17.1808V7.23419C21.2077 5.73599 19.9932 4.52146 18.495 4.52146H16.2345V3.61697C16.2345 1.61937 14.6151 0 12.6175 0H9.00055ZM14.426 4.52146V3.61697C14.426 2.61817 13.6163 1.80848 12.6175 1.80848H9.00055C8.00175 1.80848 7.19206 2.61817 7.19206 3.61697V4.52146H14.426ZM7.19206 6.32995H14.426V18.0851H7.19206V6.32995ZM5.38358 6.32995H3.12288C2.62348 6.32995 2.21864 6.73479 2.21864 7.23419V17.1808C2.21864 17.6802 2.62348 18.0851 3.12288 18.0851H5.38358V6.32995ZM16.2345 18.0851V6.32995H18.495C18.9944 6.32995 19.3992 6.73479 19.3992 7.23419V17.1808C19.3992 17.6803 18.9944 18.0851 18.495 18.0851H16.2345Z" fill="#022860"/>
</svg>
