<svg width="25" height="16" viewBox="0 0 25 16" fill="none" xmlns="http://www.w3.org/2000/svg">
<path fill-rule="evenodd" clip-rule="evenodd" d="M3.21736 1.45169C3.62153 0.753577 4.36708 0.32373 5.17375 0.32373H13.3604C13.96 0.32373 14.535 0.561902 14.9589 0.985847L18.154 4.18094C18.2022 4.22917 18.2607 4.26586 18.3252 4.28827L23.3837 6.04774C24.2925 6.36385 24.9016 7.22063 24.9016 8.18287V11.0359C24.9016 12.2844 23.8895 13.2965 22.641 13.2965H22.0295C21.7351 14.7987 20.4114 15.9322 18.823 15.9322C17.2345 15.9322 15.9108 14.7987 15.6164 13.2965H12.6969H10.0485C9.75416 14.7987 8.43044 15.9322 6.842 15.9322C5.25355 15.9322 3.92983 14.7987 3.63546 13.2965H2.75279C1.5043 13.2965 0.492188 12.2844 0.492188 11.0359V6.76599C0.492188 6.36825 0.597125 5.97755 0.796405 5.63334L3.21736 1.45169ZM15.7735 11.4881C16.2458 10.2648 17.433 9.39696 18.823 9.39696C20.2129 9.39696 21.4001 10.2647 21.8724 11.488H22.641C22.8907 11.488 23.0931 11.2856 23.0931 11.0359V8.18287C23.0931 7.99043 22.9713 7.81907 22.7895 7.75585L17.731 5.99637C17.4089 5.88434 17.1164 5.70087 16.8752 5.45973L13.6801 2.26464C13.5953 2.17985 13.4803 2.13221 13.3604 2.13221H5.17375C5.01241 2.13221 4.8633 2.21818 4.78247 2.35781L2.36151 6.53946C2.32166 6.6083 2.30067 6.68644 2.30067 6.76599V11.0359C2.30067 11.2856 2.50309 11.488 2.75279 11.488H3.7926C4.2649 10.2647 5.45211 9.39696 6.842 9.39696C8.23189 9.39696 9.4191 10.2647 9.89139 11.488H12.6969H15.7603C15.7647 11.488 15.7691 11.4881 15.7735 11.4881ZM6.842 14.1237C7.64785 14.1237 8.30112 13.4704 8.30112 12.6646C8.30112 11.8587 7.64785 11.2054 6.842 11.2054C6.03615 11.2054 5.38288 11.8587 5.38288 12.6646C5.38288 13.4704 6.03615 14.1237 6.842 14.1237ZM20.2821 12.6646C20.2821 13.4704 19.6288 14.1237 18.823 14.1237C18.0171 14.1237 17.3638 13.4704 17.3638 12.6646C17.3638 11.8587 18.0171 11.2054 18.823 11.2054C19.6288 11.2054 20.2821 11.8587 20.2821 12.6646Z" fill="#022860"/>
</svg>
