<svg width="19" height="24" viewBox="0 0 19 24" fill="none" xmlns="http://www.w3.org/2000/svg">
<path d="M6.29102 11.1275L8.68035 13.7341C8.85754 13.9274 9.1615 13.9299 9.34185 13.7395L13.4545 9.39844" stroke="#022860" stroke-width="1.80848" stroke-linecap="round"/>
<path d="M9.38799 1.36877C6.76393 3.92002 3.55822 4.51082 1.85274 4.48636C1.58434 4.48251 1.35156 4.692 1.35156 4.96042V13.3507C1.59339 17.7036 6.88586 21.3463 9.58034 22.4245C9.69005 22.4684 9.81311 22.4627 9.92093 22.4143C16.4932 19.4671 17.9016 16.0405 17.9016 12.8567L17.6675 4.89704C17.6603 4.65262 17.4598 4.45896 17.2154 4.45259C14.5688 4.38367 12.1324 3.66417 10.0866 1.39223C9.90372 1.18912 9.58395 1.17823 9.38799 1.36877Z" stroke="#022860" stroke-width="1.80848" stroke-linecap="round"/>
</svg>
