<svg width="26" height="19" viewBox="0 0 26 19" fill="none" xmlns="http://www.w3.org/2000/svg">
<path fill-rule="evenodd" clip-rule="evenodd" d="M2.33545 7.90373L1.77473 7.61118L1.20002 7.31133C0.876036 7.1423 0.876037 6.67868 1.20002 6.50964L1.77473 6.20979L2.33545 5.91724L2.38657 5.89057L12.9553 0.376473C13.0863 0.308103 13.2425 0.308103 13.3735 0.376473L23.9422 5.89057L23.9933 5.91724L24.5541 6.20979L25.1288 6.50964C25.4528 6.67868 25.4528 7.1423 25.1288 7.31133L24.8636 7.4497V14.6608C24.8636 15.1602 24.4587 15.565 23.9593 15.565C23.4599 15.565 23.0551 15.1602 23.0551 14.6608V8.39326L21.2647 9.32737V14.9371V15.2922L21.0231 15.5524L20.3605 14.9371C21.0231 15.5524 21.0228 15.5528 21.0224 15.5531L21.0217 15.5539L21.0201 15.5556L21.0163 15.5597L21.0059 15.5706C20.9979 15.579 20.9874 15.5897 20.9746 15.6026C20.9491 15.6283 20.914 15.6627 20.8694 15.7044C20.7802 15.7879 20.6526 15.901 20.4861 16.0336C20.1533 16.2988 19.6637 16.6428 19.013 16.9837C17.7079 17.6675 15.7658 18.3326 13.1637 18.3326C10.5617 18.3326 8.61956 17.6675 7.31443 16.9837C6.66376 16.6428 6.17422 16.2988 5.84134 16.0336C5.67485 15.901 5.5473 15.7879 5.4581 15.7044C5.41348 15.6627 5.37842 15.6283 5.35284 15.6026C5.34005 15.5897 5.32962 15.579 5.32155 15.5706L5.31121 15.5597L5.30736 15.5556L5.30577 15.5539L5.30505 15.5531C5.30472 15.5528 5.30439 15.5524 5.96702 14.9371L5.30439 15.5524L5.06277 15.2922V14.9371V9.32668L2.38657 7.9304L2.33545 7.90373ZM6.87126 10.2702V14.5401C6.90087 14.5648 6.93318 14.5912 6.96818 14.6191C7.22164 14.821 7.61563 15.0998 8.15371 15.3818C9.22607 15.9436 10.8823 16.5241 13.1637 16.5241C15.4452 16.5241 17.1014 15.9436 18.1738 15.3818C18.7118 15.0998 19.1058 14.821 19.3593 14.6191C19.3943 14.5912 19.4266 14.5648 19.4562 14.5401V10.2709L13.3735 13.4445C13.2425 13.5129 13.0863 13.5129 12.9553 13.4445L6.87126 10.2702ZM19.7304 8.08803H19.4562V8.2311L13.1644 11.5138L4.34141 6.91049L13.1644 2.30719L21.9874 6.91049L19.7304 8.08803Z" fill="#022860"/>
</svg>
