<svg width="21" height="23" viewBox="0 0 21 23" fill="currentColor" xmlns="http://www.w3.org/2000/svg">
<path fill-rule="evenodd" clip-rule="evenodd" d="M8.98862 9.94607C8.98862 8.94727 9.79831 8.13759 10.7971 8.13759C11.7959 8.13759 12.6056 8.94727 12.6056 9.94607C12.6056 10.9449 11.7959 11.7546 10.7971 11.7546C9.79831 11.7546 8.98862 10.9449 8.98862 9.94607ZM10.7971 6.3291C8.79951 6.3291 7.18014 7.94847 7.18014 9.94607C7.18014 11.0045 7.63479 11.9568 8.35946 12.6182C6.84618 13.471 5.82422 15.0932 5.82422 16.954C5.82422 17.4534 6.22906 17.8582 6.72846 17.8582C7.22786 17.8582 7.6327 17.4534 7.6327 16.954C7.6327 15.2061 9.04965 13.7891 10.7975 13.7891C12.5454 13.7891 13.9624 15.2061 13.9624 16.954C13.9624 17.4534 14.3672 17.8582 14.8666 17.8582C15.366 17.8582 15.7709 17.4534 15.7709 16.954C15.7709 15.0929 14.7487 13.4706 13.2351 12.6179C13.9596 11.9565 14.4141 11.0044 14.4141 9.94607C14.4141 7.94847 12.7947 6.3291 10.7971 6.3291Z" fill="currentColor"/>
<path fill-rule="evenodd" clip-rule="evenodd" d="M7.18121 0C7.68061 0 8.08545 0.404843 8.08545 0.904242V2.26044H13.5106V0.904242C13.5106 0.404843 13.9154 0 14.4148 0C14.9142 0 15.319 0.404843 15.319 0.904242V2.26044H17.1279C19.1255 2.26044 20.7449 3.87981 20.7449 5.87741V18.5368C20.7449 20.5344 19.1255 22.1538 17.1279 22.1538H4.46853C2.47094 22.1538 0.851562 20.5344 0.851562 18.5368V5.87741C0.851562 3.87981 2.47093 2.26044 4.46853 2.26044H6.27697V0.904242C6.27697 0.404843 6.68181 0 7.18121 0ZM4.46853 4.06893C3.46973 4.06893 2.66005 4.87861 2.66005 5.87741V18.5368C2.66005 19.5356 3.46973 20.3453 4.46853 20.3453H17.1279C18.1267 20.3453 18.9364 19.5356 18.9364 18.5368V5.87741C18.9364 4.87861 18.1267 4.06893 17.1279 4.06893H4.46853Z" fill="currentColor"/>
</svg>
