<svg width="22" height="22" viewBox="0 0 22 22" fill="none" xmlns="http://www.w3.org/2000/svg">
<path fill-rule="evenodd" clip-rule="evenodd" d="M15.3301 1.80848H7.19197C6.69257 1.80848 6.28773 2.21333 6.28773 2.71272V19.4412H16.2344V2.71273C16.2344 2.21333 15.8295 1.80848 15.3301 1.80848ZM7.19197 0C5.69377 0 4.47924 1.21453 4.47924 2.71272V9.49436H4.02712C2.02953 9.49436 0.410156 11.1137 0.410156 13.1113V17.6325C0.410156 19.6301 2.02953 21.2495 4.02712 21.2495H4.47924V21.2497H6.28773H16.2344H18.0429V21.2495H18.382C20.3796 21.2495 21.9989 19.6301 21.9989 17.6325V10.3986C21.9989 8.40098 20.3796 6.7816 18.382 6.7816H18.0429V2.71273C18.0429 1.21453 16.8283 0 15.3301 0H7.19197ZM4.47924 19.441V11.3028H4.02712C3.02833 11.3028 2.21864 12.1125 2.21864 13.1113V17.6325C2.21864 18.6313 3.02833 19.441 4.02712 19.441H4.47924ZM18.382 19.441H18.0429V8.59009H18.382C19.3808 8.59009 20.1904 9.39977 20.1904 10.3986V17.6325C20.1904 18.6313 19.3808 19.441 18.382 19.441Z" fill="#022860"/>
<path d="M9.00195 4.97314H13.5232" stroke="#022860" stroke-width="1.80848" stroke-linecap="round"/>
<path d="M9.00195 8.59033H13.5232" stroke="#022860" stroke-width="1.80848" stroke-linecap="round"/>
<path d="M9.00195 12.207H13.5232" stroke="#022860" stroke-width="1.80848" stroke-linecap="round"/>
<path d="M9.00195 15.8242H13.5232" stroke="#022860" stroke-width="1.80848" stroke-linecap="round"/>
</svg>
