<svg width="176" height="176" viewBox="0 0 176 176" fill="none" xmlns="http://www.w3.org/2000/svg">
<g filter="url(#filter0_d_453_4181)">
<rect x="20" y="20" width="136" height="136" rx="30" fill="#CDFB68"/>
<path fill-rule="evenodd" clip-rule="evenodd" d="M36.4844 87.9803C36.4844 82.473 41.0364 78.0065 46.6538 78V81.6064C43.0664 81.6113 40.1627 84.4635 40.1627 87.9803C40.1627 91.4971 43.0746 94.3574 46.6687 94.3574C50.2628 94.3574 53.1714 91.5297 53.1714 87.9575L56.8514 87.9608C56.8514 93.4942 52.2944 97.9638 46.6687 97.9638C41.043 97.9638 36.4844 93.4925 36.4844 87.9803ZM42.1742 87.9802C42.1742 85.5352 44.1992 83.5528 46.6916 83.5528C49.184 83.5528 51.2106 85.5352 51.2106 87.9802C51.2106 90.4251 49.1856 92.4075 46.6916 92.4075C44.1975 92.4075 42.1742 90.4268 42.1742 87.9802ZM52.413 79.8344C50.9843 79.8344 49.8248 80.9697 49.8248 82.3722C49.8248 83.7731 50.9827 84.9117 52.413 84.9117C53.8434 84.9117 55.0029 83.7747 55.0029 82.3722C55.0029 80.9697 53.8417 79.8344 52.413 79.8344Z" fill="#222222"/>
<path fill-rule="evenodd" clip-rule="evenodd" d="M106.873 89.9022C106.431 91.5995 105.201 94.5332 101.424 94.5332C98.7501 94.5332 97.2833 93.1731 97.2833 90.4951C97.2833 90.0118 97.344 89.534 97.4122 89.0568C98.139 84.6164 100.103 80.4089 104.412 80.3666C104.985 80.3601 106.151 80.3014 106.943 80.1174L106.655 81.8913C105.858 82.0916 104.594 82.1959 103.856 82.2007C102.941 82.2105 102.308 82.551 101.868 82.9647C101.52 83.2928 101.272 83.696 101.058 84.1196C101.634 83.9437 102.263 83.8329 102.972 83.8329C106.574 83.8329 107.659 86.8905 106.873 89.9005V89.9022ZM104.782 89.2881C105.175 87.6936 105.188 85.2712 102.972 85.2712C99.8171 85.2712 99.4124 90.0765 99.4124 90.8046C99.4124 92.3814 100.377 93.072 101.464 93.072C103.614 93.072 104.417 90.9056 104.78 89.2881H104.782ZM128.573 88.4477L128.572 88.4523L128.571 88.4542L128.571 88.4547L128.571 88.4555L128.571 88.4567C128.144 90.3346 127.869 91.5447 127.384 94.0302L127.242 94.1475L125.205 94.2061L125.106 94.0693L125.927 90.6959L126.167 89.5898C125.291 89.5702 124.416 89.5556 123.541 89.5556C122.857 89.5556 122.337 89.5637 121.805 89.5784C121.504 90.906 121.255 92.0723 120.87 94.0286L120.727 94.1458L118.688 94.2045L118.589 94.0677L119.732 89.225C120.27 86.9102 120.371 86.402 120.691 84.2649L120.834 84.1281C121.77 84.0108 121.992 83.9701 122.949 83.7746L123.053 83.9114L122.837 84.8839L122.527 86.3972L122.201 87.8306C122.936 87.8485 123.671 87.8599 124.411 87.8599C125.131 87.8599 125.85 87.8425 126.57 87.829C126.851 86.5747 126.965 85.8906 127.211 84.2649L127.351 84.1281C128.291 84.0108 128.511 83.9701 129.472 83.7746L129.571 83.9114C129.24 85.422 128.917 86.9355 128.573 88.4477ZM132.799 88.0844L132.796 88.0861L133.706 83.916L133.607 83.7792C132.646 83.9747 132.428 84.0154 131.486 84.1327L131.346 84.2695C131.025 86.4067 130.925 86.9149 130.386 89.2295L129.247 94.0723L129.345 94.2092L131.387 94.1505L131.526 94.0332C132.022 91.51 132.292 90.2949 132.733 88.3662C133.684 90.2534 134.682 92.1283 135.513 94.0723L135.673 94.1896L137.895 94.1293L138.013 93.9746L134.912 88.1887L137.515 85.8365C138.175 85.2597 138.858 84.7102 139.515 84.1311L139.457 83.9551H137.155L136.934 84.0708C135.611 85.4561 134.26 86.8427 132.799 88.0844ZM118.941 83.991L118.94 83.9906L118.941 83.9894V83.991ZM118.94 83.9906L118.841 83.833L116.067 83.8151C114.217 83.8151 111.625 83.9308 109.756 86.0777C108.912 87.0583 108.149 88.7491 108.149 90.3014C108.149 92.7578 109.819 94.1749 111.867 94.1749C112.953 94.1749 113.956 93.8509 114.802 93.1732L114.662 93.9583L114.76 94.0984L116.648 94.0577L116.792 93.9192C117.192 91.5768 117.335 90.8324 118.037 87.8043L118.94 83.9906ZM115.101 91.6599C114.881 91.8326 114.66 92.0329 114.438 92.1665C113.917 92.4825 113.233 92.621 112.691 92.621C110.861 92.621 110.339 91.1077 110.339 90.1646C110.339 90.0685 110.379 87.5306 112.488 86.1184C113.675 85.3316 114.982 85.2925 115.644 85.2925C115.946 85.2925 116.245 85.3104 116.548 85.3104L115.099 91.6599H115.101ZM69.3948 88.7228C68.9307 90.7362 68.2138 92.2999 66.6843 92.2999H66.6827C64.9633 92.2999 65.0624 90.5928 65.4952 88.7228C65.9593 86.7078 66.6563 85.2288 68.2304 85.2288C70.077 85.2288 69.7235 87.3057 69.3948 88.7228ZM61.7921 88.8678C60.6541 93.8001 63.7923 94.4777 65.9709 94.4777C69.4526 94.4777 72.0524 92.9352 73.0137 88.7652L73.016 88.7546C73.3401 87.2647 74.248 83.0917 68.891 83.0917C63.5214 83.0917 62.2165 87.0157 61.7921 88.8678ZM78.7343 94.2318C77.7251 94.2318 76.0701 94.2318 75.3748 94.2513L75.2559 94.1292C75.4491 93.4711 75.9215 91.7021 76.417 89.5438C76.7231 88.2167 77.0514 86.8924 77.3155 85.5562C76.4715 85.5758 75.1716 85.5758 74.539 85.5969L74.4234 85.4536C74.5902 84.9193 74.8248 83.9957 74.9718 83.4419L75.165 83.336C75.7266 83.3556 77.8606 83.3768 79.5783 83.3768C81.6562 83.3768 83.6778 83.336 84.1023 83.3149L84.246 83.4207C84.0917 83.908 83.8216 84.907 83.6821 85.423L83.6795 85.4325L83.4813 85.5562C82.6505 85.5383 82.0196 85.5383 80.8221 85.5383C80.7928 85.6644 80.746 85.8595 80.682 86.127L80.6818 86.1276L80.6818 86.1279C80.5183 86.8105 80.242 87.9642 79.8541 89.6464C79.4479 91.417 79.1126 93.0378 78.9193 94.0656L78.736 94.2318H78.7343ZM90.3874 85.8038L90.3858 85.8022C91.0151 85.8022 91.7634 85.8234 92.1003 85.8234C91.9566 86.4407 91.5932 88.1054 91.2348 89.6676C90.7591 91.7249 90.3544 93.3896 90.1695 94.1063L90.2619 94.253C91.1258 94.2334 92.7841 94.2334 93.6842 94.2334L93.8395 94.1079C93.9552 93.5118 94.4028 91.3958 94.8916 89.2782C95.4978 86.6492 96.1288 84.0006 96.2774 83.4451L96.1816 83.3181C95.0436 83.3393 92.9113 83.4012 90.7095 83.4012C87.9 83.4012 86.7554 83.3588 85.6223 83.3588L85.4456 83.5038C85.297 84.1407 84.8394 86.4032 84.3093 88.7017C83.7823 90.9853 83.2323 93.2854 83.016 94.1307L83.1332 94.253C84.1887 94.2334 85.5084 94.2334 86.5357 94.2334L86.7339 94.1079C86.8876 93.3489 87.2823 91.5392 87.7282 89.6073C88.1049 87.9638 88.5161 86.2778 88.6201 85.825C88.9571 85.825 89.7136 85.8038 90.3874 85.8038Z" fill="#222222"/>
</g>
<defs>
<filter id="filter0_d_453_4181" x="0" y="0" width="176" height="176" filterUnits="userSpaceOnUse" color-interpolation-filters="sRGB">
<feFlood flood-opacity="0" result="BackgroundImageFix"/>
<feColorMatrix in="SourceAlpha" type="matrix" values="0 0 0 0 0 0 0 0 0 0 0 0 0 0 0 0 0 0 127 0" result="hardAlpha"/>
<feOffset/>
<feGaussianBlur stdDeviation="10"/>
<feComposite in2="hardAlpha" operator="out"/>
<feColorMatrix type="matrix" values="0 0 0 0 0.290196 0 0 0 0 0.478431 0 0 0 0 0.698039 0 0 0 0.2 0"/>
<feBlend mode="normal" in2="BackgroundImageFix" result="effect1_dropShadow_453_4181"/>
<feBlend mode="normal" in="SourceGraphic" in2="effect1_dropShadow_453_4181" result="shape"/>
</filter>
</defs>
</svg>
