<svg width="106" height="32" viewBox="0 0 106 32" fill="none" xmlns="http://www.w3.org/2000/svg">
<g clip-path="url(#clip0_453_4159)">
<path d="M39.9675 11.1466C40.4757 9.2585 42.185 7.96185 44.1715 7.96185H52.1174C52.4177 7.96185 52.6718 8.18933 52.6718 8.48506V23.3624C52.6718 23.6581 52.4177 23.8856 52.1174 23.8856H49.9692C49.6689 23.8856 49.438 23.6581 49.438 23.3624V11.6698C49.438 11.3741 49.1839 11.1466 48.8836 11.1466H43.8481C43.5247 11.1466 43.2475 11.3513 43.1782 11.6698L39.9906 23.3624C39.8982 23.6809 39.621 23.8856 39.2976 23.8856H37.0339C36.8953 23.8856 36.7799 23.8173 36.7106 23.7264C36.6182 23.6354 36.5951 23.4989 36.6413 23.3624L39.9675 11.1466Z" fill="white"/>
<path d="M54.5283 20.7008V11.1466C54.5283 9.39499 55.9835 7.96185 57.7621 7.96185H67.4636C69.2422 7.96185 70.6974 9.39499 70.6974 11.1466V20.7008C70.6974 22.4525 69.2422 23.8856 67.4636 23.8856H57.7621C55.9835 23.8856 54.5283 22.4525 54.5283 20.7008ZM58.2934 20.7008H66.9323C67.2326 20.7008 67.4636 20.4734 67.4636 20.1776V11.6698C67.4636 11.3741 67.2326 11.1466 66.9323 11.1466H58.2934C57.9931 11.1466 57.7621 11.3741 57.7621 11.6698V20.1776C57.7621 20.4734 57.9931 20.7008 58.2934 20.7008Z" fill="white"/>
<path d="M73.0029 23.3624V8.48506C73.0029 8.18933 73.2339 7.96185 73.5342 7.96185H75.7055C76.0058 7.96185 76.2368 8.18933 76.2368 8.48506V13.8081C76.2368 14.1039 76.4677 14.3313 76.768 14.3313H78.7777C79.1241 14.3313 79.4475 14.1949 79.6554 13.9219L84.5523 8.37132C84.7602 8.09834 85.0836 7.96185 85.43 7.96185H88.6408C88.7332 7.96185 88.8255 8.00735 88.8486 8.09834C88.8949 8.18933 88.8717 8.28033 88.8256 8.37132L82.5427 15.5143C82.3348 15.7417 82.3348 16.1057 82.5427 16.3332L88.8256 23.4761C88.8717 23.5671 88.8949 23.6581 88.8486 23.7491C88.8255 23.8401 88.7332 23.8856 88.6408 23.8856H85.43C85.0836 23.8856 84.7602 23.7491 84.5523 23.4761L79.6554 17.9256C79.4475 17.6526 79.1241 17.5161 78.7777 17.5161H76.768C76.4677 17.5161 76.2368 17.7436 76.2368 18.0393V23.3624C76.2368 23.6581 76.0058 23.8856 75.7055 23.8856H73.5342C73.2339 23.8856 73.0029 23.6581 73.0029 23.3624Z" fill="white"/>
<path d="M89.8311 20.7008V11.1466C89.8311 9.39499 91.2864 7.96185 93.0649 7.96185H102.766C104.545 7.96185 106 9.39499 106 11.1466V20.7008C106 22.4525 104.545 23.8856 102.766 23.8856H93.0649C91.2864 23.8856 89.8311 22.4525 89.8311 20.7008ZM93.5962 20.7008H102.235C102.535 20.7008 102.766 20.4734 102.766 20.1776V11.6698C102.766 11.3741 102.535 11.1466 102.235 11.1466H93.5962C93.2959 11.1466 93.0649 11.3741 93.0649 11.6698V20.1776C93.0649 20.4734 93.2959 20.7008 93.5962 20.7008Z" fill="white"/>
</g>
<g clip-path="url(#clip1_453_4159)">
<path d="M15.9228 31.8475C24.7172 31.8475 31.8465 24.7182 31.8465 15.9238C31.8465 7.12936 24.7172 6.10352e-05 15.9228 6.10352e-05C7.12832 6.10352e-05 -0.000976562 7.12936 -0.000976562 15.9238C-0.000976562 24.7182 7.12832 31.8475 15.9228 31.8475Z" fill="#1E60FC"/>
<path fill-rule="evenodd" clip-rule="evenodd" d="M15.9227 31.8475C24.7172 31.8475 31.8464 24.7182 31.8464 15.9238C31.8464 7.1293 24.7172 0 15.9227 0C7.12833 0 -0.000976562 7.1293 -0.000976562 15.9238C-0.000976562 24.7182 7.12833 31.8475 15.9227 31.8475ZM25.1546 20.1643L17.9569 8.80774C17.0112 7.31574 14.8343 7.31575 13.8887 8.80774L6.69094 20.1643C6.03401 21.2008 6.3417 22.5735 7.37819 23.2304C8.41467 23.8873 9.78745 23.5797 10.4444 22.5432L15.9227 13.8995L21.4012 22.5432C22.0581 23.5797 23.4309 23.8873 24.4674 23.2304C25.5038 22.5735 25.8115 21.2008 25.1546 20.1643Z" fill="white"/>
</g>
<defs>
<clipPath id="clip0_453_4159">
<rect width="69.382" height="15.9237" fill="white" transform="translate(36.6182 7.96185)"/>
</clipPath>
<clipPath id="clip1_453_4159">
<rect width="31.8475" height="31.8475" fill="white"/>
</clipPath>
</defs>
</svg>
