<svg width="176" height="176" viewBox="0 0 176 176" fill="none" xmlns="http://www.w3.org/2000/svg">
<g filter="url(#filter0_d_453_4175)">
<rect x="20" y="20" width="136" height="136" rx="30" fill="#333333"/>
<path fill-rule="evenodd" clip-rule="evenodd" d="M84.8015 85.2877C85.8257 85.2877 86.7668 85.3705 87.4865 85.6474C89.0091 86.229 89.9779 87.53 89.9779 89.412C89.9779 91.2672 88.9538 92.6788 87.4313 93.26C86.7114 93.5368 85.7427 93.6476 84.4416 93.6476H75.085V80.4711H88.8983V83.5159H79.0988V85.2877H84.8015ZM84.5799 90.3259C84.9675 90.3259 85.272 90.298 85.4935 90.2151C85.9641 90.049 86.1578 89.6335 86.1578 89.2459C86.1578 89.0997 86.1341 88.9648 86.0867 88.8451C86.0583 88.7736 86.0214 88.7074 85.976 88.6468C85.8965 88.5413 85.791 88.4537 85.6596 88.3879C85.6193 88.3681 85.5773 88.3501 85.5337 88.3345C85.4635 88.3094 85.3889 88.29 85.3098 88.2744C85.0987 88.2327 84.8554 88.2218 84.5799 88.2218H79.0988V90.3259H84.5799ZM95.3639 80.4711H101.232L106.63 93.6476H102.118L101.343 91.7376H95.2531L94.5058 93.6476H89.9658L95.3639 80.4711ZM98.1598 83.5159L96.2496 88.8309H100.374L98.4642 83.5159H98.1598ZM111.797 88.7481V93.6476H107.783V80.4711H111.797V85.2877H118.247V80.4711H122.261V93.6476H118.247V88.7481H111.797ZM128.614 93.6476V88.6648H129.722L134.511 93.6476H139.853L133.182 86.7827L139.604 80.4711H134.566L129.722 85.4264H128.614V80.4711H124.6V93.6476H128.614Z" fill="white"/>
<path d="M35.5557 72H67.5557V88.0937C67.5557 92.2194 65.3548 96.0318 61.782 98.0949L51.5557 104L41.3294 98.0949C37.7566 96.0318 35.5557 92.2194 35.5557 88.0937V72Z" fill="#FFDD2D"/>
<path fill-rule="evenodd" clip-rule="evenodd" d="M44.3379 80.4711V85.4765C45.0224 84.7036 46.2669 84.1805 47.6898 84.1805H49.2361V89.9993C49.2361 91.5474 48.8155 92.9024 48.1914 93.6477H54.9176C54.2948 92.9016 53.8752 91.5483 53.8752 90.0023V84.1805H55.4215C56.8445 84.1805 58.0889 84.7036 58.7735 85.4765V80.4711H44.3379Z" fill="#333333"/>
</g>
<defs>
<filter id="filter0_d_453_4175" x="0" y="0" width="176" height="176" filterUnits="userSpaceOnUse" color-interpolation-filters="sRGB">
<feFlood flood-opacity="0" result="BackgroundImageFix"/>
<feColorMatrix in="SourceAlpha" type="matrix" values="0 0 0 0 0 0 0 0 0 0 0 0 0 0 0 0 0 0 127 0" result="hardAlpha"/>
<feOffset/>
<feGaussianBlur stdDeviation="10"/>
<feComposite in2="hardAlpha" operator="out"/>
<feColorMatrix type="matrix" values="0 0 0 0 0.290196 0 0 0 0 0.478431 0 0 0 0 0.698039 0 0 0 0.2 0"/>
<feBlend mode="normal" in2="BackgroundImageFix" result="effect1_dropShadow_453_4175"/>
<feBlend mode="normal" in="SourceGraphic" in2="effect1_dropShadow_453_4175" result="shape"/>
</filter>
</defs>
</svg>
