<svg width="176" height="176" viewBox="0 0 176 176" fill="none" xmlns="http://www.w3.org/2000/svg">
<g filter="url(#filter0_d_453_4170)">
<rect x="20" y="20" width="136" height="136" rx="30" fill="#009FDF"/>
<path d="M44.9047 70L43.1768 74.7398H67.1136L68.8416 70H44.9047ZM42.3138 77.1076L40.5859 81.8464H64.5227L66.2507 77.1076H42.3138ZM39.7279 84.2152L38 88.953H61.9369L63.6628 84.2142C63.6638 84.2152 39.7279 84.2152 39.7279 84.2152Z" fill="white"/>
<path d="M88.322 90.4405V90.5389C89.3969 90.9337 90.4246 91.6249 90.9621 92.0689C92.6237 93.4513 93.3581 95.2766 93.3581 97.6455C93.3581 101.546 91.3047 104.358 87.9302 105.247C86.9025 105.544 85.8275 105.642 83.8233 105.642H73.6064V77.1133H82.652C84.5105 77.1133 85.7803 77.2117 86.9045 77.5071C90.1805 78.3962 92.3324 80.6666 92.3324 84.2691C92.3324 86.195 91.6483 87.8244 90.5241 88.9094C90.0348 89.4027 89.3507 89.9954 88.324 90.4394L88.322 90.4405ZM79.2775 93.4513V100.954H83.1894C84.3618 100.954 85.4388 100.855 86.2203 100.115C87.0029 99.3745 87.3445 98.4362 87.3445 97.2025C87.3445 96.2662 87.0994 95.3771 86.6111 94.7352C85.7803 93.6984 84.7526 93.4513 82.9935 93.4513H79.2765H79.2775ZM79.2272 88.5146H82.4058C83.3833 88.5146 83.8726 88.5146 84.3608 88.3669C85.6819 87.9711 86.5127 86.7887 86.5127 85.1592C86.5127 83.2344 85.6326 82.3945 84.3608 82.0007C83.8223 81.852 83.2859 81.8038 82.2099 81.8038H79.2272V88.5156V88.5146ZM101.865 105.643V81.9013H93.7007V77.1143H116.388L114.774 81.9013H107.537V105.643H101.865ZM118.148 105.643V77.1143H136.532L134.919 81.9013H123.772V88.2203H128.32C131.986 88.2203 133.893 89.1093 135.214 90.2435C136.242 91.1326 138.001 93.1057 138.001 97.0066C138.001 100.856 136.193 102.978 134.676 104.065C132.916 105.298 131.058 105.644 127.292 105.644H118.149H118.148V105.643ZM123.771 100.854H128.024C129.638 100.854 130.615 100.459 131.299 99.5704C131.641 99.1273 132.13 98.3357 132.13 96.8559C132.13 95.3761 131.641 94.3383 130.663 93.5979C130.078 93.1549 129.294 92.9088 127.974 92.9088H123.769V100.854H123.771Z" fill="white"/>
</g>
<defs>
<filter id="filter0_d_453_4170" x="0" y="0" width="176" height="176" filterUnits="userSpaceOnUse" color-interpolation-filters="sRGB">
<feFlood flood-opacity="0" result="BackgroundImageFix"/>
<feColorMatrix in="SourceAlpha" type="matrix" values="0 0 0 0 0 0 0 0 0 0 0 0 0 0 0 0 0 0 127 0" result="hardAlpha"/>
<feOffset/>
<feGaussianBlur stdDeviation="10"/>
<feComposite in2="hardAlpha" operator="out"/>
<feColorMatrix type="matrix" values="0 0 0 0 0.290196 0 0 0 0 0.478431 0 0 0 0 0.698039 0 0 0 0.2 0"/>
<feBlend mode="normal" in2="BackgroundImageFix" result="effect1_dropShadow_453_4170"/>
<feBlend mode="normal" in="SourceGraphic" in2="effect1_dropShadow_453_4170" result="shape"/>
</filter>
</defs>
</svg>
