<svg width="176" height="176" viewBox="0 0 176 176" fill="none" xmlns="http://www.w3.org/2000/svg">
<g filter="url(#filter0_d_453_4154)">
<rect x="20" y="20" width="136" height="136" rx="30" fill="#21A038"/>
<path fill-rule="evenodd" clip-rule="evenodd" d="M43.0395 80H43.038C40.9634 79.9974 38.9378 80.8465 37.4554 82.323C35.0927 84.6663 34.3499 88.3759 35.6005 91.4915C36.381 93.4363 37.8892 95.0457 39.7722 95.9088C41.7727 96.8254 44.0943 96.8571 46.1174 95.9913C48.0229 95.1759 49.5679 93.611 50.3966 91.6824C51.0496 90.163 51.2427 88.4531 50.9601 86.821L49.2276 88.1393C49.2276 89.0932 49.0735 90.0244 48.6956 90.9024C48.0575 92.3847 46.8706 93.5886 45.4059 94.2163C43.8491 94.8835 42.0679 94.8592 40.5274 94.1523C39.0785 93.4874 37.9213 92.2525 37.3194 90.7552C36.6744 89.1503 36.6971 87.3055 37.3805 85.7178C38.0181 84.2366 39.2045 83.0333 40.6695 82.4054C42.5877 81.5832 44.8102 81.8186 46.527 83.0348L48.0919 81.8437C46.677 80.6606 44.8692 79.9976 43.0395 80ZM49.4069 83.23C49.7892 83.7404 50.1129 84.295 50.3714 84.8825L43.0396 90.4632L39.9755 88.4798V86.0938L43.0396 88.0771L49.4069 83.23Z" fill="white"/>
<path d="M82.3997 85.0999L84.6377 83.4198H77.2169V93.3807H84.6377V91.7006H79.3372V89.1803H83.8132V87.5002H79.3372V85.0999H82.3997ZM73.1532 85.0999L75.3912 83.4198H66.9104V93.3807H71.3275C73.8011 93.3807 75.2145 92.2406 75.2145 90.2604C75.2145 88.3402 73.9188 87.3201 71.5631 87.3201H68.9717V85.0999H73.1532ZM71.2686 88.9403C72.6232 88.9403 73.2121 89.4204 73.2121 90.3204C73.2121 91.2205 72.5643 91.7006 71.2686 91.7006H69.0306V88.9403H71.2686ZM90.586 83.4198H86.5812V93.3807H88.7014V90.5605H90.6449C93.2363 90.5605 94.8265 89.1803 94.8265 86.9601C94.8265 84.7399 93.1774 83.4198 90.586 83.4198ZM90.586 88.8803H88.7014V85.0399H90.586C91.9406 85.0399 92.7063 85.7 92.7063 86.9601C92.6474 88.2202 91.9406 88.8803 90.586 88.8803ZM63.3178 91.2205C62.7289 91.5206 62.1399 91.7006 61.4921 91.7006C59.6074 91.7006 58.194 90.3204 58.194 88.4003C58.194 86.4801 59.5485 85.0999 61.4921 85.0999C62.1988 85.0999 62.8466 85.34 63.4356 85.7L64.9669 84.5599L64.8491 84.4399C63.9656 83.6598 62.7878 83.2397 61.4332 83.2397C59.9608 83.2397 58.6651 83.7198 57.6639 84.6799C56.7216 85.64 56.1326 86.9601 56.1915 88.3402C56.1915 89.7204 56.7216 91.0405 57.6639 92.0606C58.6651 93.0207 60.0197 93.5608 61.3743 93.5008C62.9055 93.5008 64.2012 92.9607 65.1435 92.0006L63.789 90.9805L63.3178 91.2205ZM126.865 87.5002H122.33V83.4198H120.21V93.3807H122.33V89.3003H126.865V93.3807H128.985V83.4198H126.865V87.5002ZM112.554 83.4198L108.313 93.3807H110.434L111.258 91.4006H115.734L116.559 93.3807H118.797L114.674 83.4198H112.554ZM111.965 89.7204L113.614 85.7L115.145 89.7204H111.965ZM136.642 88.2202L140.47 83.4198H138.055L134.875 87.6802H133.697V83.4198H131.577V93.3807H133.697V89.3604H135.052L138.291 93.3807H141L136.642 88.2202ZM103.896 87.3201H101.305V85.0999H106.841V83.4198H99.1847V93.3807H103.602C106.075 93.3807 107.489 92.2406 107.489 90.2604C107.548 88.3402 106.252 87.3201 103.896 87.3201ZM103.543 91.7606H101.305V89.0003H103.543C104.897 89.0003 105.486 89.4804 105.486 90.3804C105.545 91.2805 104.839 91.7606 103.543 91.7606Z" fill="white"/>
</g>
<defs>
<filter id="filter0_d_453_4154" x="0" y="0" width="176" height="176" filterUnits="userSpaceOnUse" color-interpolation-filters="sRGB">
<feFlood flood-opacity="0" result="BackgroundImageFix"/>
<feColorMatrix in="SourceAlpha" type="matrix" values="0 0 0 0 0 0 0 0 0 0 0 0 0 0 0 0 0 0 127 0" result="hardAlpha"/>
<feOffset/>
<feGaussianBlur stdDeviation="10"/>
<feComposite in2="hardAlpha" operator="out"/>
<feColorMatrix type="matrix" values="0 0 0 0 0.290196 0 0 0 0 0.478431 0 0 0 0 0.698039 0 0 0 0.2 0"/>
<feBlend mode="normal" in2="BackgroundImageFix" result="effect1_dropShadow_453_4154"/>
<feBlend mode="normal" in="SourceGraphic" in2="effect1_dropShadow_453_4154" result="shape"/>
</filter>
</defs>
</svg>
