<svg width="176" height="176" viewBox="0 0 176 176" fill="none" xmlns="http://www.w3.org/2000/svg">
<g filter="url(#filter0_d_453_4152)">
<rect x="20" y="20" width="136" height="136" rx="30" fill="#323E48"/>
<path d="M59.5186 78.711H64.3748C65.4503 78.7038 66.4856 79.1193 67.2576 79.8681C68.0297 80.6168 68.4768 81.6389 68.5026 82.7141C68.4922 83.8002 68.0521 84.838 67.2785 85.6005C66.505 86.363 65.461 86.7881 64.3748 86.7828H61.3561V90.0641H59.5186V78.711ZM64.1976 85.0569C64.5144 85.0701 64.8306 85.0194 65.1274 84.9079C65.4241 84.7963 65.6954 84.6262 65.9251 84.4075C66.1547 84.1889 66.338 83.9263 66.464 83.6354C66.59 83.3445 66.6562 83.0311 66.6586 82.7141C66.6609 82.3957 66.5978 82.0802 66.4734 81.7871C66.3491 81.494 66.1659 81.2295 65.9352 81.0099C65.7046 80.7904 65.4314 80.6205 65.1326 80.5106C64.8337 80.4007 64.5155 80.3534 64.1976 80.3713H61.3626V85.0503L64.1976 85.0569ZM69.0604 85.9166C69.0338 85.3483 69.1252 84.7808 69.3287 84.2496C69.5322 83.7184 69.8435 83.235 70.243 82.8301C70.6424 82.425 71.1214 82.1071 71.6497 81.8963C72.1781 81.6855 72.7443 81.5863 73.3129 81.605C75.9379 81.605 77.2504 83.8232 77.2504 86.0413V86.4744H70.9373C71.1867 87.8919 72.4139 88.6925 74.0807 88.6925C75.0066 88.6864 75.9135 88.4302 76.7057 87.951V89.4932C75.8021 90.0559 74.7506 90.3348 73.687 90.2938C71.0948 90.2872 69.0604 88.5678 69.0604 85.9166ZM75.4064 85.0569C75.3989 84.7848 75.3368 84.5169 75.2237 84.2693C75.1106 84.0217 74.9488 83.7995 74.7479 83.6158C74.547 83.432 74.3112 83.2907 74.0545 83.2C73.7978 83.1094 73.5255 83.0713 73.2539 83.0882C72.6918 83.0519 72.1382 83.238 71.7121 83.6063C71.2862 83.9746 71.022 84.4956 70.9767 85.0569H75.4064ZM78.8517 81.7888H80.7023V84.9913H84.8892V81.7888H86.7398V90.0444H84.8892V86.5925H80.7023V90.0444H78.8517V81.7888ZM88.2754 85.9166C88.2485 85.3483 88.3404 84.7808 88.5438 84.2496C88.7473 83.7184 89.0583 83.235 89.458 82.8301C89.8576 82.425 90.3367 82.1071 90.865 81.8963C91.3933 81.6855 91.9596 81.5863 92.5279 81.605C95.1529 81.605 96.4654 83.8232 96.4654 86.0413V86.4744H90.1195C90.3689 87.8919 91.596 88.6925 93.2629 88.6925C94.1889 88.6864 95.0958 88.4302 95.8879 87.951V89.4932C94.9842 90.0559 93.9329 90.3348 92.8692 90.2938C90.3098 90.2872 88.2754 88.5678 88.2754 85.9166ZM94.6213 85.0569C94.6141 84.7848 94.5518 84.5169 94.4389 84.2693C94.3254 84.0217 94.1639 83.7995 93.9631 83.6158C93.7623 83.432 93.5261 83.2907 93.2695 83.2C93.0129 83.1094 92.7405 83.0713 92.4688 83.0882C91.9071 83.0519 91.3532 83.238 90.9273 83.6063C90.5014 83.9746 90.2369 84.4956 90.1917 85.0569H94.6213ZM97.5154 85.9166C97.5121 85.3338 97.6276 84.7564 97.8547 84.2197C98.0817 83.6829 98.4158 83.1981 98.8364 82.7946C99.2571 82.3912 99.7552 82.0777 100.301 81.8731C100.847 81.6686 101.429 81.5774 102.011 81.605C102.864 81.5837 103.709 81.773 104.472 82.1563V83.6985C103.788 83.3362 103.027 83.147 102.254 83.1472C101.876 83.1268 101.498 83.1831 101.142 83.3127C100.787 83.4423 100.461 83.6426 100.186 83.9013C99.9094 84.1601 99.6889 84.4721 99.5367 84.8184C99.3844 85.1647 99.3043 85.5383 99.3004 85.9166C99.2998 86.2962 99.3765 86.6721 99.5275 87.0206C99.6777 87.3692 99.8983 87.6831 100.175 87.9428C100.452 88.2025 100.78 88.4025 101.137 88.5304C101.495 88.6582 101.875 88.7112 102.254 88.686C103.078 88.7177 103.894 88.5029 104.596 88.0691V89.6113C103.793 90.0542 102.889 90.2804 101.971 90.2675C101.391 90.2852 100.812 90.1855 100.27 89.9744C99.7283 89.7633 99.2348 89.4452 98.8187 89.0391C98.4027 88.6329 98.0732 88.1471 97.8488 87.6106C97.625 87.0741 97.5115 86.498 97.5154 85.9166ZM105.522 85.9166C105.518 85.3338 105.634 84.7564 105.861 84.2197C106.088 83.6829 106.422 83.1981 106.843 82.7946C107.263 82.3912 107.761 82.0777 108.307 81.8731C108.853 81.6686 109.435 81.5774 110.017 81.605C110.87 81.5837 111.715 81.773 112.478 82.1563V83.6985C111.795 83.3362 111.033 83.147 110.26 83.1472C109.882 83.1268 109.504 83.1831 109.149 83.3127C108.793 83.4423 108.468 83.6426 108.192 83.9013C107.916 84.1601 107.695 84.4721 107.543 84.8184C107.391 85.1647 107.311 85.5383 107.307 85.9166C107.306 86.2962 107.383 86.6721 107.534 87.0206C107.684 87.3692 107.904 87.6831 108.181 87.9428C108.458 88.2025 108.786 88.4025 109.143 88.5304C109.501 88.6582 109.881 88.7112 110.26 88.686C111.085 88.7177 111.9 88.5029 112.603 88.0691V89.6113C111.799 90.0542 110.895 90.2804 109.978 90.2675C109.398 90.2797 108.821 90.1763 108.282 89.9633C107.743 89.7503 107.252 89.4319 106.837 89.0269C106.422 88.6218 106.092 88.1381 105.866 87.6041C105.64 87.0701 105.523 86.4964 105.522 85.9166ZM122.702 88.5022V89.8541C122.384 90.0375 122.019 90.1241 121.652 90.1035C121.275 90.1338 120.898 90.0348 120.584 89.8224C120.27 89.61 120.039 89.2972 119.926 88.9353C119.548 89.3589 119.082 89.6956 118.561 89.9222C118.04 90.1487 117.476 90.2598 116.908 90.2478C115.182 90.2478 113.83 89.2635 113.83 87.4785C113.83 85.6935 115.182 85.0766 116.973 85.0766H119.808V84.9519C119.808 83.5344 118.64 83.1669 117.406 83.1669C116.495 83.1895 115.605 83.4448 114.821 83.9085V82.2875C115.758 81.825 116.795 81.5996 117.839 81.6313C120.058 81.6313 121.659 82.6813 121.659 84.7747V87.8525C121.648 87.9484 121.656 88.0455 121.684 88.1381C121.711 88.2307 121.757 88.3168 121.818 88.3915C121.879 88.4661 121.955 88.5277 122.04 88.5727C122.125 88.6176 122.219 88.645 122.315 88.6532C122.456 88.6411 122.591 88.5887 122.702 88.5022ZM119.684 86.4678H117.531C116.363 86.4678 115.562 86.7172 115.562 87.5178C115.562 88.4432 116.363 88.7516 117.347 88.7516C117.784 88.7515 118.215 88.6644 118.618 88.4954C119.02 88.3264 119.385 88.0788 119.69 87.7672L119.684 86.4678ZM123.995 81.7888H125.846V84.9913H130V81.7888H131.85V90.0444H130V86.5925H125.813V90.0444H123.962L123.995 81.7888ZM133.419 85.9166C133.416 85.3338 133.531 84.7564 133.758 84.2197C133.985 83.6829 134.319 83.1981 134.74 82.7946C135.161 82.3912 135.659 82.0777 136.205 81.8731C136.75 81.6686 137.332 81.5774 137.914 81.605C138.767 81.5837 139.613 81.773 140.375 82.1563V83.6985C139.692 83.3362 138.93 83.147 138.157 83.1472C137.779 83.1268 137.401 83.1831 137.046 83.3127C136.69 83.4423 136.365 83.6426 136.089 83.9013C135.813 84.1601 135.592 84.4721 135.44 84.8184C135.288 85.1647 135.208 85.5383 135.204 85.9166C135.203 86.2962 135.28 86.6721 135.431 87.0206C135.581 87.3692 135.802 87.6831 136.079 87.9428C136.356 88.2025 136.683 88.4025 137.041 88.5304C137.398 88.6582 137.778 88.7112 138.157 88.686C138.982 88.7177 139.798 88.5029 140.5 88.0691V89.6113C139.697 90.0542 138.792 90.2804 137.875 90.2675C137.294 90.2852 136.715 90.1855 136.173 89.9744C135.632 89.7633 135.138 89.4452 134.722 89.0391C134.306 88.6329 133.977 88.1471 133.752 87.6106C133.528 87.0741 133.415 86.498 133.419 85.9166ZM59.5186 94.4806H60.3782V96.0819L61.8548 94.4806H62.9048L61.1789 96.3313L63.2132 98.5494H62.1632L60.4373 96.6922V98.5428H59.5186V94.4806ZM64.3223 94.4806H66.1073C66.2857 94.4514 66.4684 94.4614 66.6425 94.5097C66.8168 94.5581 66.9783 94.6438 67.1162 94.7609C67.254 94.8779 67.3646 95.0235 67.4405 95.1876C67.5165 95.3517 67.5558 95.5303 67.5558 95.7111C67.5558 95.8919 67.5165 96.0705 67.4405 96.2346C67.3646 96.3987 67.254 96.5444 67.1162 96.6614C66.9783 96.7784 66.8168 96.8641 66.6425 96.9125C66.4684 96.9609 66.2857 96.9708 66.1073 96.9416H65.182V98.5428H64.3223V94.4806ZM66.0482 96.2066C66.4157 96.2066 66.6651 96.0228 66.6651 95.7144C66.6651 95.406 66.4157 95.2222 66.0482 95.2222H65.182V96.2066H66.0482ZM68.752 94.4806H71.7051V95.2156H69.5526V96.0163H71.2785V96.7578H69.5526V97.8078H71.8298V98.5494H68.752V94.4806ZM72.9454 97.8013H73.3129C73.7537 97.0006 73.9456 96.0866 73.8642 95.1763V94.5594H76.6992V97.8866H77.2504V99.4878H76.4498V98.6675H73.6804V99.4681H72.906V97.8013H72.9454ZM75.8985 97.8013V95.2156H74.7304C74.7674 96.0982 74.6198 96.9789 74.2973 97.8013H75.8985ZM78.5498 94.4806H79.4095V97.1056L81.3782 94.4806H82.0935V98.5428H81.3192V95.9178L79.2257 98.5428H78.5695L78.5498 94.4806ZM86.6873 94.4806V95.2156H85.3748V98.5428H84.5217V95.2156H83.2092V94.4806H86.6873Z" fill="white"/>
<path d="M38.125 94.48H35.5V83.0809C35.5104 81.2062 36.2597 79.4111 37.5854 78.0854C38.9111 76.7597 40.7062 76.0103 42.5809 76H51.3287V83.0219C51.3287 84.8999 50.5827 86.7009 49.2548 88.0289C47.9269 89.3568 46.1258 90.1028 44.2478 90.1028H39.8116L40.7959 87.4778H44.1822C44.7677 87.4813 45.3481 87.3683 45.8895 87.1455C46.431 86.9226 46.9227 86.5944 47.3362 86.1797C47.7496 85.7651 48.0764 85.2723 48.2977 84.7302C48.5189 84.1881 48.6302 83.6074 48.625 83.0219V78.6512H42.5219C41.9386 78.6486 41.3605 78.7616 40.8211 78.9836C40.2817 79.2056 39.7916 79.5323 39.3792 79.9448C38.9667 80.3572 38.64 80.8473 38.418 81.3868C38.196 81.9261 38.083 82.5042 38.0856 83.0875V94.48H38.125Z" fill="url(#paint0_radial_453_4152)"/>
</g>
<defs>
<filter id="filter0_d_453_4152" x="0" y="0" width="176" height="176" filterUnits="userSpaceOnUse" color-interpolation-filters="sRGB">
<feFlood flood-opacity="0" result="BackgroundImageFix"/>
<feColorMatrix in="SourceAlpha" type="matrix" values="0 0 0 0 0 0 0 0 0 0 0 0 0 0 0 0 0 0 127 0" result="hardAlpha"/>
<feOffset/>
<feGaussianBlur stdDeviation="10"/>
<feComposite in2="hardAlpha" operator="out"/>
<feColorMatrix type="matrix" values="0 0 0 0 0.290196 0 0 0 0 0.478431 0 0 0 0 0.698039 0 0 0 0.2 0"/>
<feBlend mode="normal" in2="BackgroundImageFix" result="effect1_dropShadow_453_4152"/>
<feBlend mode="normal" in="SourceGraphic" in2="effect1_dropShadow_453_4152" result="shape"/>
</filter>
<radialGradient id="paint0_radial_453_4152" cx="0" cy="0" r="1" gradientUnits="userSpaceOnUse" gradientTransform="translate(36.0316 93.7319) scale(15.3234 15.3234)">
<stop stop-color="#D6005E"/>
<stop offset="1" stop-color="#E3448A"/>
</radialGradient>
</defs>
</svg>
