<svg width="176" height="176" viewBox="0 0 176 176" fill="none" xmlns="http://www.w3.org/2000/svg">
<g filter="url(#filter0_d_453_4183)">
<rect x="20" y="20" width="136" height="136" rx="30" fill="#EF3124"/>
<path d="M106.56 108.044H70V115.641H106.56V108.044Z" fill="#EF3124"/>
<path d="M94.972 65.5653C93.9304 62.4558 92.7284 60.0002 88.6108 60.0002C84.4932 60.0002 83.2163 62.4455 82.1178 65.5653L70.8066 97.723H78.3078L80.9184 90.0771H95.352L97.774 97.723H105.751L94.9695 65.5653H94.972ZM83.1052 83.6202L88.2334 68.3802H88.4221L93.2661 83.6202H83.1052Z" fill="#EF3124"/>
<path d="M37.1934 95.6375H50.6124V98.4211H37.1934V95.6375ZM134.237 86.7018L138.468 82.0337H135.314L131.847 85.9135V82.0337H129.335V91.844H131.86V87.7117L135.567 91.844H138.806L134.237 86.7018ZM52.0904 87.3484C52.0227 89.1959 51.7887 89.5469 50.7664 89.5469V91.8501H51.1482C53.7162 91.8501 54.3259 90.5261 54.4183 87.5762L54.5291 84.3123H56.9001V91.844H59.4127V82.0337H52.2629L52.0904 87.3484ZM41.184 89.0358H46.4802L47.3608 91.844H50.2983L46.3385 80.0446C45.9567 78.9053 45.5133 78 43.9983 78C42.4834 78 42.0215 78.9053 41.6151 80.0446L37.4643 91.844H40.2233L41.184 89.0358ZM43.869 81.0792H43.9368L45.7104 86.671H41.9784L43.869 81.0792ZM102.564 83.4255H99.7623V80.6543H106.266V78.1909H97.1265V91.844H102.564C105.576 91.844 107.306 90.3413 107.306 87.5947C107.306 84.9897 105.551 83.4255 102.564 83.4255ZM102.435 89.3745H99.7623V85.8273H102.435C103.827 85.8273 104.609 86.4431 104.609 87.6009C104.609 88.7587 103.827 89.3745 102.435 89.3745ZM77.586 81.8059V78.1724H75.0796V81.8059C73.7635 81.8493 72.5184 82.4133 71.6177 83.3739C70.7171 84.3346 70.2346 85.6135 70.2761 86.9296C70.2312 88.2485 70.7121 89.5312 71.6129 90.4955C72.5137 91.4599 73.7607 92.0269 75.0796 92.0718V95.7669H77.5922V92.0718C78.2455 92.0504 78.8882 91.9003 79.4833 91.63C80.0785 91.3599 80.6145 90.9749 81.0608 90.4973C81.5069 90.0196 81.8545 89.4586 82.0836 88.8464C82.3127 88.2342 82.4187 87.5828 82.3957 86.9296C82.4221 86.276 82.3179 85.6236 82.0895 85.0107C81.861 84.3977 81.5128 83.8363 81.0651 83.3594C80.6174 82.8825 80.0791 82.4994 79.4818 82.2327C78.8845 81.966 78.24 81.8209 77.586 81.8059ZM75.0857 89.7009C74.4208 89.6278 73.8111 89.2963 73.3884 88.7779C72.9655 88.2595 72.7634 87.5957 72.8256 86.9296C72.7714 86.2652 72.9764 85.6056 73.3978 85.089C73.8191 84.5724 74.424 84.2389 75.0857 84.1584V89.7009ZM77.5983 89.7009V84.1584C78.2601 84.2389 78.865 84.5724 79.2863 85.089C79.7076 85.6056 79.9127 86.2652 79.8585 86.9296C79.9174 87.595 79.7141 88.2571 79.2919 88.7748C78.8697 89.2925 78.262 89.6248 77.5983 89.7009ZM91.8118 88.8326V85.5255C91.8118 83.1114 90.2784 81.6026 87.7042 81.6026C85.13 81.6026 83.6274 83.2038 83.5042 84.8727H86.0476C86.1338 84.5155 86.5156 83.8812 87.6981 83.8812C87.9191 83.8528 88.1433 83.8761 88.3533 83.9493C88.5639 84.0226 88.7542 84.1438 88.9094 84.3033C89.0646 84.4628 89.181 84.6563 89.2487 84.8684C89.3165 85.0806 89.3337 85.3055 89.2992 85.5255H86.8359C84.6066 85.5255 83.2825 86.7018 83.2825 88.6478C83.2651 89.1122 83.3454 89.5751 83.5183 90.0065C83.6911 90.4379 83.9526 90.8281 84.2858 91.152C84.619 91.476 85.0165 91.7263 85.4527 91.8869C85.8887 92.0475 86.3537 92.1146 86.8174 92.0842C87.3409 92.1117 87.8631 92.0098 88.3379 91.7875C88.8127 91.5651 89.2253 91.2292 89.5394 90.8094C89.7439 91.1552 90.0419 91.4359 90.3997 91.619C90.7569 91.8021 91.159 91.8801 91.5593 91.844H92.4277V89.5777C92.0027 89.5777 91.8118 89.3745 91.8118 88.8326ZM89.2992 88.2167C89.3097 88.4593 89.2684 88.7013 89.1779 88.9268C89.088 89.1522 88.9513 89.3561 88.777 89.5248C88.6021 89.6936 88.3939 89.8234 88.1655 89.9058C87.937 89.9881 87.6937 90.0211 87.4517 90.0026C86.5464 90.0026 85.8321 89.6762 85.8321 88.6971C85.8321 87.7179 86.6265 87.5762 87.2978 87.5762H89.2992V88.2167ZM65.6696 85.0144H63.8652V82.0337H61.3526V91.844H65.7127C68.4409 91.844 69.4077 90.0704 69.4077 88.3953C69.42 86.2337 68.0652 85.0144 65.6696 85.0144ZM65.4849 89.7009H63.8652V87.2375H65.4849C66.3532 87.2375 66.8766 87.6317 66.8766 88.4692C66.8766 89.3067 66.3778 89.7009 65.4849 89.7009ZM116.895 88.8326V85.5255C116.895 83.1114 115.361 81.6026 112.787 81.6026C110.213 81.6026 108.71 83.2038 108.587 84.8727H111.131C111.217 84.5155 111.599 83.8812 112.781 83.8812C113.002 83.8528 113.226 83.8761 113.436 83.9493C113.647 84.0226 113.837 84.1438 113.992 84.3033C114.148 84.4628 114.264 84.6563 114.332 84.8684C114.399 85.0806 114.417 85.3055 114.382 85.5255H111.919C109.69 85.5255 108.366 86.7018 108.366 88.6478C108.348 89.1122 108.428 89.5751 108.601 90.0065C108.774 90.4379 109.036 90.8281 109.369 91.152C109.702 91.476 110.1 91.7263 110.536 91.8869C110.972 92.0475 111.437 92.1146 111.9 92.0842C112.429 92.1169 112.957 92.0175 113.438 91.795C113.918 91.5724 114.336 91.2337 114.653 90.8094C114.855 91.1491 115.147 91.426 115.497 91.6087C115.848 91.7915 116.242 91.873 116.636 91.844H117.505V89.5777C117.067 89.5777 116.895 89.3745 116.895 88.8326ZM114.395 88.2167C114.404 88.459 114.362 88.7006 114.271 88.9256C114.181 89.1506 114.044 89.354 113.87 89.5226C113.696 89.6911 113.487 89.821 113.26 89.9037C113.032 89.9864 112.789 90.0201 112.547 90.0026C111.642 90.0026 110.927 89.6762 110.927 88.6971C110.927 87.7179 111.722 87.5762 112.393 87.5762H114.395V88.2167ZM124.919 85.6856H121.452V82.0337H118.939V91.8501H121.452V87.9827H124.919V91.844H127.432V82.0337H124.919V85.6856Z" fill="white"/>
</g>
<defs>
<filter id="filter0_d_453_4183" x="0" y="0" width="176" height="176" filterUnits="userSpaceOnUse" color-interpolation-filters="sRGB">
<feFlood flood-opacity="0" result="BackgroundImageFix"/>
<feColorMatrix in="SourceAlpha" type="matrix" values="0 0 0 0 0 0 0 0 0 0 0 0 0 0 0 0 0 0 127 0" result="hardAlpha"/>
<feOffset/>
<feGaussianBlur stdDeviation="10"/>
<feComposite in2="hardAlpha" operator="out"/>
<feColorMatrix type="matrix" values="0 0 0 0 0.290196 0 0 0 0 0.478431 0 0 0 0 0.698039 0 0 0 0.2 0"/>
<feBlend mode="normal" in2="BackgroundImageFix" result="effect1_dropShadow_453_4183"/>
<feBlend mode="normal" in="SourceGraphic" in2="effect1_dropShadow_453_4183" result="shape"/>
</filter>
</defs>
</svg>
