<svg width="106" height="13" viewBox="0 0 106 13" fill="none" xmlns="http://www.w3.org/2000/svg">
<path d="M6.86668 10.3649C4.64353 10.3649 2.83238 8.58111 2.83238 6.39111C2.83238 4.2011 4.643 2.41679 6.86563 2.41679H7.1182V0H6.86616C3.29174 0 0.380859 2.86826 0.380859 6.39058C0.380859 9.93605 3.29175 12.8043 6.86668 12.8043H7.11873V10.366H6.86668V10.3649Z" fill="#FF4B5F"/>
<path fill-rule="evenodd" clip-rule="evenodd" d="M8.17301 3.45618V0.136658C11.1527 0.723483 13.3754 3.29791 13.3754 6.39134C13.3754 9.5084 11.1517 12.0818 8.17301 12.647V9.32752H6.8664C5.21679 9.32752 3.8877 8.01718 3.8877 6.39236C3.8877 4.76652 5.21679 3.45618 6.86704 3.45618H8.17301ZM20.6863 9.28127C21.3619 9.28333 22.017 9.05209 22.5421 8.62662L23.5735 9.64406C22.8173 10.3203 21.8091 10.7273 20.6863 10.7273C18.2568 10.7273 16.3089 8.76228 16.3089 6.39134C16.3089 4.0204 18.2568 2.07801 20.6863 2.07801C21.7777 2.07493 22.8311 2.47779 23.6424 3.20747L22.6111 4.22286C22.0792 3.75524 21.3946 3.49832 20.6863 3.5014C19.0583 3.5014 17.7527 4.7881 17.7527 6.39134C17.7527 7.99457 19.0588 9.28127 20.6863 9.28127ZM65.9493 6.25568L69.1805 2.41716H70.4639V10.3655H69.1805V4.62983L65.9493 8.37791L62.6721 4.53939V10.3665H61.3655V2.41716H62.6721V2.46238L62.6947 2.41716L65.9493 6.25568ZM28.9822 10.7047C31.3885 10.7047 33.3596 8.78489 33.3596 6.39134C33.3596 4.0204 31.3885 2.07801 28.9822 2.07801C26.5759 2.07801 24.6054 4.0204 24.6054 6.39134C24.6054 8.76228 26.5533 10.7047 28.9822 10.7047ZM28.9596 3.5014C30.5871 3.5014 31.8931 4.7881 31.8931 6.39134C31.8931 7.99457 30.5871 9.28127 28.9596 9.28127C27.3321 9.28127 26.0261 7.99457 26.0261 6.39134C26.0261 4.7881 27.3321 3.5014 28.9596 3.5014ZM55.659 10.7047C58.0653 10.7047 60.0364 8.78489 60.0364 6.39134C60.0364 4.0204 58.0879 2.07801 55.659 2.07801C53.2527 2.07801 51.2817 4.0204 51.2817 6.39134C51.2817 8.76228 53.2296 10.7047 55.659 10.7047ZM55.659 3.5014C57.2865 3.5014 58.5925 4.7881 58.5925 6.39134C58.5925 7.99457 57.2629 9.28127 55.659 9.28127C54.0315 9.28127 52.7255 7.99457 52.7255 6.39134C52.7255 4.7881 54.0315 3.5014 55.659 3.5014ZM49.4936 2.41716H51.259L47.271 6.41395L51.2127 10.3665H49.471L46.1476 7.04599H44.8189V10.3665H43.5356V2.41716H44.8189V5.75929H46.1713L49.4936 2.41716ZM103.879 2.41716H105.619L101.654 6.41395L105.573 10.3665H103.832L100.532 7.04599H99.1797V10.3665H97.8963V2.41716H99.1797V5.75929H100.532L103.879 2.41716ZM88.0649 10.3655H86.6432L85.865 8.65025H81.6933L80.9146 10.3665H79.4939L83.0457 2.41716H84.5121L88.0649 10.3655ZM83.7792 4.04301L82.2669 7.38514H85.292L83.7792 4.04301ZM41.1519 6.39134C41.6192 6.82092 41.8854 7.42727 41.8854 8.0624C41.8854 9.32649 40.8541 10.3665 39.5702 10.3891H34.8498V2.41716H39.5702C40.8451 2.4151 41.8812 3.4459 41.8854 4.72027C41.8854 5.37492 41.5871 5.96278 41.1519 6.39134ZM39.5476 3.70489H36.1558V5.73565H39.5476C40.1206 5.73565 40.5784 5.28449 40.5784 4.72027C40.5784 4.15503 40.1206 3.70489 39.5476 3.70489ZM36.1558 9.10142H39.5476C40.1211 9.10142 40.5789 8.62662 40.6016 8.06343C40.6016 7.7952 40.4893 7.54341 40.3063 7.35739C40.1197 7.16829 39.8595 7.04702 39.5702 7.04702H36.1558V9.10142ZM94.9859 5.75929V2.43977H96.2924V10.3429H94.9859V7.04496H90.2881V10.3429H88.9822V2.43977H90.2881V5.75929H94.9859ZM76.6971 5.75929C77.9806 5.75929 79.035 6.79728 79.035 8.0624C79.035 9.32649 77.9811 10.3665 76.6966 10.3881H71.9988V2.41716H78.2558V3.70386H73.3054V5.75929H76.6971ZM73.3059 9.10142H76.6978C77.2707 9.10142 77.7291 8.62662 77.7291 8.06343C77.7291 7.5208 77.2707 7.04702 76.6978 7.04702H73.3059V9.10142Z" fill="white"/>
</svg>
