<svg width="176" height="176" viewBox="0 0 176 176" fill="none" xmlns="http://www.w3.org/2000/svg">
<g filter="url(#filter0_d_453_4177)">
<rect x="20" y="20" width="136" height="136" rx="30" fill="#E30600"/>
<g clip-path="url(#clip0_453_4177)">
<path fill-rule="evenodd" clip-rule="evenodd" d="M36.2344 90.2944C36.2344 93.6332 38.1047 97 42.293 97C46.4774 97 48.3514 93.6332 48.3514 90.2944C48.3514 88.014 47.5828 85.3881 46.3002 83.2666C45.0527 81.2183 43.5538 80 42.293 80C41.0283 80 39.529 81.2183 38.2924 83.2666C37.0034 85.3881 36.2344 88.014 36.2344 90.2944ZM79.2502 85.009H75.0091V80.9107H88.0348V85.009H83.794L83.7938 96.0893H79.2499L79.2502 85.009ZM97.7264 85.0091H104.391V80.9108H97.7271C91.6035 80.9108 88.3343 83.9617 88.3343 88.5001C88.3343 93.0385 91.6035 96.0894 97.7271 96.0894H104.391V91.9911H97.7264C94.893 91.9911 93.0295 90.9761 93.0295 88.5001C93.0295 86.0241 94.893 85.0091 97.7264 85.0091ZM63.3438 89.9707L65.7662 80.9108H73.7956V96.0894H69.2519V83.7355L65.9488 96.0894H60.7389L57.4378 83.7432V96.0894H52.8939V80.9108H60.9214L63.3438 89.9707ZM112.679 85.3104H111.077V86.7952H112.679C113.085 86.7952 113.327 86.5864 113.327 86.2012V85.9262C113.327 85.5302 113.118 85.3104 112.679 85.3104ZM113.085 88.5001H108.936V80.9106H115.039V82.7256H111.077V83.7154H113.085C114.764 83.7154 115.577 84.5514 115.577 86.0252C115.577 87.5761 114.764 88.5001 113.085 88.5001ZM120.514 85.3982H118.824L119.669 82.5937L120.514 85.3982ZM123.762 88.5001L121.425 80.9108H118.242L115.904 88.5001H117.902L118.33 87.0481H121.008L121.447 88.5001H123.762ZM129.173 88.5001V85.5634H126.725V88.5001H124.53V80.9108H126.725V83.6935H129.173V80.9108H131.368V88.5001H129.173ZM135.264 83.6935H134.88V80.9107H132.685V88.5H134.88V85.5633H135.198L137.229 88.5H139.764L137.021 84.5294L139.545 80.9107H137.229L135.264 83.6935Z" fill="#E30611"/>
</g>
<path d="M34.6055 90.2921C34.6055 93.6354 36.4826 97 40.6759 97C44.8692 97 46.7463 93.6354 46.7463 90.2921C46.7463 88.0113 45.9742 85.3833 44.6921 83.2654C43.4455 81.2183 41.9438 80 40.6759 80C39.408 80 37.9063 81.2183 36.6667 83.2654C35.3776 85.3904 34.6055 88.0113 34.6055 90.2921ZM77.7146 85.0079H73.4646V80.9137H86.5192V85.015H82.2692V96.0933H77.7146V85.0079ZM96.2305 85.0079H102.91V80.9137H96.2305C90.0963 80.9137 86.8167 83.9667 86.8167 88.5C86.8167 93.0404 90.0963 96.0862 96.2305 96.0862H102.91V91.985H96.2305C93.39 91.985 91.5201 90.9721 91.5201 88.4929C91.5201 86.0208 93.39 85.0079 96.2305 85.0079ZM61.7701 89.9733L64.1996 80.9137H72.2463V96.0933H67.6917V83.7329L64.3838 96.0862H59.1634L55.8555 83.74V96.0862H51.3009V80.9137H59.3476L61.7701 89.9733ZM114.25 85.3125H112.643V86.8H114.25C114.654 86.8 114.902 86.5875 114.902 86.205V85.9288C114.895 85.5321 114.69 85.3125 114.25 85.3125ZM114.654 88.5H110.496V80.9137H116.609V82.7271H112.635V83.7188H114.647C116.333 83.7188 117.148 84.5546 117.148 86.0279C117.155 87.5792 116.34 88.5 114.654 88.5ZM122.099 85.3975H120.406L121.256 82.5925L122.099 85.3975ZM125.357 88.5L123.013 80.9137H119.825L117.48 88.5H119.485L119.917 87.0479H122.602L123.041 88.5H125.357ZM130.776 88.5V85.5604H128.325V88.5H126.129V80.9137H128.325V83.6975H130.776V80.9137H132.979V88.5H130.776ZM136.882 83.6904H136.499V80.9137H134.303V88.5H136.499V85.5604H136.818L138.851 88.5H141.394L138.645 84.5262L141.174 80.9067H138.851L136.882 83.6904Z" fill="white"/>
</g>
<defs>
<filter id="filter0_d_453_4177" x="0" y="0" width="176" height="176" filterUnits="userSpaceOnUse" color-interpolation-filters="sRGB">
<feFlood flood-opacity="0" result="BackgroundImageFix"/>
<feColorMatrix in="SourceAlpha" type="matrix" values="0 0 0 0 0 0 0 0 0 0 0 0 0 0 0 0 0 0 127 0" result="hardAlpha"/>
<feOffset/>
<feGaussianBlur stdDeviation="10"/>
<feComposite in2="hardAlpha" operator="out"/>
<feColorMatrix type="matrix" values="0 0 0 0 0.290196 0 0 0 0 0.478431 0 0 0 0 0.698039 0 0 0 0.2 0"/>
<feBlend mode="normal" in2="BackgroundImageFix" result="effect1_dropShadow_453_4177"/>
<feBlend mode="normal" in="SourceGraphic" in2="effect1_dropShadow_453_4177" result="shape"/>
</filter>
<clipPath id="clip0_453_4177">
<rect width="103.53" height="17" fill="white" transform="translate(36.2344 80)"/>
</clipPath>
</defs>
</svg>
