<svg width="106" height="24" viewBox="0 0 106 24" fill="none" xmlns="http://www.w3.org/2000/svg">
<path d="M24.5186 2.71097H29.3748C30.4503 2.70375 31.4856 3.11929 32.2576 3.86807C33.0297 4.61685 33.4768 5.63889 33.5026 6.71409C33.4922 7.80019 33.0521 8.83804 32.2785 9.60048C31.505 10.363 30.461 10.7881 29.3748 10.7828H26.3561V14.0641H24.5186V2.71097ZM29.1976 9.0569C29.5144 9.07009 29.8306 9.01943 30.1274 8.90787C30.4241 8.79631 30.6954 8.62621 30.9251 8.40754C31.1547 8.18895 31.338 7.92632 31.464 7.6354C31.59 7.34449 31.6562 7.03113 31.6586 6.71409C31.6609 6.39568 31.5978 6.08022 31.4734 5.78707C31.3491 5.49399 31.1659 5.22946 30.9352 5.00994C30.7046 4.79036 30.4314 4.62046 30.1326 4.5106C29.8337 4.40075 29.5155 4.35336 29.1976 4.37128H26.3626V9.05034L29.1976 9.0569ZM34.0604 9.91659C34.0338 9.34834 34.1252 8.78075 34.3287 8.24958C34.5322 7.71835 34.8435 7.23502 35.243 6.83005C35.6424 6.42501 36.1214 6.10713 36.6497 5.89627C37.1781 5.68549 37.7443 5.58626 38.3129 5.60503C40.9379 5.60503 42.2504 7.82315 42.2504 10.0413V10.4744H35.9373C36.1867 11.8919 37.4139 12.6925 39.0807 12.6925C40.0066 12.6864 40.9135 12.4302 41.7057 11.951V13.4932C40.8021 14.0559 39.7506 14.3348 38.687 14.2938C36.0948 14.2872 34.0604 12.5678 34.0604 9.91659V9.91659ZM40.4064 9.0569C40.3989 8.78482 40.3368 8.51694 40.2237 8.26934C40.1106 8.02174 39.9488 7.79946 39.7479 7.61578C39.547 7.43203 39.3112 7.29067 39.0545 7.19998C38.7978 7.10935 38.5255 7.07129 38.2539 7.08815C37.6918 7.05186 37.1382 7.23798 36.7121 7.60626C36.2862 7.97462 36.022 8.49561 35.9767 9.0569H40.4064ZM43.8517 5.78878H45.7023V8.99128H49.8892V5.78878H51.7398V14.0444H49.8892V10.5925H45.7023V14.0444H43.8517V5.78878V5.78878ZM53.2754 9.91659C53.2485 9.34834 53.3404 8.78075 53.5438 8.24958C53.7473 7.71835 54.0583 7.23502 54.458 6.83005C54.8576 6.42501 55.3367 6.10713 55.865 5.89627C56.3933 5.68549 56.9596 5.58626 57.5279 5.60503C60.1529 5.60503 61.4654 7.82315 61.4654 10.0413V10.4744H55.1195C55.3689 11.8919 56.596 12.6925 58.2629 12.6925C59.1889 12.6864 60.0958 12.4302 60.8879 11.951V13.4932C59.9842 14.0559 58.9329 14.3348 57.8692 14.2938C55.3098 14.2872 53.2754 12.5678 53.2754 9.91659V9.91659ZM59.6213 9.0569C59.6141 8.78482 59.5518 8.51694 59.4389 8.26934C59.3254 8.02174 59.1639 7.79946 58.9631 7.61578C58.7623 7.43203 58.5261 7.29067 58.2695 7.19998C58.0129 7.10935 57.7405 7.07129 57.4688 7.08815C56.9071 7.05186 56.3532 7.23798 55.9273 7.60626C55.5014 7.97462 55.2369 8.49561 55.1917 9.0569H59.6213ZM62.5154 9.91659C62.5121 9.33377 62.6276 8.75641 62.8547 8.21966C63.0817 7.68291 63.4158 7.19808 63.8364 6.79461C64.2571 6.39122 64.7552 6.07766 65.3012 5.87311C65.8465 5.66862 66.4286 5.5774 67.0107 5.60503C67.8638 5.5837 68.7091 5.77303 69.4717 6.15628V7.69847C68.7885 7.33622 68.0266 7.14695 67.2535 7.14722C66.8755 7.12681 66.4975 7.18311 66.1425 7.31272C65.7868 7.44233 65.4613 7.64255 65.1857 7.90131C64.9094 8.16007 64.6889 8.47205 64.5367 8.81842C64.3844 9.16473 64.3043 9.53833 64.3004 9.91659C64.2997 10.2962 64.3765 10.6721 64.5275 11.0206C64.6778 11.3692 64.8982 11.6831 65.1752 11.9428C65.4521 12.2025 65.7796 12.4025 66.1372 12.5304C66.4949 12.6582 66.8749 12.7112 67.2535 12.686C68.0784 12.7177 68.8942 12.5029 69.5963 12.0691V13.6113C68.7931 14.0542 67.8888 14.2804 66.9713 14.2675C66.3906 14.2852 65.8117 14.1855 65.2697 13.9744C64.7283 13.7633 64.2348 13.4452 63.8187 13.0391C63.4027 12.6329 63.0732 12.1471 62.8488 11.6106C62.625 11.0741 62.5115 10.498 62.5154 9.91659V9.91659ZM70.5216 9.91659C70.5184 9.33377 70.6339 8.75641 70.8609 8.21966C71.088 7.68291 71.422 7.19808 71.8427 6.79461C72.2633 6.39122 72.7614 6.07766 73.3074 5.87311C73.8528 5.66862 74.4349 5.5774 75.017 5.60503C75.8701 5.5837 76.7153 5.77303 77.4779 6.15628V7.69847C76.7947 7.33622 76.0328 7.14695 75.2598 7.14722C74.8818 7.12681 74.5038 7.18311 74.1487 7.31272C73.7931 7.44233 73.4676 7.64255 73.1919 7.90131C72.9156 8.16007 72.6951 8.47205 72.5429 8.81842C72.3906 9.16473 72.3106 9.53833 72.3066 9.91659C72.306 10.2962 72.3828 10.6721 72.5337 11.0206C72.684 11.3692 72.9045 11.6831 73.1814 11.9428C73.4584 12.2025 73.7858 12.4025 74.1435 12.5304C74.5011 12.6582 74.8811 12.7112 75.2598 12.686C76.0847 12.7177 76.9004 12.5029 77.6026 12.0691V13.6113C76.7993 14.0542 75.895 14.2804 74.9776 14.2675C74.3981 14.2797 73.8213 14.1763 73.2825 13.9633C72.7431 13.7503 72.2515 13.4319 71.8368 13.0269C71.422 12.6218 71.0919 12.1381 70.8662 11.6041C70.6404 11.0701 70.523 10.4964 70.5216 9.91659V9.91659ZM87.7023 12.5022V13.8541C87.384 14.0375 87.0191 14.1241 86.6523 14.1035C86.2749 14.1338 85.8982 14.0348 85.5839 13.8224C85.2702 13.61 85.0385 13.2972 84.9263 12.9353C84.5477 13.3589 84.0817 13.6956 83.5607 13.9222C83.0396 14.1487 82.4759 14.2598 81.9076 14.2478C80.1816 14.2478 78.8298 13.2635 78.8298 11.4785C78.8298 9.69347 80.1816 9.07659 81.9732 9.07659H84.8082V8.9519C84.8082 7.5344 83.6401 7.1669 82.4063 7.1669C81.4955 7.18948 80.6049 7.44476 79.8207 7.90847V6.28753C80.7578 5.82501 81.7947 5.59965 82.8395 5.63128C85.0576 5.63128 86.6588 6.68128 86.6588 8.77472V11.8525C86.6477 11.9484 86.6562 12.0455 86.6838 12.1381C86.7113 12.2307 86.7566 12.3168 86.8176 12.3915C86.8787 12.4661 86.9548 12.5277 87.0401 12.5727C87.1254 12.6176 87.2186 12.645 87.3151 12.6532C87.4562 12.6411 87.5907 12.5887 87.7023 12.5022V12.5022ZM84.6835 10.4678H82.531C81.3629 10.4678 80.5623 10.7172 80.5623 11.5178C80.5623 12.4432 81.3629 12.7516 82.3473 12.7516C82.7837 12.7515 83.2155 12.6644 83.6178 12.4954C84.0201 12.3264 84.3849 12.0788 84.6901 11.7672L84.6835 10.4678ZM88.9951 5.78878H90.8457V8.99128H94.9998V5.78878H96.8504V14.0444H94.9998V10.5925H90.8129V14.0444H88.9623L88.9951 5.78878V5.78878ZM98.4188 9.91659C98.4155 9.33377 98.531 8.75641 98.7581 8.21966C98.9852 7.68291 99.3192 7.19808 99.7399 6.79461C100.161 6.39122 100.659 6.07766 101.205 5.87311C101.75 5.66862 102.332 5.5774 102.914 5.60503C103.767 5.5837 104.613 5.77303 105.375 6.15628V7.69847C104.692 7.33622 103.93 7.14695 103.157 7.14722C102.779 7.12681 102.401 7.18311 102.046 7.31272C101.69 7.44233 101.365 7.64255 101.089 7.90131C100.813 8.16007 100.592 8.47205 100.44 8.81842C100.288 9.16473 100.208 9.53833 100.204 9.91659C100.203 10.2962 100.28 10.6721 100.431 11.0206C100.581 11.3692 100.802 11.6831 101.079 11.9428C101.356 12.2025 101.683 12.4025 102.041 12.5304C102.398 12.6582 102.778 12.7112 103.157 12.686C103.982 12.7177 104.798 12.5029 105.5 12.0691V13.6113C104.697 14.0542 103.792 14.2804 102.875 14.2675C102.294 14.2852 101.715 14.1855 101.173 13.9744C100.632 13.7633 100.138 13.4452 99.7221 13.0391C99.3061 12.6329 98.9766 12.1471 98.7522 11.6106C98.5284 11.0741 98.4149 10.498 98.4188 9.91659V9.91659ZM24.5186 18.4806H25.3782V20.0819L26.8548 18.4806H27.9048L26.1789 20.3313L28.2132 22.5494H27.1632L25.4373 20.6922V22.5428H24.5186V18.4806ZM29.3223 18.4806H31.1073C31.2857 18.4514 31.4684 18.4614 31.6425 18.5097C31.8168 18.5581 31.9783 18.6438 32.1162 18.7609C32.254 18.8779 32.3646 19.0235 32.4405 19.1876C32.5165 19.3517 32.5558 19.5303 32.5558 19.7111C32.5558 19.8919 32.5165 20.0705 32.4405 20.2346C32.3646 20.3987 32.254 20.5444 32.1162 20.6614C31.9783 20.7784 31.8168 20.8641 31.6425 20.9125C31.4684 20.9609 31.2857 20.9708 31.1073 20.9416H30.182V22.5428H29.3223V18.4806V18.4806ZM31.0482 20.2066C31.4157 20.2066 31.6651 20.0228 31.6651 19.7144C31.6651 19.406 31.4157 19.2222 31.0482 19.2222H30.182V20.2066H31.0482ZM33.752 18.4806H36.7051V19.2156H34.5526V20.0163H36.2785V20.7578H34.5526V21.8078H36.8298V22.5494H33.752V18.4806ZM37.9454 21.8013H38.3129C38.7537 21.0006 38.9456 20.0866 38.8642 19.1763V18.5594H41.6992V21.8866H42.2504V23.4878H41.4498V22.6675H38.6804V23.4681H37.906V21.8013H37.9454ZM40.8985 21.8013V19.2156H39.7304C39.7674 20.0982 39.6198 20.9789 39.2973 21.8013H40.8985V21.8013ZM43.5498 18.4806H44.4095V21.1056L46.3782 18.4806H47.0935V22.5428H46.3192V19.9178L44.2257 22.5428H43.5695L43.5498 18.4806V18.4806ZM51.6873 18.4806V19.2156H50.3748V22.5428H49.5217V19.2156H48.2092V18.4806H51.6873V18.4806Z" fill="white"/>
<path d="M3.125 18.48H0.5V7.08093C0.510369 5.20616 1.25967 3.41105 2.58536 2.08536C3.91105 0.759681 5.70616 0.0103359 7.58093 0H16.3287V7.02187C16.3287 8.89986 15.5827 10.7009 14.2548 12.0289C12.9269 13.3568 11.1258 14.1028 9.24781 14.1028H4.81156L5.79593 11.4778H9.18218C9.76769 11.4813 10.3481 11.3683 10.8895 11.1455C11.431 10.9226 11.9227 10.5944 12.3362 10.1797C12.7496 9.76506 13.0764 9.27235 13.2977 8.73022C13.5189 8.18809 13.6302 7.60738 13.625 7.02187V2.65125H7.52187C6.9386 2.64862 6.36051 2.76163 5.82113 2.98364C5.2817 3.20565 4.79161 3.53233 4.37916 3.94478C3.9667 4.35723 3.64002 4.84732 3.41801 5.38676C3.19601 5.92613 3.083 6.50416 3.08562 7.0875V18.48H3.125Z" fill="url(#paint0_radial_453_4153)"/>
<defs>
<radialGradient id="paint0_radial_453_4153" cx="0" cy="0" r="1" gradientUnits="userSpaceOnUse" gradientTransform="translate(1.03156 17.7319) scale(15.3234 15.3234)">
<stop stop-color="#D6005E"/>
<stop offset="1" stop-color="#E3448A"/>
</radialGradient>
</defs>
</svg>
