<svg width="108" height="17" viewBox="0 0 108 17" fill="none" xmlns="http://www.w3.org/2000/svg">
<path d="M0.605469 10.2921C0.605469 13.6354 2.48255 17 6.67589 17C10.8692 17 12.7463 13.6354 12.7463 10.2921C12.7463 8.01125 11.9742 5.38333 10.6921 3.26542C9.44547 1.21833 7.9438 0 6.67589 0C5.40797 0 3.9063 1.21833 2.66672 3.26542C1.37755 5.39042 0.605469 8.01125 0.605469 10.2921ZM43.7146 5.00792H39.4646V0.91375H52.5192V5.015H48.2692V16.0933H43.7146V5.00792ZM62.2305 5.00792H68.91V0.91375H62.2305C56.0963 0.91375 52.8167 3.96667 52.8167 8.5C52.8167 13.0404 56.0963 16.0862 62.2305 16.0862H68.91V11.985H62.2305C59.39 11.985 57.5201 10.9721 57.5201 8.49292C57.5201 6.02083 59.39 5.00792 62.2305 5.00792ZM27.7701 9.97333L30.1996 0.91375H38.2463V16.0933H33.6917V3.73292L30.3838 16.0862H25.1634L21.8555 3.74V16.0862H17.3009V0.91375H25.3476L27.7701 9.97333ZM80.2505 5.3125H78.6425V6.8H80.2505C80.6542 6.8 80.9021 6.5875 80.9021 6.205V5.92875C80.8951 5.53208 80.6896 5.3125 80.2505 5.3125ZM80.6542 8.5H76.4963V0.91375H82.6092V2.72708H78.6355V3.71875H80.6471C82.333 3.71875 83.1476 4.55458 83.1476 6.02792C83.1546 7.57917 82.34 8.5 80.6542 8.5ZM88.0988 5.3975H86.4059L87.2559 2.5925L88.0988 5.3975ZM91.3571 8.5L89.0126 0.91375H85.8251L83.4805 8.5H85.4851L85.9171 7.04792H88.6017L89.0409 8.5H91.3571ZM96.7759 8.5V5.56042H94.3251V8.5H92.1292V0.91375H94.3251V3.6975H96.7759V0.91375H98.9788V8.5H96.7759ZM102.882 3.69042H102.499V0.91375H100.303V8.5H102.499V5.56042H102.818L104.851 8.5H107.394L104.645 4.52625L107.174 0.906666H104.851L102.882 3.69042Z" fill="white"/>
</svg>
