<svg width="102" height="21" viewBox="0 0 102 21" fill="none" xmlns="http://www.w3.org/2000/svg">
<path d="M0.193359 17.6375H13.6124V20.4211H0.193359V17.6375ZM97.2368 8.70176L101.468 4.03372H98.3145L94.8473 7.91349V4.03372H92.3347V13.844H94.8596V9.71173L98.567 13.844H101.806L97.2368 8.70176ZM15.0904 9.34839C15.0227 11.1959 14.7887 11.5469 13.7664 11.5469V13.8501H14.1482C16.7162 13.8501 17.3259 12.5261 17.4183 9.57625L17.5291 6.31232H19.9001V13.844H22.4127V4.03372H15.2629L15.0904 9.34839ZM4.18397 11.0358H9.48016L10.3608 13.844H13.2983L9.33852 2.04457C8.9567 0.905278 8.5133 0 6.99834 0C5.48339 0 5.02151 0.905278 4.61506 2.04457L0.464327 13.844H3.22327L4.18397 11.0358V11.0358ZM6.86902 3.07918H6.93676L8.71037 8.67097H4.9784L6.86902 3.07918ZM65.5643 5.42551H62.7623V2.65425H69.2655V0.190909H60.1265V13.844H65.5643C68.5758 13.844 70.3063 12.3413 70.3063 9.59472C70.3063 6.98974 68.5511 5.42551 65.5643 5.42551V5.42551ZM65.435 11.3745H62.7623V7.82727H65.435C66.8268 7.82727 67.6089 8.44311 67.6089 9.60088C67.6089 10.7587 66.8268 11.3745 65.435 11.3745ZM40.586 3.80587V0.172434H38.0796V3.80587C36.7635 3.84928 35.5184 4.41326 34.6177 5.37391C33.7171 6.33461 33.2346 7.61345 33.2761 8.92962C33.2312 10.2485 33.7121 11.5312 34.6129 12.4955C35.5137 13.4599 36.7607 14.0269 38.0796 14.0718V17.7669H40.5922V14.0718C41.2455 14.0504 41.8882 13.9003 42.4833 13.63C43.0785 13.3599 43.6145 12.9749 44.0608 12.4973C44.5069 12.0196 44.8545 11.4586 45.0836 10.8464C45.3127 10.2342 45.4187 9.58284 45.3957 8.92962C45.4221 8.27597 45.3179 7.62362 45.0895 7.01068C44.861 6.39767 44.5128 5.83634 44.0651 5.35937C43.6174 4.88247 43.0791 4.49942 42.4818 4.2327C41.8845 3.96598 41.24 3.82089 40.586 3.80587V3.80587ZM38.0857 11.7009C37.4208 11.6278 36.8111 11.2963 36.3884 10.7779C35.9655 10.2595 35.7634 9.59571 35.8256 8.92962C35.7714 8.26519 35.9764 7.60557 36.3978 7.08901C36.8191 6.57238 37.424 6.23891 38.0857 6.15836V11.7009ZM40.5983 11.7009V6.15836C41.2601 6.23891 41.865 6.57238 42.2863 7.08901C42.7076 7.60557 42.9127 8.26519 42.8585 8.92962C42.9174 9.59503 42.7141 10.2571 42.2919 10.7748C41.8697 11.2925 41.262 11.6248 40.5983 11.7009ZM54.8118 10.8326V7.52551C54.8118 5.11144 53.2784 3.60264 50.7042 3.60264C48.13 3.60264 46.6274 5.20381 46.5042 6.87273H49.0476C49.1338 6.51554 49.5156 5.88123 50.6981 5.88123C50.9191 5.85278 51.1433 5.87606 51.3533 5.94934C51.5639 6.02263 51.7542 6.14376 51.9094 6.30333C52.0646 6.46283 52.181 6.65632 52.2487 6.86842C52.3165 7.08057 52.3337 7.30554 52.2992 7.52551H49.8359C47.6066 7.52551 46.2825 8.70176 46.2825 10.6478C46.2651 11.1122 46.3454 11.5751 46.5183 12.0065C46.6911 12.4379 46.9526 12.8281 47.2858 13.152C47.619 13.476 48.0165 13.7263 48.4527 13.8869C48.8887 14.0475 49.3537 14.1146 49.8174 14.0842C50.3409 14.1117 50.8631 14.0098 51.3379 13.7875C51.8127 13.5651 52.2253 13.2292 52.5394 12.8094C52.7439 13.1552 53.0419 13.4359 53.3997 13.619C53.7569 13.8021 54.159 13.8801 54.5593 13.844H55.4277V11.5777C55.0027 11.5777 54.8118 11.3745 54.8118 10.8326V10.8326ZM52.2992 10.2167C52.3097 10.4593 52.2684 10.7013 52.1779 10.9268C52.088 11.1522 51.9513 11.3561 51.777 11.5248C51.6021 11.6936 51.3939 11.8234 51.1655 11.9058C50.937 11.9881 50.6937 12.0211 50.4517 12.0026C49.5464 12.0026 48.8321 11.6762 48.8321 10.6971C48.8321 9.71789 49.6265 9.57625 50.2978 9.57625H52.2992V10.2167V10.2167ZM28.6696 7.01437H26.8652V4.03372H24.3526V13.844H28.7127C31.4409 13.844 32.4077 12.0704 32.4077 10.3953C32.42 8.23372 31.0652 7.01437 28.6696 7.01437ZM28.4849 11.7009H26.8652V9.23754H28.4849C29.3532 9.23754 29.8766 9.63167 29.8766 10.4692C29.8766 11.3067 29.3778 11.7009 28.4849 11.7009V11.7009ZM79.8948 10.8326V7.52551C79.8948 5.11144 78.3614 3.60264 75.7872 3.60264C73.213 3.60264 71.7104 5.20381 71.5872 6.87273H74.1306C74.2168 6.51554 74.5986 5.88123 75.781 5.88123C76.0021 5.85278 76.2263 5.87606 76.4363 5.94934C76.6469 6.02263 76.8372 6.14376 76.9924 6.30333C77.1476 6.46283 77.264 6.65632 77.3317 6.86842C77.3995 7.08057 77.4167 7.30554 77.3822 7.52551H74.9189C72.6895 7.52551 71.3655 8.70176 71.3655 10.6478C71.3483 11.1122 71.4283 11.5751 71.6014 12.0065C71.7738 12.4379 72.0355 12.8281 72.3687 13.152C72.7019 13.476 73.0997 13.7263 73.5357 13.8869C73.9717 14.0475 74.4367 14.1146 74.9004 14.0842C75.4288 14.1169 75.9572 14.0175 76.4381 13.795C76.9185 13.5724 77.336 13.2337 77.6532 12.8094C77.8546 13.1491 78.1471 13.426 78.4975 13.6087C78.8479 13.7915 79.242 13.873 79.6362 13.844H80.5045V11.5777C80.0673 11.5777 79.8948 11.3745 79.8948 10.8326ZM77.3945 10.2167C77.4038 10.459 77.3619 10.7006 77.2714 10.9256C77.1808 11.1506 77.0441 11.354 76.8698 11.5226C76.6956 11.6911 76.4874 11.821 76.2595 11.9037C76.0317 11.9864 75.789 12.0201 75.547 12.0026C74.6417 12.0026 73.9274 11.6762 73.9274 10.6971C73.9274 9.71789 74.7218 9.57625 75.3931 9.57625H77.3945V10.2167V10.2167ZM87.9192 7.68563H84.452V4.03372H81.9394V13.8501H84.452V9.9827H87.9192V13.844H90.4318V4.03372H87.9192V7.68563Z" fill="white"/>
</svg>
