<svg width="176" height="176" viewBox="0 0 176 176" fill="none" xmlns="http://www.w3.org/2000/svg">
<g filter="url(#filter0_d_453_4173)">
<rect x="20" y="20" width="136" height="136" rx="30" fill="#003791"/>
<path d="M41.8667 92.3649C39.6435 92.3649 37.8324 90.5811 37.8324 88.3911C37.8324 86.2011 39.643 84.4168 41.8656 84.4168H42.1182V82H41.8662C38.2917 82 35.3809 84.8683 35.3809 88.3906C35.3809 91.9361 38.2917 94.8043 41.8667 94.8043H42.1187V92.366H41.8667V92.3649Z" fill="#FF4B5F"/>
<path fill-rule="evenodd" clip-rule="evenodd" d="M43.173 85.4562V82.1367C46.1527 82.7235 48.3754 85.2979 48.3754 88.3913C48.3754 91.5084 46.1517 94.0818 43.173 94.647V91.3275H41.8664C40.2168 91.3275 38.8877 90.0172 38.8877 88.3924C38.8877 86.7665 40.2168 85.4562 41.867 85.4562H43.173ZM55.6863 91.2813C56.3619 91.2833 57.017 91.0521 57.5421 90.6266L58.5735 91.6441C57.8173 92.3203 56.8091 92.7273 55.6863 92.7273C53.2568 92.7273 51.3089 90.7623 51.3089 88.3913C51.3089 86.0204 53.2568 84.078 55.6863 84.078C56.7777 84.0749 57.8311 84.4778 58.6424 85.2075L57.6111 86.2229C57.0792 85.7552 56.3946 85.4983 55.6863 85.5014C54.0583 85.5014 52.7527 86.7881 52.7527 88.3913C52.7527 89.9946 54.0588 91.2813 55.6863 91.2813ZM100.949 88.2557L104.181 84.4172H105.464V92.3655H104.181V86.6298L100.949 90.3779L97.6721 86.5394V92.3665H96.3655V84.4172H97.6721V84.4624L97.6947 84.4172L100.949 88.2557ZM63.9822 92.7047C66.3885 92.7047 68.3596 90.7849 68.3596 88.3913C68.3596 86.0204 66.3885 84.078 63.9822 84.078C61.5759 84.078 59.6054 86.0204 59.6054 88.3913C59.6054 90.7623 61.5533 92.7047 63.9822 92.7047ZM63.9596 85.5014C65.5871 85.5014 66.8931 86.7881 66.8931 88.3913C66.8931 89.9946 65.5871 91.2813 63.9596 91.2813C62.3321 91.2813 61.0261 89.9946 61.0261 88.3913C61.0261 86.7881 62.3321 85.5014 63.9596 85.5014ZM90.659 92.7047C93.0653 92.7047 95.0364 90.7849 95.0364 88.3913C95.0364 86.0204 93.0879 84.078 90.659 84.078C88.2527 84.078 86.2817 86.0204 86.2817 88.3913C86.2817 90.7623 88.2296 92.7047 90.659 92.7047ZM90.659 85.5014C92.2865 85.5014 93.5925 86.7881 93.5925 88.3913C93.5925 89.9946 92.2629 91.2813 90.659 91.2813C89.0315 91.2813 87.7255 89.9946 87.7255 88.3913C87.7255 86.7881 89.0315 85.5014 90.659 85.5014ZM84.4936 84.4172H86.259L82.271 88.4139L86.2127 92.3665H84.471L81.1476 89.046H79.8189V92.3665H78.5355V84.4172H79.8189V87.7593H81.1713L84.4936 84.4172ZM138.879 84.4172H140.619L136.654 88.4139L140.573 92.3665H138.832L135.532 89.046H134.18V92.3665H132.896V84.4172H134.18V87.7593H135.532L138.879 84.4172ZM123.065 92.3655H121.643L120.865 90.6503H116.693L115.915 92.3665H114.494L118.046 84.4172H119.512L123.065 92.3655ZM118.779 86.043L117.267 89.3851H120.292L118.779 86.043ZM76.1519 88.3913C76.6192 88.8209 76.8854 89.4273 76.8854 90.0624C76.8854 91.3265 75.8541 92.3665 74.5702 92.3891H69.8498V84.4172H74.5702C75.8451 84.4151 76.8812 85.4459 76.8854 86.7203C76.8854 87.3749 76.5871 87.9628 76.1519 88.3913ZM74.5476 85.7049H71.1558V87.7357H74.5476C75.1206 87.7357 75.5784 87.2845 75.5784 86.7203C75.5784 86.155 75.1206 85.7049 74.5476 85.7049ZM71.1558 91.1014H74.5476C75.1211 91.1014 75.5789 90.6266 75.6016 90.0634C75.6016 89.7952 75.4893 89.5434 75.3063 89.3574C75.1197 89.1683 74.8595 89.047 74.5702 89.047H71.1558V91.1014ZM129.986 87.7593V84.4398H131.292V92.3429H129.986V89.045H125.288V92.3429H123.982V84.4398H125.288V87.7593H129.986ZM111.697 87.7593C112.981 87.7593 114.035 88.7973 114.035 90.0624C114.035 91.3265 112.981 92.3665 111.697 92.3881H106.999V84.4172H113.256V85.7039H108.305V87.7593H111.697ZM108.306 91.1014H111.698C112.271 91.1014 112.729 90.6266 112.729 90.0634C112.729 89.5208 112.271 89.047 111.698 89.047H108.306V91.1014Z" fill="white"/>
</g>
<defs>
<filter id="filter0_d_453_4173" x="0" y="0" width="176" height="176" filterUnits="userSpaceOnUse" color-interpolation-filters="sRGB">
<feFlood flood-opacity="0" result="BackgroundImageFix"/>
<feColorMatrix in="SourceAlpha" type="matrix" values="0 0 0 0 0 0 0 0 0 0 0 0 0 0 0 0 0 0 127 0" result="hardAlpha"/>
<feOffset/>
<feGaussianBlur stdDeviation="10"/>
<feComposite in2="hardAlpha" operator="out"/>
<feColorMatrix type="matrix" values="0 0 0 0 0.290196 0 0 0 0 0.478431 0 0 0 0 0.698039 0 0 0 0.2 0"/>
<feBlend mode="normal" in2="BackgroundImageFix" result="effect1_dropShadow_453_4173"/>
<feBlend mode="normal" in="SourceGraphic" in2="effect1_dropShadow_453_4173" result="shape"/>
</filter>
</defs>
</svg>
