<svg width="104" height="20" viewBox="0 0 104 20" fill="none" xmlns="http://www.w3.org/2000/svg">
<path fill-rule="evenodd" clip-rule="evenodd" d="M0.484375 9.98028C0.484375 4.47298 5.03643 0.00651561 10.6538 0V3.6064C7.06636 3.61128 4.16269 6.46351 4.16269 9.98028C4.16269 13.4971 7.0746 16.3574 10.6687 16.3574C14.2628 16.3574 17.1714 13.5297 17.1714 9.95748L20.8514 9.96077C20.8514 15.4942 16.2944 19.9638 10.6687 19.9638C5.04304 19.9638 0.484375 15.4925 0.484375 9.98028ZM6.17423 9.98016C6.17423 7.53517 8.19919 5.55282 10.6916 5.55282C13.184 5.55282 15.2106 7.53517 15.2106 9.98016C15.2106 12.4251 13.1856 14.4075 10.6916 14.4075C8.19751 14.4075 6.17423 12.4268 6.17423 9.98016ZM16.413 1.83437C14.9843 1.83437 13.8248 2.96972 13.8248 4.37221C13.8248 5.77307 14.9827 6.91165 16.413 6.91165C17.8434 6.91165 19.0029 5.7747 19.0029 4.37221C19.0029 2.96972 17.8417 1.83437 16.413 1.83437Z" fill="#222222"/>
<path fill-rule="evenodd" clip-rule="evenodd" d="M70.8731 11.9022C70.4307 13.5995 69.2014 16.5332 65.424 16.5332C62.7501 16.5332 61.2833 15.1731 61.2833 12.4951C61.2833 12.0118 61.344 11.534 61.4122 11.0568C62.139 6.61641 64.1028 2.40895 68.4119 2.3666C68.985 2.36008 70.1512 2.30144 70.9426 2.11737L70.6548 3.89125C69.8576 4.0916 68.5935 4.19586 67.8556 4.20074C66.9405 4.21051 66.3075 4.55096 65.8683 4.9647C65.5198 5.29276 65.2722 5.69597 65.0576 6.11959C65.634 5.94367 66.2631 5.83291 66.9721 5.83291C70.5737 5.83291 71.6589 8.89049 70.8731 11.9005V11.9022ZM68.7822 11.2881C69.1748 9.69357 69.1885 7.27124 66.9721 7.27124C63.8171 7.27124 63.4124 12.0765 63.4124 12.8046C63.4124 14.3814 64.377 15.072 65.464 15.072C67.6141 15.072 68.4171 12.9056 68.7803 11.2881H68.7822ZM92.5729 10.4477L92.5719 10.4523L92.5715 10.4542L92.5713 10.4547L92.5711 10.4555L92.5709 10.4567C92.1441 12.3346 91.8691 13.5447 91.3839 16.0302L91.2423 16.1475L89.2055 16.2061L89.1063 16.0693L89.9273 12.6959L90.1669 11.5898C89.2911 11.5702 88.416 11.5556 87.5409 11.5556C86.857 11.5556 86.3367 11.5637 85.8048 11.5784C85.5041 12.906 85.2549 14.0723 84.8698 16.0286L84.7275 16.1458L82.6881 16.2045L82.589 16.0677L83.732 11.225C84.2703 8.91025 84.3708 8.40205 84.6914 6.26491L84.8338 6.12808C85.77 6.0108 85.9916 5.97008 86.9491 5.77461L87.0534 5.91144L86.8371 6.88389L86.5267 8.39715L86.2008 9.83057C86.9362 9.84854 87.671 9.85994 88.4109 9.85994C89.1307 9.85994 89.8503 9.84251 90.57 9.82896C90.8508 8.57469 90.9647 7.89056 91.2107 6.26491L91.3511 6.12808C92.2906 6.0108 92.5108 5.97008 93.4716 5.77461L93.5708 5.91144C93.2397 7.42201 92.9166 8.93545 92.5729 10.4477ZM96.7995 10.0844L96.7962 10.0861L97.7061 5.91605L97.607 5.77922C96.6456 5.97468 96.4279 6.01541 95.4865 6.13269L95.3461 6.26952C95.0254 8.40669 94.925 8.91489 94.386 11.2295L93.2468 16.0723L93.3454 16.2092L95.3873 16.1505L95.5258 16.0332C96.0216 13.51 96.292 12.2949 96.7331 10.3662C97.6839 12.2534 98.6818 14.1283 99.513 16.0723L99.6734 16.1896L101.895 16.1293L102.013 15.9746L98.9116 10.1887L101.515 7.83654C102.175 7.25968 102.858 6.71018 103.515 6.13106L103.457 5.95514H101.155L100.934 6.07079C99.6112 7.45608 98.2604 8.84266 96.7995 10.0844ZM82.9406 5.99104L82.9403 5.99059L82.9406 5.98941V5.99104ZM82.9403 5.99059L82.8414 5.83303L80.0667 5.81511C78.2173 5.81511 75.6254 5.93076 73.7561 8.07769C72.9118 9.05828 72.1488 10.7491 72.1488 12.3014C72.1488 14.7578 73.8185 16.1749 75.8669 16.1749C76.953 16.1749 77.9562 15.8509 78.802 15.1732L78.6616 15.9583L78.7601 16.0984L80.6482 16.0577L80.7918 15.9192C81.1917 13.5768 81.3353 12.8324 82.0372 9.80429L82.9403 5.99059ZM79.1008 13.6599C78.8812 13.8326 78.6597 14.0329 78.4382 14.1665C77.9166 14.4825 77.2327 14.621 76.6911 14.621C74.8611 14.621 74.3388 13.1077 74.3388 12.1646C74.3388 12.0685 74.3787 9.53062 76.4877 8.11839C77.6751 7.33162 78.9816 7.29253 79.6443 7.29253C79.9463 7.29253 80.2451 7.31043 80.5477 7.31043L79.0988 13.6599H79.1008ZM33.3948 10.7228C32.9307 12.7362 32.2138 14.2999 30.6843 14.2999H30.6827C28.9633 14.2999 29.0624 12.5928 29.4952 10.7228C29.9593 8.70784 30.6563 7.22883 32.2304 7.22883C34.077 7.22883 33.7235 9.30568 33.3948 10.7228ZM25.7921 10.8678C24.6541 15.8001 27.7923 16.4777 29.9709 16.4777C33.4526 16.4777 36.0524 14.9352 37.0137 10.7652L37.016 10.7546C37.3401 9.26469 38.248 5.09167 32.891 5.09167C27.5214 5.09167 26.2165 9.01571 25.7921 10.8678ZM42.7343 16.2318C41.7251 16.2318 40.0701 16.2318 39.3748 16.2513L39.2559 16.1292C39.4491 15.4711 39.9215 13.7021 40.417 11.5438C40.7231 10.2167 41.0514 8.89245 41.3155 7.55623C40.4715 7.57581 39.1716 7.57581 38.539 7.59693L38.4234 7.45359C38.5902 6.91935 38.8248 5.99573 38.9718 5.44192L39.165 5.33604C39.7266 5.35559 41.8606 5.37677 43.5783 5.37677C45.6562 5.37677 47.6778 5.33604 48.1023 5.31487L48.246 5.42075C48.0917 5.90804 47.8216 6.90696 47.6821 7.42297L47.6795 7.43247L47.4813 7.55623C46.6505 7.53833 46.0196 7.53833 44.8221 7.53833C44.7928 7.66444 44.746 7.8595 44.682 8.12696L44.6818 8.1276L44.6818 8.12786C44.5183 8.8105 44.242 9.96425 43.8541 11.6464C43.4479 13.417 43.1126 15.0378 42.9193 16.0656L42.736 16.2318H42.7343ZM54.3874 7.80378L54.3858 7.80217C55.0151 7.80217 55.7634 7.82336 56.1003 7.82336C55.9566 8.4407 55.5932 10.1054 55.2348 11.6676C54.7591 13.7249 54.3544 15.3896 54.1695 16.1063L54.2619 16.253C55.1258 16.2334 56.7841 16.2334 57.6842 16.2334L57.8395 16.1079C57.9552 15.5118 58.4028 13.3958 58.8916 11.2782C59.4978 8.64921 60.1288 6.0006 60.2774 5.44515L60.1816 5.31809C59.0436 5.33926 56.9113 5.40117 54.7095 5.40117C51.9 5.40117 50.7554 5.35881 49.6223 5.35881L49.4456 5.50378C49.297 6.14069 48.8394 8.40323 48.3093 10.7017C47.7823 12.9853 47.2323 15.2854 47.016 16.1307L47.1332 16.253C48.1887 16.2334 49.5084 16.2334 50.5357 16.2334L50.7339 16.1079C50.8876 15.3489 51.2823 13.5392 51.7282 11.6073C52.1049 9.96376 52.5161 8.27779 52.6201 7.82497C52.9571 7.82497 53.7136 7.80378 54.3874 7.80378Z" fill="#222222"/>
</svg>
