<svg width="106" height="32" viewBox="0 0 106 32" fill="none" xmlns="http://www.w3.org/2000/svg">
<path fill-rule="evenodd" clip-rule="evenodd" d="M49.8015 13.2877C50.8257 13.2877 51.7668 13.3705 52.4865 13.6474C54.0091 14.229 54.9779 15.53 54.9779 17.412C54.9779 19.2672 53.9538 20.6788 52.4313 21.26C51.7113 21.5368 50.7427 21.6476 49.4416 21.6476H40.085V8.47107H53.8983V11.5159H44.0988V13.2877H49.8015ZM49.5799 18.3259C49.9675 18.3259 50.272 18.298 50.4935 18.2151C50.9641 18.049 51.1578 17.6335 51.1578 17.2459C51.1578 17.0997 51.1341 16.9648 51.0867 16.8451C51.0583 16.7736 51.0214 16.7074 50.976 16.6468C50.8965 16.5413 50.791 16.4537 50.6596 16.3879C50.6193 16.3681 50.5773 16.3501 50.5337 16.3345C50.4635 16.3094 50.3889 16.29 50.3098 16.2744C50.0987 16.2327 49.8554 16.2218 49.5799 16.2218H44.0988V18.3259H49.5799ZM60.3639 8.47107H66.2323L71.6305 21.6476H67.1182L66.3431 19.7376H60.2531L59.5058 21.6476H54.9658L60.3639 8.47107ZM63.1598 11.5159L61.2496 16.8309H65.3743L63.4642 11.5159H63.1598ZM76.797 16.7481V21.6476H72.7833V8.47107H76.797V13.2877H83.2469V8.47107H87.261V21.6476H83.2469V16.7481H76.797ZM93.6143 21.6476V16.6648H94.7215L99.5105 21.6476H104.853L98.1818 14.7827L104.604 8.47107H99.566L94.7215 13.4264H93.6143V8.47107H89.6003V21.6476H93.6143Z" fill="white"/>
<path d="M0.555664 0H32.5557V16.0937C32.5557 20.2194 30.3548 24.0318 26.782 26.0949L16.5557 32L6.32941 26.0949C2.75657 24.0318 0.555664 20.2194 0.555664 16.0937V0Z" fill="#FFDD2D"/>
<path fill-rule="evenodd" clip-rule="evenodd" d="M9.33789 8.47107V13.4765C10.0224 12.7036 11.2669 12.1805 12.6898 12.1805H14.2361V17.9993C14.2361 19.5474 13.8155 20.9024 13.1914 21.6477H19.9176C19.2948 20.9016 18.8752 19.5483 18.8752 18.0023V12.1805H20.4215C21.8445 12.1805 23.0889 12.7036 23.7735 13.4765V8.47107H9.33789Z" fill="#333333"/>
</svg>
