<svg width="176" height="176" viewBox="0 0 176 176" fill="none" xmlns="http://www.w3.org/2000/svg">
<g filter="url(#filter0_d_453_4158)">
<rect x="20" y="20" width="136" height="136" rx="30" fill="#1E60FC"/>
<g clip-path="url(#clip0_453_4158)">
<path d="M74.9675 83.1466C75.4757 81.2585 77.185 79.9619 79.1715 79.9619H87.1174C87.4177 79.9619 87.6718 80.1893 87.6718 80.4851V95.3624C87.6718 95.6581 87.4177 95.8856 87.1174 95.8856H84.9692C84.6689 95.8856 84.438 95.6581 84.438 95.3624V83.6698C84.438 83.3741 84.1839 83.1466 83.8836 83.1466H78.8481C78.5247 83.1466 78.2475 83.3513 78.1782 83.6698L74.9906 95.3624C74.8982 95.6809 74.621 95.8856 74.2976 95.8856H72.0339C71.8953 95.8856 71.7799 95.8173 71.7106 95.7264C71.6182 95.6354 71.5951 95.4989 71.6413 95.3624L74.9675 83.1466Z" fill="white"/>
<path d="M89.5283 92.7008V83.1466C89.5283 81.395 90.9835 79.9619 92.7621 79.9619H102.464C104.242 79.9619 105.697 81.395 105.697 83.1466V92.7008C105.697 94.4525 104.242 95.8856 102.464 95.8856H92.7621C90.9835 95.8856 89.5283 94.4525 89.5283 92.7008ZM93.2934 92.7008H101.932C102.233 92.7008 102.464 92.4734 102.464 92.1776V83.6698C102.464 83.3741 102.233 83.1466 101.932 83.1466H93.2934C92.9931 83.1466 92.7621 83.3741 92.7621 83.6698V92.1776C92.7621 92.4734 92.9931 92.7008 93.2934 92.7008Z" fill="white"/>
<path d="M108.003 95.3624V80.4851C108.003 80.1893 108.234 79.9619 108.534 79.9619H110.706C111.006 79.9619 111.237 80.1893 111.237 80.4851V85.8081C111.237 86.1039 111.468 86.3313 111.768 86.3313H113.778C114.124 86.3313 114.447 86.1949 114.655 85.9219L119.552 80.3713C119.76 80.0983 120.084 79.9619 120.43 79.9619H123.641C123.733 79.9619 123.826 80.0074 123.849 80.0983C123.895 80.1893 123.872 80.2803 123.826 80.3713L117.543 87.5143C117.335 87.7417 117.335 88.1057 117.543 88.3332L123.826 95.4761C123.872 95.5671 123.895 95.6581 123.849 95.7491C123.826 95.8401 123.733 95.8856 123.641 95.8856H120.43C120.084 95.8856 119.76 95.7491 119.552 95.4761L114.655 89.9256C114.447 89.6526 114.124 89.5161 113.778 89.5161H111.768C111.468 89.5161 111.237 89.7436 111.237 90.0393V95.3624C111.237 95.6581 111.006 95.8856 110.706 95.8856H108.534C108.234 95.8856 108.003 95.6581 108.003 95.3624Z" fill="white"/>
<path d="M124.831 92.7008V83.1466C124.831 81.395 126.286 79.9619 128.065 79.9619H137.766C139.545 79.9619 141 81.395 141 83.1466V92.7008C141 94.4525 139.545 95.8856 137.766 95.8856H128.065C126.286 95.8856 124.831 94.4525 124.831 92.7008ZM128.596 92.7008H137.235C137.535 92.7008 137.766 92.4734 137.766 92.1776V83.6698C137.766 83.3741 137.535 83.1466 137.235 83.1466H128.596C128.296 83.1466 128.065 83.3741 128.065 83.6698V92.1776C128.065 92.4734 128.296 92.7008 128.596 92.7008Z" fill="white"/>
</g>
<g clip-path="url(#clip1_453_4158)">
<path d="M50.9228 103.848C59.7172 103.848 66.8465 96.7182 66.8465 87.9238C66.8465 79.1294 59.7172 72.0001 50.9228 72.0001C42.1283 72.0001 34.999 79.1294 34.999 87.9238C34.999 96.7182 42.1283 103.848 50.9228 103.848Z" fill="#1E60FC"/>
<path fill-rule="evenodd" clip-rule="evenodd" d="M50.9227 103.848C59.7172 103.848 66.8464 96.7182 66.8464 87.9238C66.8464 79.1293 59.7172 72 50.9227 72C42.1283 72 34.999 79.1293 34.999 87.9238C34.999 96.7182 42.1283 103.848 50.9227 103.848ZM60.1546 92.1643L52.9569 80.8077C52.0112 79.3157 49.8343 79.3158 48.8887 80.8077L41.6909 92.1643C41.034 93.2008 41.3417 94.5735 42.3782 95.2304C43.4147 95.8873 44.7875 95.5797 45.4444 94.5432L50.9227 85.8995L56.4012 94.5432C57.0581 95.5797 58.4309 95.8873 59.4674 95.2304C60.5038 94.5735 60.8115 93.2008 60.1546 92.1643Z" fill="white"/>
</g>
</g>
<defs>
<filter id="filter0_d_453_4158" x="0" y="0" width="176" height="176" filterUnits="userSpaceOnUse" color-interpolation-filters="sRGB">
<feFlood flood-opacity="0" result="BackgroundImageFix"/>
<feColorMatrix in="SourceAlpha" type="matrix" values="0 0 0 0 0 0 0 0 0 0 0 0 0 0 0 0 0 0 127 0" result="hardAlpha"/>
<feOffset/>
<feGaussianBlur stdDeviation="10"/>
<feComposite in2="hardAlpha" operator="out"/>
<feColorMatrix type="matrix" values="0 0 0 0 0.290196 0 0 0 0 0.478431 0 0 0 0 0.698039 0 0 0 0.2 0"/>
<feBlend mode="normal" in2="BackgroundImageFix" result="effect1_dropShadow_453_4158"/>
<feBlend mode="normal" in="SourceGraphic" in2="effect1_dropShadow_453_4158" result="shape"/>
</filter>
<clipPath id="clip0_453_4158">
<rect width="69.382" height="15.9237" fill="white" transform="translate(71.6182 79.9619)"/>
</clipPath>
<clipPath id="clip1_453_4158">
<rect width="31.8475" height="31.8475" fill="white" transform="translate(35 72)"/>
</clipPath>
</defs>
</svg>
