<svg width="106" height="17" viewBox="0 0 106 17" fill="none" xmlns="http://www.w3.org/2000/svg">
<path fill-rule="evenodd" clip-rule="evenodd" d="M8.03949 6.39952e-06H8.03795C5.96341 -0.00260557 3.93777 0.846534 2.45544 2.32296C0.0927107 4.66625 -0.650063 8.37591 0.60047 11.4915C1.38105 13.4363 2.88916 15.0457 4.77225 15.9088C6.77267 16.8254 9.09428 16.8571 11.1174 15.9913C13.0229 15.1759 14.5679 13.611 15.3966 11.6824C16.0496 10.163 16.2427 8.45308 15.9601 6.82099L14.2276 8.13931C14.2276 9.09324 14.0735 10.0244 13.6956 10.9024C13.0575 12.3847 11.8706 13.5886 10.4059 14.2163C8.84907 14.8835 7.06789 14.8592 5.52742 14.1523C4.07848 13.4874 2.92127 12.2525 2.31944 10.7552C1.67438 9.15029 1.69709 7.30554 2.3805 5.71784C3.01811 4.23664 4.20449 3.03334 5.66948 2.4054C7.58773 1.58318 9.81018 1.81859 11.527 3.03478L13.0919 1.84371C11.677 0.660607 9.86918 -0.00237617 8.03949 6.39952e-06ZM14.4069 3.23001C14.7892 3.74043 15.1129 4.29497 15.3714 4.88248L8.03962 10.4632L4.97549 8.47984V6.09377L8.03962 8.07712L14.4069 3.23001Z" fill="white"/>
<path d="M47.3997 5.09993L49.6377 3.41976H42.2169V13.3807H49.6377V11.7006H44.3372V9.18033H48.8132V7.50017H44.3372V5.09993H47.3997ZM38.1532 5.09993L40.3912 3.41976H31.9104V13.3807H36.3275C38.8011 13.3807 40.2145 12.2406 40.2145 10.2604C40.2145 8.34025 38.9188 7.32015 36.5631 7.32015H33.9717V5.09993H38.1532ZM36.2686 8.94031C37.6232 8.94031 38.2121 9.42036 38.2121 10.3204C38.2121 11.2205 37.5643 11.7006 36.2686 11.7006H34.0306V8.94031H36.2686ZM55.586 3.41976H51.5812V13.3807H53.7014V10.5605H55.6449C58.2363 10.5605 59.8265 9.18033 59.8265 6.96011C59.8265 4.73989 58.1774 3.41976 55.586 3.41976ZM55.586 8.8803H53.7014V5.03992H55.586C56.9406 5.03992 57.7063 5.69999 57.7063 6.96011C57.6474 8.22024 56.9406 8.8803 55.586 8.8803ZM28.3178 11.2205C27.7289 11.5206 27.1399 11.7006 26.4921 11.7006C24.6074 11.7006 23.194 10.3204 23.194 8.40026C23.194 6.48007 24.5485 5.09993 26.4921 5.09993C27.1988 5.09993 27.8466 5.33995 28.4356 5.69999L29.9669 4.55988L29.8491 4.43986C28.9656 3.65979 27.7878 3.23975 26.4332 3.23975C24.9608 3.23975 23.6651 3.71979 22.6639 4.67989C21.7216 5.63998 21.1326 6.96011 21.1915 8.34025C21.1915 9.72039 21.7216 11.0405 22.6639 12.0606C23.6651 13.0207 25.0197 13.5608 26.3743 13.5008C27.9055 13.5008 29.2012 12.9607 30.1435 12.0006L28.789 10.9805L28.3178 11.2205ZM91.8652 7.50017H87.3303V3.41976H85.2101V13.3807H87.3303V9.30034H91.8652V13.3807H93.9854V3.41976H91.8652V7.50017ZM77.5538 3.41976L73.3134 13.3807H75.4336L76.2581 11.4006H80.7341L81.5586 13.3807H83.7966L79.674 3.41976H77.5538ZM76.9648 9.72039L78.6139 5.69999L80.1451 9.72039H76.9648ZM101.642 8.22024L105.47 3.41976H103.055L99.8749 7.68018H98.697V3.41976H96.5768V13.3807H98.697V9.36035H100.052L103.291 13.3807H106L101.642 8.22024ZM68.8963 7.32015H66.3049V5.09993H71.841V3.41976H64.1847V13.3807H68.6018C71.0754 13.3807 72.4888 12.2406 72.4888 10.2604C72.5477 8.34025 71.252 7.32015 68.8963 7.32015ZM68.5429 11.7606H66.3049V9.00031H68.5429C69.8975 9.00031 70.4864 9.48036 70.4864 10.3804C70.5453 11.2805 69.8386 11.7606 68.5429 11.7606Z" fill="white"/>
</svg>
