<svg width="468" height="406" viewBox="0 0 468 406" fill="none" xmlns="http://www.w3.org/2000/svg">
<g opacity="0.6">
<mask id="mask0_453_4428" style="mask-type:alpha" maskUnits="userSpaceOnUse" x="0" y="-181" width="697" height="769">
<rect width="460.349" height="627.541" transform="matrix(0.889013 0.457881 0.457881 -0.889013 0 376.892)" fill="url(#paint0_linear_453_4428)"/>
</mask>
<g mask="url(#mask0_453_4428)">
<path d="M495.452 296.693C556.95 174.275 516.679 27.427 405.514 -31.2738C393.855 -37.4304 381.838 -42.3947 369.653 -46.1863C455.506 21.7906 481.985 150.906 426.926 260.508C371.866 370.109 253.987 422.936 150.131 390.797C160.217 398.766 171.137 405.914 182.797 412.07C293.962 470.771 433.954 419.111 495.452 296.693Z" fill="#A3D9FF"/>
<g filter="url(#filter0_f_453_4428)">
<path d="M487.838 292.672C549.336 170.254 516.679 27.427 405.514 -31.2738C393.855 -37.4304 381.838 -42.3947 369.653 -46.1863C455.506 21.7906 489.599 154.926 434.54 264.528C379.48 374.13 253.987 422.936 150.131 390.797C160.217 398.766 171.137 405.914 182.797 412.07C293.962 470.771 426.34 415.09 487.838 292.672Z" fill="#A3D9FF"/>
</g>
<g filter="url(#filter1_f_453_4428)">
<path d="M484.03 290.662C545.528 168.244 510.972 19.6094 399.807 -39.0915C388.148 -45.2481 376.131 -50.2124 363.946 -54.004C449.799 13.9729 493.405 156.937 438.346 266.539C383.286 376.141 244.231 417.185 140.375 385.046C150.461 393.014 161.382 400.162 173.041 406.319C284.206 465.02 422.533 413.08 484.03 290.662Z" fill="#A3D9FF"/>
</g>
<g filter="url(#filter2_f_453_4428)">
<path d="M484.03 290.662C545.528 168.244 510.972 19.6094 399.807 -39.0915C388.148 -45.2481 376.131 -50.2124 363.946 -54.004C449.799 13.9729 493.405 156.937 438.346 266.539C383.286 376.141 244.231 417.185 140.375 385.046C150.461 393.014 161.382 400.162 173.041 406.319C284.206 465.02 422.533 413.08 484.03 290.662Z" fill="#A3D9FF"/>
</g>
<g filter="url(#filter3_f_453_4428)">
<path d="M484.03 290.662C545.528 168.244 510.972 19.6094 399.807 -39.0915C388.148 -45.2481 376.131 -50.2124 363.946 -54.004C449.799 13.9729 493.405 156.937 438.346 266.539C383.286 376.141 244.231 417.185 140.375 385.046C150.461 393.014 161.382 400.162 173.041 406.319C284.206 465.02 422.533 413.08 484.03 290.662Z" fill="#A3D9FF"/>
</g>
<g filter="url(#filter4_f_453_4428)">
<path d="M467.026 271.774C528.524 149.356 510.972 19.6094 399.807 -39.0915C388.148 -45.2481 376.131 -50.2124 363.946 -54.004C449.799 13.9729 507.333 160.375 450.719 273.072C379.783 414.277 244.231 417.185 140.375 385.046C150.461 393.014 161.382 400.162 173.041 406.319C284.206 465.02 405.528 394.192 467.026 271.774Z" fill="#A3D9FF"/>
</g>
<g filter="url(#filter5_f_453_4428)">
<path d="M467.026 271.774C528.524 149.356 533.239 9.446 422.073 -49.2549C410.414 -55.4115 358.205 -48.6871 346.02 -52.4787C431.873 15.4981 507.333 160.376 450.719 273.073C379.784 414.278 239.201 399.034 135.344 366.894C140.9 355.835 137.211 410.522 148.87 416.679C260.036 475.38 405.529 394.192 467.026 271.774Z" fill="#A3D9FF"/>
</g>
<g filter="url(#filter6_f_453_4428)">
<path d="M467.026 271.774C528.524 149.356 533.239 9.446 422.073 -49.2549C410.414 -55.4115 358.205 -48.6871 346.02 -52.4787C431.873 15.4981 507.333 160.376 450.719 273.073C379.784 414.278 239.201 399.034 135.344 366.894C140.9 355.835 137.211 410.522 148.87 416.679C260.036 475.38 405.529 394.192 467.026 271.774Z" fill="#A3D9FF"/>
</g>
<g filter="url(#filter7_f_453_4428)">
<path d="M467.026 271.774C528.524 149.356 533.239 9.446 422.073 -49.2549C410.414 -55.4115 358.205 -48.6871 346.02 -52.4787C431.873 15.4981 507.333 160.376 450.719 273.073C379.784 414.278 239.201 399.034 135.344 366.894C140.9 355.835 137.211 410.522 148.87 416.679C260.036 475.38 405.529 394.192 467.026 271.774Z" fill="#A3D9FF"/>
</g>
</g>
</g>
<defs>
<filter id="filter0_f_453_4428" x="135.031" y="-61.2865" width="398.602" height="511.929" filterUnits="userSpaceOnUse" color-interpolation-filters="sRGB">
<feFlood flood-opacity="0" result="BackgroundImageFix"/>
<feBlend mode="normal" in="SourceGraphic" in2="BackgroundImageFix" result="shape"/>
<feGaussianBlur stdDeviation="7.55" result="effect1_foregroundBlur_453_4428"/>
</filter>
<filter id="filter1_f_453_4428" x="95.075" y="-99.3039" width="464.455" height="575.091" filterUnits="userSpaceOnUse" color-interpolation-filters="sRGB">
<feFlood flood-opacity="0" result="BackgroundImageFix"/>
<feBlend mode="normal" in="SourceGraphic" in2="BackgroundImageFix" result="shape"/>
<feGaussianBlur stdDeviation="22.65" result="effect1_foregroundBlur_453_4428"/>
</filter>
<filter id="filter2_f_453_4428" x="74.9417" y="-119.437" width="504.722" height="615.357" filterUnits="userSpaceOnUse" color-interpolation-filters="sRGB">
<feFlood flood-opacity="0" result="BackgroundImageFix"/>
<feBlend mode="normal" in="SourceGraphic" in2="BackgroundImageFix" result="shape"/>
<feGaussianBlur stdDeviation="32.7167" result="effect1_foregroundBlur_453_4428"/>
</filter>
<filter id="filter3_f_453_4428" x="74.9417" y="-119.437" width="504.722" height="615.357" filterUnits="userSpaceOnUse" color-interpolation-filters="sRGB">
<feFlood flood-opacity="0" result="BackgroundImageFix"/>
<feBlend mode="normal" in="SourceGraphic" in2="BackgroundImageFix" result="shape"/>
<feGaussianBlur stdDeviation="32.7167" result="effect1_foregroundBlur_453_4428"/>
</filter>
<filter id="filter4_f_453_4428" x="-15.6583" y="-210.037" width="673.785" height="793.356" filterUnits="userSpaceOnUse" color-interpolation-filters="sRGB">
<feFlood flood-opacity="0" result="BackgroundImageFix"/>
<feBlend mode="normal" in="SourceGraphic" in2="BackgroundImageFix" result="shape"/>
<feGaussianBlur stdDeviation="78.0167" result="effect1_foregroundBlur_453_4428"/>
</filter>
<filter id="filter5_f_453_4428" x="39.7104" y="-148.112" width="566.112" height="679.929" filterUnits="userSpaceOnUse" color-interpolation-filters="sRGB">
<feFlood flood-opacity="0" result="BackgroundImageFix"/>
<feBlend mode="normal" in="SourceGraphic" in2="BackgroundImageFix" result="shape"/>
<feGaussianBlur stdDeviation="47.8167" result="effect1_foregroundBlur_453_4428"/>
</filter>
<filter id="filter6_f_453_4428" x="-71.0229" y="-258.845" width="787.579" height="901.395" filterUnits="userSpaceOnUse" color-interpolation-filters="sRGB">
<feFlood flood-opacity="0" result="BackgroundImageFix"/>
<feBlend mode="normal" in="SourceGraphic" in2="BackgroundImageFix" result="shape"/>
<feGaussianBlur stdDeviation="103.183" result="effect1_foregroundBlur_453_4428"/>
</filter>
<filter id="filter7_f_453_4428" x="-171.69" y="-359.512" width="988.912" height="1102.73" filterUnits="userSpaceOnUse" color-interpolation-filters="sRGB">
<feFlood flood-opacity="0" result="BackgroundImageFix"/>
<feBlend mode="normal" in="SourceGraphic" in2="BackgroundImageFix" result="shape"/>
<feGaussianBlur stdDeviation="153.517" result="effect1_foregroundBlur_453_4428"/>
</filter>
<linearGradient id="paint0_linear_453_4428" x1="230.174" y1="0" x2="230.174" y2="627.541" gradientUnits="userSpaceOnUse">
<stop stop-color="#C4C4C4" stop-opacity="0"/>
<stop offset="0.380208" stop-color="#C4C4C4"/>
<stop offset="0.578125" stop-color="#C4C4C4"/>
<stop offset="1" stop-color="#C4C4C4" stop-opacity="0"/>
</linearGradient>
</defs>
</svg>
