<svg width="370" height="439" viewBox="0 0 370 439" fill="none" xmlns="http://www.w3.org/2000/svg">
<g opacity="0.6">
<path d="M300.995 -54.3746C210.384 -102.585 100.317 -73.6673 55.1742 10.2083C50.4396 19.0051 46.5904 28.0884 43.6142 37.3128C95.3745 -27.1997 192.042 -45.8334 273.167 -2.67046C354.291 40.4925 392.292 130.778 367.058 209.404C373.126 201.824 378.591 193.601 383.326 184.804C428.469 100.929 391.606 -6.1644 300.995 -54.3746Z" fill="#A3D9FF"/>
<g filter="url(#filter0_f_493_734)">
<path d="M297.903 -48.6297C207.292 -96.8398 100.317 -73.6673 55.1742 10.2083C50.4396 19.0051 46.5904 28.0884 43.6142 37.3128C95.3745 -27.1997 195.134 -51.5783 276.259 -8.41535C357.383 34.7476 392.292 130.778 367.058 209.404C373.126 201.824 378.591 193.601 383.326 184.804C428.469 100.929 388.514 -0.419493 297.903 -48.6297Z" fill="#A3D9FF"/>
</g>
<g filter="url(#filter1_f_493_734)">
<path d="M296.358 -45.7564C205.748 -93.9666 94.4161 -69.4171 49.2729 14.4585C44.5383 23.2553 40.689 32.3385 37.7129 41.563C89.4732 -22.9495 196.682 -54.45 277.806 -11.287C358.931 31.8759 387.884 138.132 362.65 216.758C368.718 209.178 374.183 200.955 378.918 192.158C424.061 108.283 386.969 2.45371 296.358 -45.7564Z" fill="#A3D9FF"/>
</g>
<g filter="url(#filter2_f_493_734)">
<path d="M296.358 -45.7564C205.748 -93.9666 94.4161 -69.4171 49.2729 14.4585C44.5383 23.2553 40.689 32.3385 37.7129 41.563C89.4732 -22.9495 196.682 -54.45 277.806 -11.287C358.931 31.8759 387.884 138.132 362.65 216.758C368.718 209.178 374.183 200.955 378.918 192.158C424.061 108.283 386.969 2.45371 296.358 -45.7564Z" fill="#A3D9FF"/>
</g>
<g filter="url(#filter3_f_493_734)">
<path d="M296.358 -45.7564C205.748 -93.9666 94.4161 -69.4171 49.2729 14.4585C44.5383 23.2553 40.689 32.3385 37.7129 41.563C89.4732 -22.9495 196.682 -54.45 277.806 -11.287C358.931 31.8759 387.884 138.132 362.65 216.758C368.718 209.178 374.183 200.955 378.918 192.158C424.061 108.283 386.969 2.45371 296.358 -45.7564Z" fill="#A3D9FF"/>
</g>
<g filter="url(#filter4_f_493_734)">
<path d="M282.058 -33.0424C191.448 -81.2525 94.4161 -69.4171 49.2729 14.4585C44.5383 23.2553 40.689 32.3385 37.7129 41.563C89.4732 -22.9495 199.415 -65.0044 282.831 -20.6225C387.347 34.9862 387.884 138.132 362.65 216.758C368.718 209.178 374.183 200.955 378.918 192.158C424.061 108.283 372.669 15.1678 282.058 -33.0424Z" fill="#A3D9FF"/>
</g>
<g filter="url(#filter5_f_493_734)">
<path d="M282.057 -33.0424C191.447 -81.2525 87.099 -86.4733 41.9558 -2.59772C37.2211 6.19916 41.6101 45.9925 38.6339 55.2169C90.3942 -9.29557 199.414 -65.0044 282.83 -20.6225C387.346 34.9862 374.277 141.747 349.043 220.373C340.857 216.017 381.622 219.462 386.356 210.665C431.5 126.79 372.668 15.1678 282.057 -33.0424Z" fill="#A3D9FF"/>
</g>
<g filter="url(#filter6_f_493_734)">
<path d="M282.057 -33.0424C191.447 -81.2525 87.099 -86.4733 41.9558 -2.59772C37.2211 6.19916 41.6101 45.9925 38.6339 55.2169C90.3942 -9.29557 199.414 -65.0044 282.83 -20.6225C387.346 34.9862 374.277 141.747 349.043 220.373C340.857 216.017 381.622 219.462 386.356 210.665C431.5 126.79 372.668 15.1678 282.057 -33.0424Z" fill="#A3D9FF"/>
</g>
<g filter="url(#filter7_f_493_734)">
<path d="M282.057 -33.0424C191.447 -81.2525 87.099 -86.4733 41.9558 -2.59772C37.2211 6.19916 41.6101 45.9925 38.6339 55.2169C90.3942 -9.29557 199.414 -65.0044 282.83 -20.6225C387.346 34.9862 374.277 141.747 349.043 220.373C340.857 216.017 381.622 219.462 386.356 210.665C431.5 126.79 372.668 15.1678 282.057 -33.0424Z" fill="#A3D9FF"/>
</g>
</g>
<defs>
<filter id="filter0_f_493_734" x="32.0593" y="-85.0315" width="381.483" height="305.989" filterUnits="userSpaceOnUse" color-interpolation-filters="sRGB">
<feFlood flood-opacity="0" result="BackgroundImageFix"/>
<feBlend mode="normal" in="SourceGraphic" in2="BackgroundImageFix" result="shape"/>
<feGaussianBlur stdDeviation="5.77699" result="effect1_foregroundBlur_493_734"/>
</filter>
<filter id="filter1_f_493_734" x="3.05093" y="-104.889" width="429.756" height="356.308" filterUnits="userSpaceOnUse" color-interpolation-filters="sRGB">
<feFlood flood-opacity="0" result="BackgroundImageFix"/>
<feBlend mode="normal" in="SourceGraphic" in2="BackgroundImageFix" result="shape"/>
<feGaussianBlur stdDeviation="17.331" result="effect1_foregroundBlur_493_734"/>
</filter>
<filter id="filter2_f_493_734" x="-12.3544" y="-120.294" width="460.566" height="387.119" filterUnits="userSpaceOnUse" color-interpolation-filters="sRGB">
<feFlood flood-opacity="0" result="BackgroundImageFix"/>
<feBlend mode="normal" in="SourceGraphic" in2="BackgroundImageFix" result="shape"/>
<feGaussianBlur stdDeviation="25.0336" result="effect1_foregroundBlur_493_734"/>
</filter>
<filter id="filter3_f_493_734" x="-12.3544" y="-120.294" width="460.566" height="387.119" filterUnits="userSpaceOnUse" color-interpolation-filters="sRGB">
<feFlood flood-opacity="0" result="BackgroundImageFix"/>
<feBlend mode="normal" in="SourceGraphic" in2="BackgroundImageFix" result="shape"/>
<feGaussianBlur stdDeviation="25.0336" result="effect1_foregroundBlur_493_734"/>
</filter>
<filter id="filter4_f_493_734" x="-81.6783" y="-180.732" width="596.642" height="516.881" filterUnits="userSpaceOnUse" color-interpolation-filters="sRGB">
<feFlood flood-opacity="0" result="BackgroundImageFix"/>
<feBlend mode="normal" in="SourceGraphic" in2="BackgroundImageFix" result="shape"/>
<feGaussianBlur stdDeviation="59.6956" result="effect1_foregroundBlur_493_734"/>
</filter>
<filter id="filter5_f_493_734" x="-34.5405" y="-140.984" width="509.61" height="434.532" filterUnits="userSpaceOnUse" color-interpolation-filters="sRGB">
<feFlood flood-opacity="0" result="BackgroundImageFix"/>
<feBlend mode="normal" in="SourceGraphic" in2="BackgroundImageFix" result="shape"/>
<feGaussianBlur stdDeviation="36.5876" result="effect1_foregroundBlur_493_734"/>
</filter>
<filter id="filter6_f_493_734" x="-119.27" y="-225.714" width="679.069" height="603.991" filterUnits="userSpaceOnUse" color-interpolation-filters="sRGB">
<feFlood flood-opacity="0" result="BackgroundImageFix"/>
<feBlend mode="normal" in="SourceGraphic" in2="BackgroundImageFix" result="shape"/>
<feGaussianBlur stdDeviation="78.9522" result="effect1_foregroundBlur_493_734"/>
</filter>
<filter id="filter7_f_493_734" x="-196.296" y="-302.74" width="833.122" height="758.044" filterUnits="userSpaceOnUse" color-interpolation-filters="sRGB">
<feFlood flood-opacity="0" result="BackgroundImageFix"/>
<feBlend mode="normal" in="SourceGraphic" in2="BackgroundImageFix" result="shape"/>
<feGaussianBlur stdDeviation="117.466" result="effect1_foregroundBlur_493_734"/>
</filter>
</defs>
</svg>
