<svg width="657" height="450" viewBox="0 0 657 450" fill="none" xmlns="http://www.w3.org/2000/svg">
<g opacity="0.6">
<mask id="mask0_453_3848" style="mask-type:alpha" maskUnits="userSpaceOnUse" x="0" y="-406" width="802" height="1045">
<rect width="727.52" height="991.745" transform="matrix(0.997067 0.0765371 0.0765371 -0.997067 0 582.835)" fill="url(#paint0_linear_453_3848)"/>
</mask>
<g mask="url(#mask0_453_3848)">
<path d="M667.768 151.215C684.013 -60.4207 537.431 -244.273 340.396 -259.398C319.731 -260.985 299.259 -260.658 279.244 -258.562C444.974 -214.721 560.853 -47.5878 546.308 141.891C531.763 331.37 391.739 478.777 221.254 496.892C240.714 502.018 260.897 505.466 281.562 507.052C478.597 522.177 651.522 362.85 667.768 151.215Z" fill="#A3D9FF"/>
<g filter="url(#filter0_f_453_3848)">
<path d="M654.272 150.179C670.518 -61.4567 537.431 -244.273 340.396 -259.398C319.731 -260.985 299.259 -260.658 279.244 -258.562C444.973 -214.721 574.348 -46.5518 559.803 142.927C545.258 332.406 391.739 478.777 221.254 496.892C240.714 502.018 260.897 505.466 281.562 507.052C478.597 522.177 638.027 361.814 654.272 150.179Z" fill="#A3D9FF"/>
</g>
<g filter="url(#filter1_f_453_3848)">
<path d="M647.524 149.662C663.77 -61.9735 524.439 -251.873 327.404 -266.998C306.739 -268.584 286.267 -268.257 266.252 -266.162C431.981 -222.321 581.095 -46.0327 566.551 143.446C552.006 332.925 374.089 476.598 203.604 494.713C223.064 499.839 243.247 503.286 263.912 504.873C460.947 519.998 631.278 361.297 647.524 149.662Z" fill="#A3D9FF"/>
</g>
<g filter="url(#filter2_f_453_3848)">
<path d="M647.524 149.662C663.77 -61.9735 524.439 -251.873 327.404 -266.998C306.739 -268.584 286.267 -268.257 266.252 -266.162C431.981 -222.321 581.095 -46.0327 566.551 143.446C552.006 332.925 374.089 476.598 203.604 494.713C223.064 499.839 243.247 503.286 263.912 504.873C460.947 519.998 631.278 361.297 647.524 149.662Z" fill="#A3D9FF"/>
</g>
<g filter="url(#filter3_f_453_3848)">
<path d="M647.524 149.662C663.77 -61.9735 524.439 -251.873 327.404 -266.998C306.739 -268.584 286.267 -268.257 266.252 -266.162C431.981 -222.321 581.095 -46.0327 566.551 143.446C552.006 332.925 374.089 476.598 203.604 494.713C223.064 499.839 243.247 503.286 263.912 504.873C460.947 519.998 631.278 361.297 647.524 149.662Z" fill="#A3D9FF"/>
</g>
<g filter="url(#filter4_f_453_3848)">
<path d="M611.451 133.273C627.696 -78.3625 524.439 -251.873 327.404 -266.998C306.739 -268.584 286.267 -268.257 266.252 -266.162C431.981 -222.321 603.436 -49.7004 588.481 145.13C569.742 389.244 374.089 476.598 203.604 494.713C223.064 499.839 243.247 503.286 263.912 504.873C460.947 519.998 595.205 344.908 611.451 133.273Z" fill="#A3D9FF"/>
</g>
<g filter="url(#filter5_f_453_3848)">
<path d="M611.45 133.273C627.696 -78.3621 550.777 -279.98 353.742 -295.105C333.077 -296.691 261.075 -255.085 241.06 -252.989C406.789 -209.148 603.436 -49.7001 588.481 145.13C569.742 389.244 355.892 453.905 185.407 472.02C186.875 452.9 214.252 532.841 234.917 534.427C431.952 549.552 595.205 344.909 611.45 133.273Z" fill="#A3D9FF"/>
</g>
<g filter="url(#filter6_f_453_3848)">
<path d="M611.45 133.273C627.696 -78.3621 550.777 -279.98 353.742 -295.105C333.077 -296.691 261.075 -255.085 241.06 -252.989C406.789 -209.148 603.436 -49.7001 588.481 145.13C569.742 389.244 355.892 453.905 185.407 472.02C186.875 452.9 214.252 532.841 234.917 534.427C431.952 549.552 595.205 344.909 611.45 133.273Z" fill="#A3D9FF"/>
</g>
<g filter="url(#filter7_f_453_3848)">
<path d="M611.45 133.273C627.696 -78.3621 550.777 -279.98 353.742 -295.105C333.077 -296.691 261.075 -255.085 241.06 -252.989C406.789 -209.148 603.436 -49.7001 588.481 145.13C569.742 389.244 355.892 453.905 185.407 472.02C186.875 452.9 214.252 532.841 234.917 534.427C431.952 549.552 595.205 344.909 611.45 133.273Z" fill="#A3D9FF"/>
</g>
</g>
</g>
<defs>
<filter id="filter0_f_453_3848" x="206.154" y="-275.495" width="464.557" height="798.635" filterUnits="userSpaceOnUse" color-interpolation-filters="sRGB">
<feFlood flood-opacity="0" result="BackgroundImageFix"/>
<feBlend mode="normal" in="SourceGraphic" in2="BackgroundImageFix" result="shape"/>
<feGaussianBlur stdDeviation="7.55" result="effect1_foregroundBlur_453_3848"/>
</filter>
<filter id="filter1_f_453_3848" x="158.304" y="-313.295" width="535.807" height="864.465" filterUnits="userSpaceOnUse" color-interpolation-filters="sRGB">
<feFlood flood-opacity="0" result="BackgroundImageFix"/>
<feBlend mode="normal" in="SourceGraphic" in2="BackgroundImageFix" result="shape"/>
<feGaussianBlur stdDeviation="22.65" result="effect1_foregroundBlur_453_3848"/>
</filter>
<filter id="filter2_f_453_3848" x="138.17" y="-333.428" width="576.074" height="904.732" filterUnits="userSpaceOnUse" color-interpolation-filters="sRGB">
<feFlood flood-opacity="0" result="BackgroundImageFix"/>
<feBlend mode="normal" in="SourceGraphic" in2="BackgroundImageFix" result="shape"/>
<feGaussianBlur stdDeviation="32.7167" result="effect1_foregroundBlur_453_3848"/>
</filter>
<filter id="filter3_f_453_3848" x="138.17" y="-333.428" width="576.074" height="904.732" filterUnits="userSpaceOnUse" color-interpolation-filters="sRGB">
<feFlood flood-opacity="0" result="BackgroundImageFix"/>
<feBlend mode="normal" in="SourceGraphic" in2="BackgroundImageFix" result="shape"/>
<feGaussianBlur stdDeviation="32.7167" result="effect1_foregroundBlur_453_3848"/>
</filter>
<filter id="filter4_f_453_3848" x="47.5702" y="-424.028" width="721.578" height="1085.85" filterUnits="userSpaceOnUse" color-interpolation-filters="sRGB">
<feFlood flood-opacity="0" result="BackgroundImageFix"/>
<feBlend mode="normal" in="SourceGraphic" in2="BackgroundImageFix" result="shape"/>
<feGaussianBlur stdDeviation="78.0167" result="effect1_foregroundBlur_453_3848"/>
</filter>
<filter id="filter5_f_453_3848" x="89.7739" y="-390.782" width="619.416" height="1021.63" filterUnits="userSpaceOnUse" color-interpolation-filters="sRGB">
<feFlood flood-opacity="0" result="BackgroundImageFix"/>
<feBlend mode="normal" in="SourceGraphic" in2="BackgroundImageFix" result="shape"/>
<feGaussianBlur stdDeviation="47.8167" result="effect1_foregroundBlur_453_3848"/>
</filter>
<filter id="filter6_f_453_3848" x="-20.9594" y="-501.516" width="840.883" height="1243.1" filterUnits="userSpaceOnUse" color-interpolation-filters="sRGB">
<feFlood flood-opacity="0" result="BackgroundImageFix"/>
<feBlend mode="normal" in="SourceGraphic" in2="BackgroundImageFix" result="shape"/>
<feGaussianBlur stdDeviation="103.183" result="effect1_foregroundBlur_453_3848"/>
</filter>
<filter id="filter7_f_453_3848" x="-121.626" y="-602.182" width="1042.22" height="1444.43" filterUnits="userSpaceOnUse" color-interpolation-filters="sRGB">
<feFlood flood-opacity="0" result="BackgroundImageFix"/>
<feBlend mode="normal" in="SourceGraphic" in2="BackgroundImageFix" result="shape"/>
<feGaussianBlur stdDeviation="153.517" result="effect1_foregroundBlur_453_3848"/>
</filter>
<linearGradient id="paint0_linear_453_3848" x1="363.76" y1="0" x2="363.76" y2="991.745" gradientUnits="userSpaceOnUse">
<stop stop-color="#C4C4C4" stop-opacity="0"/>
<stop offset="0.380208" stop-color="#C4C4C4"/>
<stop offset="0.578125" stop-color="#C4C4C4"/>
<stop offset="1" stop-color="#C4C4C4" stop-opacity="0"/>
</linearGradient>
</defs>
</svg>
