<svg width="128" height="120" viewBox="0 0 128 120" fill="none" xmlns="http://www.w3.org/2000/svg">
<g opacity="0.3">
<path d="M120.086 105.592H113.022V63.6727H98.8942V105.592H84.7664V63.6727H70.6387V105.592H56.511V63.6727H42.3832V105.592H28.2555V63.6727H14.1277V105.592H7.06387C5.19042 105.592 3.39369 106.328 2.06895 107.638C0.744222 108.948 0 110.725 0 112.578C0 114.431 0.744222 116.208 2.06895 117.519C3.39369 118.829 5.19042 119.565 7.06387 119.565H120.086C121.959 119.565 123.756 118.829 125.081 117.519C126.405 116.208 127.15 114.431 127.15 112.578C127.15 110.725 126.405 108.948 125.081 107.638C123.756 106.328 121.959 105.592 120.086 105.592Z" fill="url(#paint0_linear_493_1083)"/>
<path d="M123.243 29.4734L66.7324 1.52725C65.7519 1.04267 64.6709 0.790405 63.5748 0.790405C62.4788 0.790405 61.3977 1.04267 60.4173 1.52725L3.90632 29.4734C2.73207 30.0537 1.74456 30.9462 1.05457 32.0507C0.364571 33.1552 -0.000610932 34.428 7.67219e-07 35.7263V42.7129C7.67219e-07 44.5658 0.744223 46.3429 2.06896 47.6531C3.39369 48.9633 5.19042 49.6994 7.06387 49.6994H120.086C121.959 49.6994 123.756 48.9633 125.081 47.6531C126.405 46.3429 127.15 44.5658 127.15 42.7129V35.7263C127.15 34.428 126.785 33.1552 126.095 32.0507C125.405 30.9462 124.418 30.0537 123.243 29.4734Z" fill="url(#paint1_linear_493_1083)"/>
</g>
<defs>
<linearGradient id="paint0_linear_493_1083" x1="36.6778" y1="26.7723" x2="132.755" y2="62.1423" gradientUnits="userSpaceOnUse">
<stop stop-color="#7FC0FB"/>
<stop offset="1" stop-color="#4088F4"/>
</linearGradient>
<linearGradient id="paint1_linear_493_1083" x1="36.6778" y1="26.7723" x2="132.755" y2="62.1423" gradientUnits="userSpaceOnUse">
<stop stop-color="#7FC0FB"/>
<stop offset="1" stop-color="#4088F4"/>
</linearGradient>
</defs>
</svg>
