<svg width="133" height="125" viewBox="0 0 133 125" fill="none" xmlns="http://www.w3.org/2000/svg">
<g opacity="0.3">
<path d="M125.47 109.5H118.089V65.7015H103.328V109.5H88.5669V65.7015H73.8057V109.5H59.0446V65.7015H44.2834V109.5H29.5223V65.7015H14.7611V109.5H7.38057C5.42312 109.5 3.54584 110.269 2.16171 111.638C0.777588 113.007 0 114.864 0 116.8C0 118.736 0.777588 120.593 2.16171 121.962C3.54584 123.331 5.42312 124.1 7.38057 124.1H125.47C127.427 124.1 129.304 123.331 130.689 121.962C132.073 120.593 132.85 118.736 132.85 116.8C132.85 114.864 132.073 113.007 130.689 111.638C129.304 110.269 127.427 109.5 125.47 109.5Z" fill="url(#paint0_linear_453_4744)"/>
<path d="M128.769 29.969L69.7243 0.769877C68.6999 0.263576 67.5704 0 66.4252 0C65.28 0 64.1505 0.263576 63.126 0.769877L4.08145 29.969C2.85456 30.5753 1.82278 31.5078 1.10185 32.6619C0.380916 33.8159 -0.000638323 35.1457 8.01617e-07 36.5023V43.802C8.01617e-07 45.7381 0.777589 47.5948 2.16172 48.9638C3.54584 50.3327 5.42312 51.1018 7.38057 51.1018H125.47C127.427 51.1018 129.304 50.3327 130.689 48.9638C132.073 47.5948 132.85 45.7381 132.85 43.802V36.5023C132.851 35.1457 132.469 33.8159 131.748 32.6619C131.028 31.5078 129.996 30.5753 128.769 29.969Z" fill="url(#paint1_linear_453_4744)"/>
</g>
<defs>
<linearGradient id="paint0_linear_453_4744" x1="38.3222" y1="27.1468" x2="138.707" y2="64.1025" gradientUnits="userSpaceOnUse">
<stop stop-color="#7FC0FB"/>
<stop offset="1" stop-color="#4088F4"/>
</linearGradient>
<linearGradient id="paint1_linear_453_4744" x1="38.3222" y1="27.1468" x2="138.707" y2="64.1025" gradientUnits="userSpaceOnUse">
<stop stop-color="#7FC0FB"/>
<stop offset="1" stop-color="#4088F4"/>
</linearGradient>
</defs>
</svg>
