<svg width="23" height="22" viewBox="0 0 23 22" fill="none" xmlns="http://www.w3.org/2000/svg">
<path d="M19.3332 10.8504C19.3332 11.8581 19.1347 12.856 18.7491 13.7869C18.3635 14.7179 17.7983 15.5638 17.0857 16.2764C16.3732 16.9889 15.5273 17.5542 14.5963 17.9398C13.6653 18.3254 12.6675 18.5239 11.6598 18.5239C10.6521 18.5239 9.65426 18.3254 8.72327 17.9398C7.79229 17.5542 6.94637 16.9889 6.23383 16.2764C5.52128 15.5638 4.95606 14.7179 4.57043 13.7869C4.18481 12.856 3.98633 11.8581 3.98633 10.8504H7.22252C7.22252 11.4332 7.3373 12.0102 7.56029 12.5485C7.78328 13.0869 8.11013 13.576 8.52216 13.9881C8.9342 14.4001 9.42336 14.7269 9.96171 14.9499C10.5001 15.1729 11.0771 15.2877 11.6598 15.2877C12.2425 15.2877 12.8195 15.1729 13.3578 14.9499C13.8962 14.7269 14.3853 14.4001 14.7974 13.9881C15.2094 13.576 15.5363 13.0869 15.7593 12.5485C15.9822 12.0102 16.097 11.4332 16.097 10.8504H19.3332Z" fill="url(#paint0_radial_453_3970)"/>
<path d="M3.98742 10.9071C3.97548 9.28668 4.47684 7.70407 5.41965 6.3861L8.05173 8.26895C7.50654 9.03108 7.21662 9.94624 7.22353 10.8833L3.98742 10.9071Z" fill="url(#paint1_linear_453_3970)"/>
<path d="M5.41726 6.3884C6.35949 5.07003 7.69491 4.08378 9.23212 3.57103L10.2561 6.64094C9.36723 6.93745 8.59501 7.50775 8.05015 8.27012L5.41726 6.3884Z" fill="url(#paint2_linear_453_3970)"/>
<path d="M9.20161 3.58163C10.7366 3.06235 12.3966 3.04236 13.9437 3.52451L12.9808 6.61414C12.0862 6.33533 11.1263 6.34689 10.2387 6.64717L9.20161 3.58163Z" fill="url(#paint3_linear_453_3970)"/>
<circle cx="16.7229" cy="6.94633" r="1.68583" fill="#A3D9FF"/>
<defs>
<radialGradient id="paint0_radial_453_3970" cx="0" cy="0" r="1" gradientUnits="userSpaceOnUse" gradientTransform="translate(17.3567 10.8504) rotate(-180) scale(13.3704)">
<stop stop-color="#D9D9D9" stop-opacity="0"/>
<stop offset="1" stop-color="#4D85FF"/>
</radialGradient>
<linearGradient id="paint1_linear_453_3970" x1="6.16716" y1="4.42698" x2="6.92288" y2="11.1122" gradientUnits="userSpaceOnUse">
<stop stop-color="#A3D9FF"/>
<stop offset="1" stop-color="#5C8FFD"/>
</linearGradient>
<linearGradient id="paint2_linear_453_3970" x1="11.6242" y1="2.39798" x2="7.87732" y2="7.98578" gradientUnits="userSpaceOnUse">
<stop stop-color="#A3D9FF"/>
<stop offset="1" stop-color="#5C8FFD"/>
</linearGradient>
<linearGradient id="paint3_linear_453_3970" x1="17.1777" y1="4.44711" x2="10.6842" y2="6.20698" gradientUnits="userSpaceOnUse">
<stop stop-color="#A3D9FF"/>
<stop offset="1" stop-color="#5C8FFD"/>
</linearGradient>
</defs>
</svg>
