<svg width="159" height="156" viewBox="0 0 159 156" fill="none" xmlns="http://www.w3.org/2000/svg">
<g opacity="0.3">
<path d="M157.722 137.648H148.444V82.5903H129.889V137.648H111.333V82.5903H92.7778V137.648H74.2222V82.5903H55.6667V137.648H37.1111V82.5903H18.5556V137.648H9.27778C6.81716 137.648 4.45731 138.614 2.71739 140.335C0.97747 142.056 0 144.39 0 146.824C0 149.257 0.97747 151.591 2.71739 153.312C4.45731 155.033 6.81716 156 9.27778 156H157.722C160.183 156 162.543 155.033 164.283 153.312C166.023 151.591 167 149.257 167 146.824C167 144.39 166.023 142.056 164.283 140.335C162.543 138.614 160.183 137.648 157.722 137.648Z" fill="url(#paint0_linear_453_4210)"/>
<path d="M161.869 37.6726L87.6472 0.967777C86.3594 0.331329 84.9396 0 83.5 0C82.0604 0 80.6406 0.331329 79.3528 0.967777L5.13061 37.6726C3.58834 38.4348 2.29133 39.607 1.38508 41.0577C0.478832 42.5084 -0.000802406 44.1801 1.00768e-06 45.8853V55.0615C1.00768e-06 57.4952 0.977471 59.8292 2.71739 61.5501C4.45731 63.2709 6.81716 64.2377 9.27778 64.2377H157.722C160.183 64.2377 162.543 63.2709 164.283 61.5501C166.023 59.8292 167 57.4952 167 55.0615V45.8853C167.001 44.1801 166.521 42.5084 165.615 41.0577C164.709 39.607 163.412 38.4348 161.869 37.6726Z" fill="url(#paint1_linear_453_4210)"/>
</g>
<defs>
<linearGradient id="paint0_linear_453_4210" x1="48.1731" y1="34.125" x2="174.362" y2="80.5803" gradientUnits="userSpaceOnUse">
<stop stop-color="#7FC0FB"/>
<stop offset="1" stop-color="#4088F4"/>
</linearGradient>
<linearGradient id="paint1_linear_453_4210" x1="48.1731" y1="34.125" x2="174.362" y2="80.5803" gradientUnits="userSpaceOnUse">
<stop stop-color="#7FC0FB"/>
<stop offset="1" stop-color="#4088F4"/>
</linearGradient>
</defs>
</svg>
