<svg width="40" height="40" viewBox="0 0 40 40" fill="none" xmlns="http://www.w3.org/2000/svg">
<rect width="40" height="40" rx="13.3333" fill="url(#paint0_linear_2014_451)"/>
<path fill-rule="evenodd" clip-rule="evenodd" d="M30.668 19.333C30.668 24.8559 26.1908 29.333 20.668 29.333C18.7862 29.333 17.0259 28.8132 15.5226 27.9095L10.8133 29.5365L12.4895 25.0888C11.342 23.4613 10.668 21.4758 10.668 19.333C10.668 13.8102 15.1451 9.33301 20.668 9.33301C26.1908 9.33301 30.668 13.8102 30.668 19.333ZM19.214 16.7775L18.4582 14.917C18.3904 14.7716 18.1908 14.4809 17.935 14.4809C17.9143 14.4809 17.8894 14.4801 17.8606 14.4791C17.443 14.465 16.2227 14.4236 15.8419 16.5449C15.5164 18.3589 17.8574 21.0216 19.0687 22.1263C19.7663 22.7271 21.557 23.9693 23.1384 24.1321C25.1152 24.3356 25.9001 23.1147 25.9873 22.7658C26.0745 22.417 26.2198 21.8356 25.9291 21.574C25.6966 21.3647 24.5144 20.8278 23.9524 20.5856C23.8264 20.5178 23.5163 20.4461 23.2838 20.7019C23.0512 20.9577 22.683 21.4674 22.528 21.6903C22.4601 21.7871 22.214 21.917 21.7721 21.6612C21.7157 21.6285 21.6482 21.5915 21.5715 21.5495C20.898 21.1803 19.508 20.4185 18.5163 18.6961C18.4582 18.6089 18.3884 18.3821 18.5745 18.1728C18.6111 18.1316 18.6572 18.086 18.7079 18.0358C18.9792 17.7673 19.3855 17.3652 19.214 16.7775Z" fill="white"/>
<defs>
<linearGradient id="paint0_linear_2014_451" x1="20" y1="0" x2="20" y2="40" gradientUnits="userSpaceOnUse">
<stop stop-color="#487EFF"/>
<stop offset="1" stop-color="#6BB0FF"/>
</linearGradient>
</defs>
</svg>
